<svg xmlns="http://www.w3.org/2000/svg" xmlns:xlink="http://www.w3.org/1999/xlink" width="645.988" height="746.182" viewBox="0 0 645.988 746.182">
  <defs>
    <linearGradient id="linear-gradient" x1="0.5" y1="1" x2="0.5" gradientUnits="objectBoundingBox">
      <stop offset="0" stop-color="gray" stop-opacity="0.251"/>
      <stop offset="0.54" stop-color="gray" stop-opacity="0.122"/>
      <stop offset="1" stop-color="gray" stop-opacity="0.102"/>
    </linearGradient>
    <linearGradient id="linear-gradient-2" x1="0.507" x2="0.507" xlink:href="#linear-gradient"/>
    <clipPath id="clip-path">
      <rect id="_Rectangle_" data-name="&lt;Rectangle&gt;" width="286.178" height="143.089" fill="#6c63ff"/>
    </clipPath>
    <linearGradient id="linear-gradient-4" xlink:href="#linear-gradient"/>
    <linearGradient id="linear-gradient-5" y1="1.001" y2="0.001" xlink:href="#linear-gradient"/>
    <linearGradient id="linear-gradient-6" xlink:href="#linear-gradient"/>
    <linearGradient id="linear-gradient-8" xlink:href="#linear-gradient"/>
  </defs>
  <g id="Group_2904" data-name="Group 2904" transform="translate(-8.55)">
    <rect id="Rectangle_63" data-name="Rectangle 63" width="293.597" height="144.149" transform="translate(120.339)" opacity="0.5" fill="url(#linear-gradient)"/>
    <g id="Group_2893" data-name="Group 2893" transform="translate(119.799 143.078)" opacity="0.5">
      <path id="Path_5494" data-name="Path 5494" d="M416.49,254.184l1.06,146.269,293.6-2.194-1.06-146.269ZM701.332,389.641l-276.2,2.056-.117-15.167,276.2-2.067Zm-.17-22.746-276.2,2.067-.106-15.21,276.236-2.035Zm-.17-22.746-276.2,2.067-.117-15.167,276.2-2.067Zm-.17-22.746-276.2,2.067L424.5,308.3l276.2-2.067Zm-.17-22.767-276.2,2.12-.117-15.167,276.2-2.067Zm-.17-22.746-276.2,2.067-.117-15.167,276.2-2.067Z" transform="translate(-416.49 -251.99)" fill="url(#linear-gradient-2)"/>
    </g>
    <path id="Path_5495" data-name="Path 5495" d="M419.5,253.12l1.06,143.089,286.178-2.12L705.678,251ZM697.135,385.61l-269.219,2.014-.106-14.839,269.219-2.014Zm-.17-22.258-269.219,2.014-.106-14.839,269.219-2.014Zm-.17-22.258-269.219,2.014-.106-14.839,269.219-2.014Zm-.17-22.258-269.177,2.12-.106-14.839L696.563,304.1Zm-.17-22.258L427.238,298.59l-.106-14.839,269.219-2.014Zm-.17-22.258-269.219,2.014-.106-14.839,269.219-2.014Z" transform="translate(-296.511 -108.971)" fill="#979797"/>
    <rect id="_Rectangle_2" data-name="&lt;Rectangle&gt;" width="286.178" height="143.089" transform="translate(124.579 3.18)" fill="#6c63ff"/>
    <g id="Group_2896" data-name="Group 2896" transform="translate(124.579 3.18)" clip-path="url(#clip-path)">
      <g id="Group_2894" data-name="Group 2894" transform="translate(-125.091 2.107)" opacity="0.5">
        <path id="Path_5496" data-name="Path 5496" d="M24.6,247.507l4.738-3.445-2.565-28.968-5.565-12.1L0,211.173Z" transform="translate(0 6.876)" fill="url(#linear-gradient)"/>
        <path id="Path_5497" data-name="Path 5497" d="M649.19,125.488c-12.889-6.19-22.534-3.286-29.275,1.876-9.359,6.455-13.631,17.563-13.631,17.563l-1.834,4.95h0l-8.723,6.36-2.841-6.063S561.98,95.27,470.837,202.48l-.424-.339s-7.769,9.539-14.839,20.138l-1.007,1.526-.445.689-.636,1-.466.742-.678,1.06-.6,1-.657,1.06-.466.806-.488.837-.466.827-.488.9-.71,1.346-.392.753-.435.869-.318.668-.413.869-.254.583q-.339.774-.647,1.526l-.233.583c-.106.276-.2.551-.3.816l-.191.562q-.212.636-.382,1.24c-.064.212-.127.435-.17.636h0a11.923,11.923,0,0,0-.4,4.017L323,331.864l6.222,13.546s87.21-34.469,146.65-72.255l-2.5,52.869h0l-.159,3.275s-54.289,44.877-68.418,67.835l-24.23,13.991L406,448.646l5.925-4.3,3.72-29.8L515.28,334.9s18.888-34.511,19.216-63.415l4.081,15.761s8.681,24.378,14.839,25.374,6.158-18.93,1.855-24.844-2.2-45.386-2.2-45.386l1.06-8.034,15.591-11.33.572-.551.816,4.96,3.18.276v.223H574.2l.148,1.442h0l2,37.648L587.386,309.6s8.691,24.378,14.839,25.374,6.158-18.93,1.865-24.844-2.2-45.386-2.2-45.386l4.547-32.857h0l.085-.636.106-.731,8.967.774s9.3-32.052-6.3-46.022l-2.841-6.063,5.808-4.24h0l1.166-.848a26.381,26.381,0,0,0,36.906-.074,18.4,18.4,0,0,0,12.306-3.286c.784-.551,1.548-1.06,2.268-1.632,3.265-2.342,5.967-4.494,6.508-5.533C672.921,160.645,669.137,135.07,649.19,125.488Z" transform="translate(-301.78 -121.988)" fill="url(#linear-gradient-4)"/>
      </g>
      <path id="Path_5498" data-name="Path 5498" d="M556.7,205.08l3.063,57.426,10.705,41.337s8.479,23.7,14.383,24.633,5.978-18.379,1.8-24.124-2.12-44.061-2.12-44.061l6.752-48.756Z" transform="translate(-412.869 -114.902)" fill="#fda57d"/>
      <path id="Path_5499" data-name="Path 5499" d="M553.34,215.934l1.558,9.4,43.149,3.731s9.02-31.119-6.105-44.686Z" transform="translate(-413.071 -116.143)" fill="#ffa947"/>
      <path id="Path_5500" data-name="Path 5500" d="M470.622,199.87s-26.5,32.434-25.29,43.817L327.48,325.831l6.042,13.154s84.666-33.462,142.389-70.145l-2.576,54.512s-52.71,43.573-66.425,65.821l10.536,16.959,96.739-77.374s28.692-52.434,14.934-81.052Z" transform="translate(-426.603 -115.214)" fill="#505050"/>
      <path id="Path_5501" data-name="Path 5501" d="M5.08,209.659l20.584-7.949,5.406,11.765,2.491,28.12-4.6,3.339Z" transform="translate(-124.787 8.906)"/>
      <path id="Path_5502" data-name="Path 5502" d="M100.77,261.46,77.25,275.048l24.717,36.429,5.745-4.187,3.593-28.925Z" transform="translate(-120.463 12.486)"/>
      <path id="Path_5503" data-name="Path 5503" d="M597.379,187.066l-15.9-34.034S551.358,99.485,462.42,204.48l58.613,46.848,37.956-27.558Z" transform="translate(-418.518 -118.839)" fill="#ff8e0d"/>
      <path id="Path_5504" data-name="Path 5504" d="M.042,0H24.166V42.609a5.724,5.724,0,0,1-5.724,5.724H5.724A5.724,5.724,0,0,1,0,42.609V0Z" transform="translate(191.386 21.359) rotate(53.99)" fill="#fda57d"/>
      <path id="Path_5505" data-name="Path 5505" d="M586.112,151.758a25.226,25.226,0,0,0,6.794,24.887l14.648-10.6L593.362,146.49Z" transform="translate(-411.162 -118.413)" opacity="0.05"/>
      <ellipse id="Ellipse_21" data-name="Ellipse 21" cx="25.597" cy="25.544" rx="25.597" ry="25.544" transform="translate(165.066 33.506) rotate(-36.01)" fill="#fda57d"/>
      <path id="Path_5506" data-name="Path 5506" d="M600.109,143.624,585.27,153.5l1.781-4.8s12.157-31.649,40.51-18.019c19.375,9.3,23.043,34.129,21.58,36.949-.583,1.06-3.742,3.561-7.419,6.116a17.807,17.807,0,0,1-23.891-3.01c-4.971-5.914-13.62-18.146-12.019-25.162h0c-1.452-2.639-3.349-3.7-5.8-1.929Z" transform="translate(-411.157 -119.564)" opacity="0.05"/>
      <path id="Path_5507" data-name="Path 5507" d="M601.189,142.834l-14.839,9.878,1.781-4.8s12.157-31.649,40.51-18.019c19.375,9.3,23.043,34.129,21.58,36.949-.583,1.06-3.742,3.561-7.419,6.116a17.807,17.807,0,0,1-23.891-3.01c-4.971-5.914-13.62-18.146-12.02-25.162h0c-1.452-2.639-3.349-3.7-5.8-1.929Z" transform="translate(-411.093 -119.612)" fill="#5a2f32"/>
      <ellipse id="Ellipse_22" data-name="Ellipse 22" cx="5.692" cy="2.841" rx="5.692" ry="2.841" transform="translate(185.642 25.567) rotate(-36.01)" fill="#fda57d"/>
      <path id="Path_5508" data-name="Path 5508" d="M245.87,101.568l6.773-5.8.085,9.158-1.484-3.53Z" transform="translate(-110.36 2.559)" opacity="0.05"/>
      <path id="Path_5509" data-name="Path 5509" d="M254.64,106.45l.148,1.41,31.119,2.427.191-1.325Z" transform="translate(-109.834 3.198)" opacity="0.05"/>
      <g id="Group_2895" data-name="Group 2895" transform="translate(-93.114 104.2)" opacity="0.05">
        <path id="Path_5510" data-name="Path 5510" d="M449.594,218.31c-4.749,7.154-9.147,14.839-10.5,20.372l3.689-2.576C442.28,232.047,445.354,225.305,449.594,218.31Z" transform="translate(-326.802 -218.31)"/>
        <path id="Path_5511" data-name="Path 5511" d="M477.076,313.332l2.576-54.512c-57.712,36.684-142.421,70.145-142.421,70.145l-4.081,6.476S417.816,301.98,475.539,265.3l-2.427,51.332C475.624,314.529,477.076,313.332,477.076,313.332Z" transform="translate(-333.15 -215.883)"/>
      </g>
      <path id="Path_5512" data-name="Path 5512" d="M512,184.62l3.063,57.426,10.705,41.337s8.479,23.7,14.383,24.632,5.978-18.379,1.8-24.124-2.12-44.061-2.12-44.061l6.752-48.756Z" transform="translate(-415.548 -116.128)" fill="#fda57d"/>
      <path id="Path_5513" data-name="Path 5513" d="M515.484,158.26s-7.133,19.216-4.1,25.8" transform="translate(-415.63 -117.708)" opacity="0.05"/>
      <path id="Path_5514" data-name="Path 5514" d="M209.151,66.68l-.021,3.572L243.312,76l.413-2.862Z" transform="translate(-112.561 0.816)" opacity="0.05"/>
      <path id="Path_5515" data-name="Path 5515" d="M216.875,39.124,209,69.416l34.574,6.444,9.137-38.221Z" transform="translate(-112.569 -0.924)" fill="#ffa947"/>
    </g>
    <g id="Group_2897" data-name="Group 2897" transform="translate(227.698 146.226)" opacity="0.5">
      <path id="Path_5516" data-name="Path 5516" d="M518.29,255l6.815,25.767s8.776,24.2,15,25.109,6.232-18.771,1.887-24.632c-2.289-3.084-2.788-15.337-2.745-26.286Z" transform="translate(-518.29 -254.96)" fill="url(#linear-gradient-5)"/>
    </g>
    <path id="Path_5517" data-name="Path 5517" d="M518.81,255l6.561,25.226s8.479,23.7,14.383,24.632,5.978-18.379,1.8-24.124c-2.194-3.021-2.671-15.019-2.629-25.745Z" transform="translate(-290.56 -108.732)" fill="#fda57d"/>
    <g id="Group_2898" data-name="Group 2898" transform="translate(270.244 145.209)" opacity="0.5">
      <path id="Path_5518" data-name="Path 5518" d="M585.659,254H558.43l.371,6.826,11.331,42.545s8.924,24.378,15.231,25.353,6.359-18.92,1.908-24.823S585,258.558,585,258.558Z" transform="translate(-558.43 -254)" fill="url(#linear-gradient-6)"/>
    </g>
    <path id="Path_5519" data-name="Path 5519" d="M584.995,254H559.26l.35,6.635,10.705,41.337s8.479,23.7,14.383,24.633,5.978-18.379,1.8-24.124-2.12-44.061-2.12-44.061Z" transform="translate(-288.137 -108.791)" fill="#fda57d"/>
    <g id="Group_2899" data-name="Group 2899" transform="translate(332.323 558.576)" opacity="0.5">
      <rect id="Rectangle_64" data-name="Rectangle 64" width="322.215" height="16.959" fill="url(#linear-gradient)"/>
    </g>
    <rect id="Rectangle_65" data-name="Rectangle 65" width="314.795" height="13.779" transform="translate(337.622 558.576)" fill="#656565"/>
    <g id="Group_2900" data-name="Group 2900" transform="translate(8.55 367.601)" opacity="0.5">
      <path id="Path_5520" data-name="Path 5520" d="M707.123,613.724l1.283.551h0l41.051,17.658,52.318-61.994s7.918-8.861-1.516-14.924-15.358,9.624-15.358,9.624l-40.277,43.1-34.066-17.065.53-3.582-31.1-18.019a38.136,38.136,0,0,0-1.971-3.3l-.286-1.06-1.558-1.367c-.3-.318-.594-.615-.89-.88l5.151-5.586a27.685,27.685,0,0,0,36.482-21.707,19.482,19.482,0,0,0,7.292,0,20.139,20.139,0,0,0,14.383-11.808,1.472,1.472,0,0,1-1.06.774,18.842,18.842,0,0,0,1.06-2.12c-1.06,2.576-11-.975-12.5-1.77-4.558-2.417-6.9-6.01-9.253-10.4-4.642-8.691-13.228-11.9-22.873-12.655-7.419-.583-14.966-.074-21.8,2.735s-12.867,8.151-15.348,15.125a19.967,19.967,0,0,0-1.06,7.366,18.019,18.019,0,0,0,5.861,14.373,12.6,12.6,0,0,0,1.06.816c.2.805.435,1.59.71,2.374l-1.42,1.4v.085l-8.829,9.539-.456-.138-93.1,13.927v.191c-3.095-2.046-17.118-9.168-52.116.509-13.217,3.657-35.242,3.265-58.878,1.06-16.63-20.637-27.282-84.634-27.282-84.634l-4.165-18.1-54.194,12.528s25.014,5.565,29.18,12.528c6.359,2.12,10.292,49.615,11.807,72.074-32.444-5-59.048-10.748-59.048-10.748l-19.46-6.964L311.53,592s15.337-16.694,29.2-18.125c0,0,69.488,33.419,120.9,26.5,19.979-2.809,39.376,5.671,55.582,8.31a316.662,316.662,0,0,0,42.916,4.176l.169,15.316s57.236-2.47,94.81-14.394c2.851,7.727,5.141,13.3,5.935,13.694l6.815-3.339,38.348,47.2L781.253,640.7s11.119-4.176,5.554-13.927-18.019,1.389-18.019,1.389l-55.582,19.492-23.456-32.518h0l-.911-1.272,4.918-2.417s-.159-.721-.445-1.971l12.91,10.345Z" transform="translate(-311.53 -463.82)" fill="url(#linear-gradient-8)"/>
    </g>
    <path id="Path_5521" data-name="Path 5521" d="M339.971,453.3l-17.181-15.92,28.438-30.833,17.181,15.92Z" transform="translate(18.828 24.359)" fill="#fda57d"/>
    <path id="Path_5522" data-name="Path 5522" d="M652.029,524.83,639.48,538.439a27.091,27.091,0,0,0,16.609,16.545l13.132-14.235Z" transform="translate(-283.33 -92.564)" opacity="0.05"/>
    <path id="Path_5523" data-name="Path 5523" d="M654.8,595.448l68.895,29.678,50.876-60.3s7.706-8.617-1.473-14.51-14.945,9.359-14.945,9.359L719.02,601.585l-50.229-25.173Z" transform="translate(-282.412 -91.118)" fill="#fda57d"/>
    <path id="Path_5524" data-name="Path 5524" d="M348.563,443.46l35.147,20.308L378.982,495.6l-33.122-26.4Z" transform="translate(20.211 26.571)" fill="#ffa947"/>
    <ellipse id="Ellipse_23" data-name="Ellipse 23" cx="27.028" cy="27.081" rx="27.028" ry="27.081" transform="translate(355.938 408.418)" fill="#fda57d"/>
    <path id="Path_5525" data-name="Path 5525" d="M649.623,550.47l-13.5-4.07L545.56,559.946l.678,61.624s110.157-4.738,122.325-33.175l-8.108-28.438Z" transform="translate(-288.958 -91.272)" fill="#ff8e0d"/>
    <path id="Path_5526" data-name="Path 5526" d="M346.85,469.409l32.073,25.576,1.346-10.832L348.5,453.68Z" transform="translate(20.27 27.183)" opacity="0.05"/>
    <path id="Path_5527" data-name="Path 5527" d="M558.263,560.662s-12.168-10.832-51.364,0S348.76,545.77,348.76,545.77L344.7,568.791s67.58,32.508,117.587,25.735c19.471-2.639,38.295,5.6,54.056,8.13a304.277,304.277,0,0,0,41.9,4.059Z" transform="translate(-300.993 -91.309)" fill="#505050"/>
    <path id="Path_5528" data-name="Path 5528" d="M350.364,546.143l-18.919-6.773L317.92,586.78s14.839-16.249,28.385-17.605Z" transform="translate(-302.597 -91.693)"/>
    <path id="Path_5529" data-name="Path 5529" d="M391.88,489.933l28.385-6.773s13.514,81.253,33.79,88.026H404.048S399.988,492.636,391.88,489.933Z" transform="translate(-298.166 -95.061)" fill="#4f5051"/>
    <path id="Path_5530" data-name="Path 5530" d="M421.869,484.155,417.81,466.55,365.1,478.686s24.378,5.416,28.385,12.189Z" transform="translate(-299.77 -96.056)"/>
    <path id="Path_5531" data-name="Path 5531" d="M670.945,498.352c-7.165-.562-14.553-.074-21.2,2.66s-12.507,7.928-14.934,14.712-.859,15.114,4.621,19.789a8.076,8.076,0,0,0,4.759,2.12c2.872.117,5.3-1.993,7.5-3.826a63.1,63.1,0,0,1,13.567-8.564c4.144-1.929,9.2-3.349,13.122-1,1.865,1.123,3.18,2.936,4.717,4.473a19.184,19.184,0,0,0,31.257-6.264c-1.06,2.512-10.695-.954-12.147-1.728-4.43-2.353-6.72-5.84-9-10.112C688.678,502.231,680.336,499.051,670.945,498.352Z" transform="translate(-283.676 -94.163)" opacity="0.05"/>
    <path id="Path_5532" data-name="Path 5532" d="M670.944,497.072c-7.165-.562-14.553-.074-21.2,2.66s-12.549,7.875-14.934,14.712-.859,15.114,4.621,19.789a8.076,8.076,0,0,0,4.759,2.12c2.872.117,5.3-1.993,7.5-3.826a63.1,63.1,0,0,1,13.567-8.564c4.144-1.929,9.2-3.349,13.122-1,1.865,1.123,3.18,2.936,4.717,4.473a19.184,19.184,0,0,0,31.257-6.264c-1.06,2.512-10.695-.954-12.147-1.728-4.43-2.353-6.72-5.84-9-10.112C688.677,500.93,680.335,497.8,670.944,497.072Z" transform="translate(-283.675 -94.24)"/>
    <ellipse id="Ellipse_24" data-name="Ellipse 24" cx="4.059" cy="2.024" rx="4.059" ry="2.024" transform="translate(371.282 436.273) rotate(-76.65)" fill="#fda57d"/>
    <path id="Path_5533" data-name="Path 5533" d="M341.92,497.174l.9,1.113,20.329-9.857-.89-1.229Z" transform="translate(19.975 29.192)" opacity="0.05"/>
    <path id="Path_5534" data-name="Path 5534" d="M381.268,465.91l-3.318,22.248,1.229.7,2.607-22.693Z" transform="translate(22.133 27.916)" opacity="0.05"/>
    <rect id="Rectangle_66" data-name="Rectangle 66" width="16.217" height="109.691" transform="translate(280.249 436.845)" fill="#7b500f"/>
    <rect id="Rectangle_67" data-name="Rectangle 67" width="16.217" height="109.691" transform="matrix(0.948, 0.318, -0.318, 0.948, 250.445, 129.734)" fill="#7b500f"/>
    <path id="Path_5535" data-name="Path 5535" d="M275.4,438.625H269.99V173.73l5.331.286Z" transform="translate(15.665 10.409)" fill="#7b500f"/>
    <path id="Path_5536" data-name="Path 5536" d="M635.45,602.589l47.3,58.232,72.986-29.794s10.822-4.059,5.363-13.6-17.573,1.357-17.573,1.357l-54.056,18.962L656.617,592.17Z" transform="translate(-283.572 -88.529)" fill="#fda57d"/>
    <path id="Path_5537" data-name="Path 5537" d="M617,556.892s20.276,62.291,22.979,63.648l31.8-15.57s-9.009-42.015-19.078-48.428S618.314,551.465,617,556.892Z" transform="translate(-284.677 -90.921)" fill="#ffa947"/>
    <path id="Path_5538" data-name="Path 5538" d="M622.423,573.12s-1.06,23.827,5.7,27.887" transform="translate(-284.356 -89.671)" opacity="0.05"/>
    <g id="Group_2901" data-name="Group 2901" transform="translate(431.404 432.446)" opacity="0.5">
      <path id="Path_5539" data-name="Path 5539" d="M558.6,408l-9.847,9.635-25.12,105.091-.35-.053-79.218-1.982L407.5,535.148v5.342L519.671,539.3h7.716l4.8-1.039L563.35,409.781Z" transform="translate(-407.5 -408)" fill="url(#linear-gradient)"/>
    </g>
    <path id="Path_5540" data-name="Path 5540" d="M547.28,411l-9.38,9.168,6.222,2.258,7.674-9.73Z" transform="translate(31.717 24.626)" fill="#3a3939"/>
    <path id="Path_5541" data-name="Path 5541" d="M539.465,419.65l6.222,2.258-26.561,113.57H511.78Z" transform="translate(30.152 25.144)" fill="#3a3939"/>
    <path id="Path_5542" data-name="Path 5542" d="M518.71,535.9l4.568-.986L552.945,412.6l-7.674,9.73Z" transform="translate(30.567 24.722)"/>
    <path id="Path_5543" data-name="Path 5543" d="M411.03,525.286v5.088l106.787-1.134,1.738-5.48Z" transform="translate(24.116 31.382)"/>
    <path id="Path_5544" data-name="Path 5544" d="M521.844,514.192l-.594-.085-75.4-1.887L411.03,525.978l108.483-1.124" transform="translate(24.116 30.691)" fill="#3a3939"/>
    <path id="Path_5545" data-name="Path 5545" d="M474.02,521.359,476.14,515h41.337l-2.12,7.419Z" transform="translate(27.89 30.857)" fill="#3deee2"/>
    <path id="Path_5546" data-name="Path 5546" d="M441.02,520.3l14.839-5.3h10.6l-5.3,5.3Z" transform="translate(25.912 30.857)" fill="#3deee2"/>
    <g id="Group_2902" data-name="Group 2902" transform="translate(353.521 572.355)" opacity="0.5">
      <rect id="Rectangle_68" data-name="Rectangle 68" width="19.079" height="173.826" fill="url(#linear-gradient)"/>
    </g>
    <g id="Group_2903" data-name="Group 2903" transform="translate(618.501 572.355)" opacity="0.5">
      <rect id="Rectangle_69" data-name="Rectangle 69" width="19.079" height="173.826" fill="url(#linear-gradient)"/>
    </g>
    <rect id="Rectangle_70" data-name="Rectangle 70" width="15.899" height="170.647" transform="translate(355.641 572.355)" fill="#656565"/>
    <rect id="Rectangle_71" data-name="Rectangle 71" width="15.899" height="170.647" transform="translate(620.62 572.355)" fill="#656565"/>
    <path id="Path_5547" data-name="Path 5547" d="M271.4,176.469,247,140.421l2.565-7.621L276.7,176.469Z" transform="translate(14.287 7.957)" fill="#7b500f"/>
    <rect id="Rectangle_72" data-name="Rectangle 72" width="4.24" height="10.684" transform="translate(406.086 443.046) rotate(33.6)"/>
    <rect id="Rectangle_73" data-name="Rectangle 73" width="31.384" height="2.12" transform="translate(378.598 427.556) rotate(33.62)"/>
  </g>
</svg>
