<svg id="Layer_2" data-name="Layer 2" xmlns="http://www.w3.org/2000/svg" width="668.516" height="497.456" viewBox="0 0 668.516 497.456">
  <g id="Background_Complete" data-name="Background Complete">
    <rect id="Rectangle_74" data-name="Rectangle 74" width="668.516" height="0.334" transform="translate(0 437.811)" fill="#ebebeb"/>
    <path id="Path_5548" data-name="Path 5548" d="M305.405,378.18H47.224a7.634,7.634,0,0,1-7.634-7.634V7.634A7.634,7.634,0,0,1,47.224,0H305.405a7.634,7.634,0,0,1,7.634,7.634V370.545A7.634,7.634,0,0,1,305.405,378.18ZM47.224.334a7.314,7.314,0,0,0-7.3,7.3V370.545a7.314,7.314,0,0,0,7.3,7.3H305.405a7.314,7.314,0,0,0,7.3-7.3V7.634a7.314,7.314,0,0,0-7.3-7.3Z" transform="translate(13.343)" fill="#ebebeb"/>
    <path id="Path_5549" data-name="Path 5549" d="M521.705,378.18H263.524a7.634,7.634,0,0,1-7.634-7.634V7.634A7.634,7.634,0,0,1,263.524,0H521.705a7.634,7.634,0,0,1,7.634,7.634V370.545A7.634,7.634,0,0,1,521.705,378.18ZM263.524.334a7.314,7.314,0,0,0-7.3,7.3V370.545a7.314,7.314,0,0,0,7.3,7.3H521.705a7.314,7.314,0,0,0,7.3-7.3V7.634a7.314,7.314,0,0,0-7.3-7.3Z" transform="translate(86.243)" fill="#ebebeb"/>
    <rect id="Rectangle_75" data-name="Rectangle 75" width="668.516" height="0.334" transform="translate(0 437.811)" fill="#ebebeb"/>
    <rect id="Rectangle_76" data-name="Rectangle 76" width="44.283" height="0.334" transform="translate(557.248 459.324)" fill="#ebebeb"/>
    <rect id="Rectangle_77" data-name="Rectangle 77" width="11.619" height="0.334" transform="translate(431.233 462.961)" fill="#ebebeb"/>
    <rect id="Rectangle_78" data-name="Rectangle 78" width="25.658" height="0.334" transform="translate(530.254 446.916)" fill="#ebebeb"/>
    <rect id="Rectangle_79" data-name="Rectangle 79" width="57.746" height="0.334" transform="translate(70.141 449.163)" fill="#ebebeb"/>
    <rect id="Rectangle_80" data-name="Rectangle 80" width="125.253" height="0.334" transform="translate(175.78 454.805)" fill="#ebebeb"/>
    <path id="Path_5550" data-name="Path 5550" d="M167.8,118.436c16.432,0,62.533,6.685,62.533-18.023,0-21.032-22.529-19.481-22.529-19.481s.642-18.237-19.427-20.657c-20.577-2.487-23.746,17.208-23.746,17.208s-35.726-12.541-30.3,18.932c0,0-19.8-3.5-19.8,10.7C114.583,122.915,151.873,118.4,167.8,118.436Z" transform="translate(38.6 20.241)" fill="#8eecd9"/>
    <path id="Path_5551" data-name="Path 5551" d="M166.119,277.471c33.426.094,126.911,15.416,126.911-41.3,0-48.133-45.713-44.63-45.713-44.63s1.337-41.755-39.416-47.3c-41.782-5.7-48.133,39.416-48.133,39.416s-72.534-28.719-61.5,43.36c0,0-40.2-8.022-40.2,24.441C58.113,287.712,133.79,277.364,166.119,277.471Z" transform="translate(19.568 48.444)" fill="#8eecd9"/>
    <path id="Path_5552" data-name="Path 5552" d="M249.788,266.16c-18.451,0-70.208,8.53-70.208-22.837,0-26.66,25.3-24.708,25.3-24.708s-.735-23.091,21.807-26.166c23.1-3.142,26.594,21.807,26.594,21.807s40.111-15.884,34.027,23.986c0,0,22.235-4.426,22.235,13.517C309.54,271.829,267.677,266.106,249.788,266.16Z" transform="translate(60.524 64.769)" fill="#8eecd9"/>
    <path id="Path_5553" data-name="Path 5553" d="M324.175,164.743c18.411,0,70.034,7.1,70.034-19.026,0-22.208-25.23-20.564-25.23-20.564s.722-19.24-21.753-21.794c-23.05-2.674-26.54,18.157-26.54,18.157s-40.017-13.237-33.921,19.975c0,0-22.195-3.69-22.195,11.258C264.57,169.463,306.339,164.689,324.175,164.743Z" transform="translate(89.169 34.756)" fill="#bfece1"/>
    <path id="Path_5554" data-name="Path 5554" d="M268.09,425.747l26.9-174.429L375,150.3,402.275,35.32s66.13,63.9,67.961,65.581,16.392,174.135,18.411,176.769,21.018,32.65,21.018,32.65l8.838,114.9Z" transform="translate(90.355 11.904)" fill="#14c271"/>
    <path id="Path_5555" data-name="Path 5555" d="M268.09,425.76l38.346-150.724,54.324-51.783,10.175,65.555,13.691-74.566,15.536,25.417L396.779,152l2.7-28.038,9.119,18.611-6.324-107.3,46.1,1.07L457.975,87l12.261,13.865,18.411,176.769,21.018,32.7,8.838,114.9Z" transform="translate(90.355 11.891)" fill="#207e52"/>
    <path id="Path_5556" data-name="Path 5556" d="M369.35,35.72l27.382,88.618L413,137.281s8.6,36.02,8.5,33.707-.989-42.638-.989-42.638l4.225-32.931-10.7-58.629Z" transform="translate(124.483 12.039)" fill="#14c271"/>
    <path id="Path_5557" data-name="Path 5557" d="M433.05,216.54l6.391,29.776,14.627,2.928Z" transform="translate(145.952 72.981)" fill="#f5f5f5"/>
    <path id="Path_5558" data-name="Path 5558" d="M379.919,312.033c29.254.08,111.241,13.517,111.241-36.193,0-42.237-40.111-39.122-40.111-39.122s1.163-36.595-34.549-41.448c-36.581-5-42.1,34.549-42.1,34.549s-63.563-25.176-53.9,38c0,0-35.231-7.019-35.231,21.393C285.27,321,351.6,311.94,379.919,312.033Z" transform="translate(96.145 65.665)" fill="#40cdd8"/>
  </g>
  <g id="Shadow" transform="translate(77.882 449.163)">
    <rect id="Rectangle_81" data-name="Rectangle 81" width="8.463" height="0.334" transform="translate(61.918)" fill="#ebebeb"/>
    <ellipse id="_Path_" data-name="&lt;Path&gt;" cx="259.237" cy="15.135" rx="259.237" ry="15.135" transform="translate(0 18.023)" fill="#f5f5f5"/>
  </g>
  <g id="Coin" transform="translate(491.444 30.324)">
    <path id="Path_5559" data-name="Path 5559" d="M415.135,46a23.385,23.385,0,0,1-23.385,23.385h-1.564a23.385,23.385,0,0,1,0-46.662h1.564A23.385,23.385,0,0,1,415.135,46Z" transform="translate(-367.287 -22.667)" fill="#407bff"/>
    <path id="Path_5560" data-name="Path 5560" d="M412.008,46.011a21.86,21.86,0,1,1-21.82-23.331A23.385,23.385,0,0,1,412.008,46.011Z" transform="translate(-367.303 -22.68)" fill="#fff" opacity="0.2"/>
    <circle id="Ellipse_25" data-name="Ellipse 25" cx="17.488" cy="17.488" r="17.488" transform="translate(0 32.805) rotate(-67.5)" fill="#fff" opacity="0.4"/>
    <g id="Group_2905" data-name="Group 2905" transform="translate(14.141 9.841)" opacity="0.7">
      <path id="Path_5561" data-name="Path 5561" d="M394.893,47.248c.682,3.864-1.979,6.458-6.765,6.859l-.08,3.209h-2.915l.08-3.209a15.937,15.937,0,0,1-7.073-2.233l1.337-3.61a13.531,13.531,0,0,0,5.87,2.072l.12-4.92c-2.848-.816-6-1.885-6.685-5.348-.669-3.864,2.032-6.471,6.926-6.832l.08-3.2h2.9l-.04,3.169a14.253,14.253,0,0,1,5.629,1.658l-1.137,3.6a11.325,11.325,0,0,0-4.6-1.511l-.107,5.067C391.243,42.862,394.3,43.905,394.893,47.248Zm-9.359-5.99.107-4.185c-1.6.321-2.38,1.217-2.206,2.326C383.582,40.3,384.411,40.816,385.534,41.258Zm4.787,6.685c-.147-.842-.909-1.337-1.992-1.752l-.094,4.011c1.511-.281,2.273-1.1,2.086-2.193Z" transform="translate(-378.14 -30.04)" fill="#fff"/>
    </g>
  </g>
  <g id="Metric" transform="translate(82.949 268.209)">
    <path id="Path_5647" data-name="Path 5647" d="M0,0H79.112V213.965H0Z" transform="translate(237.524 0.214)" fill="#4c4d50"/>
    <rect id="Rectangle_83" data-name="Rectangle 83" width="22.355" height="214.219" transform="translate(237.51)" opacity="0.2"/>
    <rect id="Rectangle_84" data-name="Rectangle 84" width="79.112" height="128.395" transform="translate(158.318 85.784)" fill="#40ff60"/>
    <rect id="Rectangle_85" data-name="Rectangle 85" width="23.772" height="128.262" transform="translate(158.318 85.784)" opacity="0.2"/>
    <rect id="Rectangle_86" data-name="Rectangle 86" width="79.112" height="101.133" transform="translate(79.139 113.046)" fill="#ffec40"/>
    <rect id="Rectangle_87" data-name="Rectangle 87" width="23.532" height="100.999" transform="translate(79.139 113.046)" opacity="0.2"/>
    <rect id="Rectangle_88" data-name="Rectangle 88" width="79.112" height="73.871" transform="translate(0 140.308)" fill="#ff40d9"/>
    <rect id="Rectangle_89" data-name="Rectangle 89" width="22.355" height="73.804" transform="translate(0.013 140.241)" opacity="0.2"/>
  </g>
  <g id="Character" transform="translate(227.389 41.608)">
    <path id="Path_5562" data-name="Path 5562" d="M230.914,80.231c-3.757,4.546-7.634,8.985-11.5,13.437l-2.928,3.316-2.674,2.928a9.065,9.065,0,0,0-2.032,4.613l-.882,8.624c-.294,2.928-.588,5.856-.923,8.784-.655,5.856-1.337,11.7-2.113,17.555a3.744,3.744,0,0,1-7.447-.294c-.334-5.883-.562-11.753-.762-17.635-.12-2.928-.174-5.87-.254-8.811l-.2-8.958a21.7,21.7,0,0,1,3.824-11.7l2.9-4.011,2.674-3.5c3.543-4.653,7.1-9.359,10.7-13.852a7.475,7.475,0,1,1,11.659,9.359Z" transform="translate(-160.252 -18.713)" fill="#ff8e0d"/>
    <path id="Path_5563" data-name="Path 5563" d="M200.684,122.093l-4.894,8.29,11.258,1.15,1.979-8.423a1.792,1.792,0,0,0-1.417-2.179A9.119,9.119,0,0,0,200.684,122.093Z" transform="translate(-161.402 -0.93)" fill="#cb7a63"/>
    <path id="Path_5564" data-name="Path 5564" d="M195.79,127.94l.521,2.941a3.022,3.022,0,0,0,2.982,2.5h3.663a3,3,0,0,0,2.674-1.6l1.431-2.674Z" transform="translate(-161.402 1.512)" fill="#cb7a63"/>
    <path id="Path_5565" data-name="Path 5565" d="M198.85,117.09l10.83.361-.7,6.471-9.145-.709Z" transform="translate(-160.37 -2.144)" fill="#407bff"/>
    <path id="Path_5566" data-name="Path 5566" d="M198.85,117.09l10.83.361-.7,6.471-9.145-.709Z" transform="translate(-160.37 -2.144)" fill="#fff" opacity="0.3"/>
    <path id="Path_5567" data-name="Path 5567" d="M214.425,182.092l-1.778,2.674-1.337-2.754,3.249-41.983c.508-6.685-1.738-12.154-10.041-12.354-7.768-.187-12.474,5.107-13.023,11.779l-3.4,41.9-1.858,2.674-1.27-2.754,3.423-41.889c.628-7.741,4.011-13.959,16.285-13.664s13.6,6.685,13,14.4Z" transform="translate(-165.048 0.762)" fill="#263238"/>
    <path id="Path_5568" data-name="Path 5568" d="M185.058,146.71h-2.139a8.851,8.851,0,0,0-8.838,7.715l-4.011,30.257,13.932.495Z" transform="translate(-170.07 7.838)" fill="#263238"/>
    <path id="Path_5569" data-name="Path 5569" d="M185.058,146.71h-2.139a8.851,8.851,0,0,0-8.838,7.715l-4.011,30.257,13.932.495Z" transform="translate(-170.07 7.838)" fill="#fff" opacity="0.2"/>
    <path id="Path_5570" data-name="Path 5570" d="M218.132,182.369l-3.142-.094.307-41.969c0-6.685-2.594-12.167-10.91-12.368-7.782-.187-12.114,5.121-12.194,11.779l-.4,41.9-3.142-.08.495-41.9c.094-7.741,3.1-13.959,15.336-13.664s14.052,6.685,14,14.4Z" transform="translate(-163.808 0.846)" fill="#263238"/>
    <path id="Path_5571" data-name="Path 5571" d="M237.345,186.795l-61.9-1.832.588-31.206a7.073,7.073,0,0,1,7.22-7.046l45.085,1.177a9.52,9.52,0,0,1,9.172,9.587Z" transform="translate(-168.26 7.838)" fill="#263238"/>
    <path id="Path_5572" data-name="Path 5572" d="M230.456,186.594l-48.24-1.431a7.006,7.006,0,0,1-6.685-7.153l.495-24.254a7.073,7.073,0,0,1,7.22-7.046l45.085,1.177a9.52,9.52,0,0,1,9.172,9.587l-.134,22.328a6.685,6.685,0,0,1-6.912,6.792Z" transform="translate(-168.23 7.838)" fill="#fff" opacity="0.4"/>
    <g id="Group_2906" data-name="Group 2906" transform="translate(24.842 126.808)" opacity="0.3">
      <path id="Path_5573" data-name="Path 5573" d="M218.132,182.369l-1.591,2.674-1.551-2.768.307-41.969c0-6.685-2.594-12.167-10.91-12.368-7.782-.187-12.114,5.121-12.194,11.779l-.4,41.9-1.671,2.674-1.471-2.754.495-41.9c.094-7.741,3.1-13.959,15.336-13.664s14.052,6.685,14,14.4Z" transform="translate(-188.65 -125.962)" fill="#fff"/>
    </g>
    <path id="Path_5574" data-name="Path 5574" d="M193.041,156.006l-5.161-.134.027-1.952,5.161.147Z" transform="translate(-164.067 10.268)" fill="#263238"/>
    <path id="Path_5575" data-name="Path 5575" d="M192.944,165.426l-5.174-.147.027-1.939,5.174.134Z" transform="translate(-164.105 13.443)" fill="#263238"/>
    <path id="Path_5576" data-name="Path 5576" d="M212.888,156.546,207.7,156.4l.013-1.939,5.188.134Z" transform="translate(-157.387 10.45)" fill="#263238"/>
    <path id="Path_5577" data-name="Path 5577" d="M212.818,165.989l-5.188-.147.013-1.952,5.188.147Z" transform="translate(-157.411 13.629)" fill="#263238"/>
    <path id="Path_5578" data-name="Path 5578" d="M206.981,157.776l-11.071-.307.04-4.158,11.071.294Z" transform="translate(-161.361 10.063)" fill="#fff"/>
    <path id="Path_5579" data-name="Path 5579" d="M240.078,42c.428-.08.882.361,1.016,1s-.08,1.257-.508,1.337-.882-.361-1.016-1.016S239.65,42.136,240.078,42Z" transform="translate(-146.66 -27.455)" fill="#263238"/>
    <path id="Path_5580" data-name="Path 5580" d="M240.084,42.716a2.166,2.166,0,0,0,1-1.1,1.979,1.979,0,0,1-1.337.521A.816.816,0,0,1,240.084,42.716Z" transform="translate(-146.586 -27.58)" fill="#263238"/>
    <path id="Path_5581" data-name="Path 5581" d="M240.97,48.88a3.8,3.8,0,0,0,2.955-1.243,24.28,24.28,0,0,1-4.265-4.867Z" transform="translate(-146.616 -27.193)" fill="#b74d3c"/>
    <path id="Path_5582" data-name="Path 5582" d="M237.425,41.742a3.088,3.088,0,0,1,2.567-1.15h.134a.4.4,0,1,0,0-.789,3.851,3.851,0,0,0-3.262,1.337.428.428,0,0,0-.094.254.4.4,0,0,0,.4.388.321.321,0,0,0,.254-.04Z" transform="translate(-147.59 -28.197)" fill="#263238"/>
    <path id="Path_5583" data-name="Path 5583" d="M237.456,75.293c-11.124.12-12.836-5.936-12.836-5.936,3.316-3.236,3.476-9.172,2.768-14.467a12.487,12.487,0,0,0,3.3,3.169c2.674,1.752,8.437-1.07,8.437-1.07s0,.989.08,2.407c.174,3.476.936,9.56,4.091,10.5C243.3,69.892,249.716,75.159,237.456,75.293Z" transform="translate(-151.685 -23.108)" fill="#cb7a63"/>
    <path id="Path_5584" data-name="Path 5584" d="M238.755,58.882c-.107.508-.227,1.016-.307,1.564a.254.254,0,0,1-.134,0,10.1,10.1,0,0,1-8.142-1.457,12.114,12.114,0,0,1-3.316-3.155c-.174-1.337-.414-2.674-.655-3.864l12.113,6.685Z" transform="translate(-151.152 -24.092)" fill="#cb7a63"/>
    <path id="Path_5585" data-name="Path 5585" d="M247.818,55.563a11.258,11.258,0,0,1-5.468,9.466h-.067a9.211,9.211,0,0,1-2.674,1.163.254.254,0,0,1-.134,0,10.1,10.1,0,0,1-8.143-1.457,12.114,12.114,0,0,1-3.316-3.155c-2.179-2.995-3.089-6.993-4.653-12.595A11.111,11.111,0,0,1,235.932,35.04C244.408,36.511,247.992,48.049,247.818,55.563Z" transform="translate(-152.247 -29.851)" fill="#cb7a63"/>
    <path id="Path_5586" data-name="Path 5586" d="M237.516,58.594a5.629,5.629,0,0,1-1.965.9c-.08-1.417-.067-2.407-.08-2.407l.16-2.474S236.941,58.594,237.516,58.594Z" transform="translate(-148.028 -23.202)" opacity="0.2"/>
    <path id="Path_5587" data-name="Path 5587" d="M246.686,41.656c-.909,1.444-3.757,2.674-3.663,2.326.495-1.2.4-3.49-1.083-2.955.415.923,1.645,7.782,1.083,8.61-.308.455-.588,5.95-2.928,10.79-1.858,3.864-1.858,5.067-1.858,5.067l-7.594,1.471c-2.848-.361-5.5-4.011-5.722-4.4-1-1.7-4.011-4.011-5.616-5.134a4.572,4.572,0,0,1-1.5-2.072c-.521-1.457.548-6.685.775-9.185.334-3.543,2.193-6.832,7.354-8.945,3.182-1.337,5.856-4.172,9.119-5.348a10.7,10.7,0,0,1,9.854,1C246.258,33.941,248.959,38.046,246.686,41.656Z" transform="translate(-154.029 -31.119)" fill="#263238"/>
    <path id="Path_5588" data-name="Path 5588" d="M237.237,42.774c2.34.682,3.557,4.131,3.663,6.324.107,2.42-1.5,4.011-3.61,2.326a9.212,9.212,0,0,1-3.262-4.934C233.494,44.124,234.9,42.092,237.237,42.774Z" transform="translate(-148.552 -27.237)" fill="#cb7a63"/>
    <path id="Path_5589" data-name="Path 5589" d="M239,49.03A.973.973,0,1,1,237.97,48,1.03,1.03,0,0,1,239,49.03Z" transform="translate(-147.493 -25.43)" fill="#407bff"/>
    <path id="Path_5590" data-name="Path 5590" d="M239,49.03A.973.973,0,1,1,237.97,48,1.03,1.03,0,0,1,239,49.03Z" transform="translate(-147.493 -25.43)" fill="#fff" opacity="0.3"/>
    <g id="_Group_" data-name="&lt;Group&gt;" transform="translate(59.567 20.58)">
      <path id="Path_5591" data-name="Path 5591" d="M222.24,70.66s1.725-5.348,4.332-7.019,14.052,0,15.844.762,3.57,4.84,3.57,4.84Z" transform="translate(-212.054 -40.98)" fill="#ff8e0d"/>
      <path id="Path_5592" data-name="Path 5592" d="M222.24,70.66s1.725-5.348,4.332-7.019,14.052,0,15.844.762,3.57,4.84,3.57,4.84Z" transform="translate(-212.054 -40.98)" fill="#ff8e0d" opacity="0.3"/>
      <path id="Path_5593" data-name="Path 5593" d="M250.933,67.227a36.51,36.51,0,0,0-4.305-.722,159.776,159.776,0,0,0-18.424.187,42.251,42.251,0,0,0-6.538,1.11,9.212,9.212,0,0,0-7.019,9.627c.909,12.515,4.6,19.855,5.148,28.078A132.887,132.887,0,0,1,217.8,137.3l8.423,1.337a85.316,85.316,0,0,0,33.292-7.113h0s-2.179-19.855-.08-26.995c5.736-19.547,2.006-22.636.882-28.225A11.432,11.432,0,0,0,250.933,67.227Z" transform="translate(-214.621 -39.834)" fill="#ff8e0d"/>
      <path id="Path_5594" data-name="Path 5594" d="M259.45,104.464a39.8,39.8,0,0,0-.909,9.894c0,8.022.989,17.114.989,17.114a85.315,85.315,0,0,1-33.292,7.113l-8.423-1.337a134.119,134.119,0,0,0,1.992-31.755c-.562-8.236-4.252-15.59-5.161-28.078a9.2,9.2,0,0,1,7.019-9.613,39.271,39.271,0,0,1,6.538-1.1,159.806,159.806,0,0,1,18.424-.214,36.413,36.413,0,0,1,4.305.735,11.432,11.432,0,0,1,9.359,9.012c.4,2.006,1.15,3.69,1.658,5.936a29.415,29.415,0,0,1-.12,12.194A92.954,92.954,0,0,1,259.45,104.464Z" transform="translate(-214.621 -39.835)" fill="#ff8e0d" opacity="0.1"/>
      <path id="Path_5595" data-name="Path 5595" d="M245.591,73.3c3.075.441,6.124,1.056,9.172,1.564s6.1,1.19,9.132,1.845l-1.1-.08c1.337,0,2.554.16,3.3.214h.521c-.094,0-.2.094-.4.227a3.451,3.451,0,0,0-.909.709,3.209,3.209,0,0,0-.963,1.925c0,.294.094.227.107,0a9.043,9.043,0,0,0-.254-2.353l.134.4q-2.313-6.685-4.345-13.464a140.779,140.779,0,0,1-3.436-13.812,3.329,3.329,0,0,1,6.1-2.393c2.54,4.011,4.733,8.263,6.859,12.475s4.011,8.517,5.95,12.836l.094.508a22.482,22.482,0,0,1,1.337,4.733,11.888,11.888,0,0,1,0,3.61,9.266,9.266,0,0,1-2.527,5.027,9.811,9.811,0,0,1-2.407,1.738,12.034,12.034,0,0,1-2.112.816,18.623,18.623,0,0,1-3.075.548c-1.671.147-2.9.16-4.011.227h-.174l-.923-.094c-3.089-.321-6.177-.7-9.252-1.083s-6.15-.829-9.212-1.337a7.487,7.487,0,0,1,2.353-14.707Z" transform="translate(-206.86 -46.512)" fill="#ff8e0d"/>
      <g id="Group_2907" data-name="Group 2907" transform="translate(30.792)" opacity="0.1">
        <path id="Path_5596" data-name="Path 5596" d="M245.591,73.3c3.075.441,6.124,1.056,9.172,1.564s6.1,1.19,9.132,1.845l-1.1-.08c1.337,0,2.554.16,3.3.214h.521c-.094,0-.2.094-.4.227a3.451,3.451,0,0,0-.909.709,3.209,3.209,0,0,0-.963,1.925c0,.294.094.227.107,0a9.043,9.043,0,0,0-.254-2.353l.134.4q-2.313-6.685-4.345-13.464a140.779,140.779,0,0,1-3.436-13.812,3.329,3.329,0,0,1,6.1-2.393c2.54,4.011,4.733,8.263,6.859,12.475s4.011,8.517,5.95,12.836l.094.508a22.482,22.482,0,0,1,1.337,4.733,11.888,11.888,0,0,1,0,3.61,9.266,9.266,0,0,1-2.527,5.027,9.811,9.811,0,0,1-2.407,1.738,12.034,12.034,0,0,1-2.112.816,18.623,18.623,0,0,1-3.075.548c-1.671.147-2.9.16-4.011.227h-.174l-.923-.094c-3.089-.321-6.177-.7-9.252-1.083s-6.15-.829-9.212-1.337a7.487,7.487,0,0,1,2.353-14.707Z" transform="translate(-237.651 -46.512)" fill="#ffac4e"/>
      </g>
    </g>
    <path id="Path_5597" data-name="Path 5597" d="M285.075,48.495l40.084-1.217-.615-12.568-40,2.647Z" transform="translate(-131.49 -29.909)" fill="#407bff"/>
    <path id="Path_5598" data-name="Path 5598" d="M262.388,48.251,294.811,47.2l-.495-10.3L261.96,39Z" transform="translate(-139.1 -29.171)" fill="#407bff"/>
    <path id="Path_5599" data-name="Path 5599" d="M283.445,47.516l2.126.227-.521-11-2.1.428Z" transform="translate(-132.026 -29.225)" fill="#263238"/>
    <path id="Path_5600" data-name="Path 5600" d="M283.445,47.516l2.126.227-.521-11-2.1.428Z" transform="translate(-132.026 -29.225)" opacity="0.2"/>
    <path id="Path_5601" data-name="Path 5601" d="M285.055,47.878l2.166-.067-.535-11.231-2.166.147Z" transform="translate(-131.497 -29.279)" fill="#263238"/>
    <path id="Path_5602" data-name="Path 5602" d="M258.587,46.147l3.209,1.484-.415-9.012-3.062,1.792Z" transform="translate(-140.327 -28.591)" fill="#263238"/>
    <path id="Path_5603" data-name="Path 5603" d="M246.251,45.35l9.533-.495-.2-4.225-9.533.575Z" transform="translate(-144.462 -27.914)" fill="#263238"/>
    <path id="Path_5604" data-name="Path 5604" d="M246.251,45.35l9.533-.495-.2-4.225-9.533.575Z" transform="translate(-144.462 -27.914)" opacity="0.2"/>
    <path id="Path_5605" data-name="Path 5605" d="M252.417,46.024l10.6-.4-.267-5.923-10.6.628Z" transform="translate(-142.406 -28.227)" fill="#263238"/>
    <path id="Path_5606" data-name="Path 5606" d="M258.587,46.147l3.209,1.484-.415-9.012-3.062,1.792Z" transform="translate(-140.327 -28.591)" opacity="0.2"/>
    <path id="Path_5607" data-name="Path 5607" d="M261.081,47.776l1.752-.053L262.4,38.47l-1.765.107Z" transform="translate(-139.545 -28.642)" fill="#263238"/>
    <path id="Path_5608" data-name="Path 5608" d="M314.055,47.376l6.3-.227-.628-12.608-6.284.321Z" transform="translate(-121.75 -29.967)" fill="#263238"/>
    <path id="Path_5609" data-name="Path 5609" d="M316.185,48.652l8.022-.214.2-.562a18.224,18.224,0,0,0-.936-14.507h0l-8.022.562.174.414a20.443,20.443,0,0,1,.562,14.306Z" transform="translate(-121.072 -30.361)" fill="#407bff"/>
    <g id="Group_2908" data-name="Group 2908" transform="translate(156.433 6.004)" opacity="0.4">
      <path id="Path_5610" data-name="Path 5610" d="M309.609,35.811l3.236-.2.067,1.337-3.289.187a5.174,5.174,0,0,1-.013-1.324Z" transform="translate(-279.486 -35.61)" fill="#fff"/>
      <path id="Path_5611" data-name="Path 5611" d="M315.228,35.87a5.813,5.813,0,0,0,0,1.337L287.15,38.8l-.08-1.243Z" transform="translate(-287.07 -35.522)" fill="#fff"/>
    </g>
    <g id="Group_2909" data-name="Group 2909" transform="translate(123.542 8.879)" opacity="0.4">
      <path id="Path_5612" data-name="Path 5612" d="M262.47,39.431l.053,1.123L288.97,38.99l-.067-1.23Z" transform="translate(-262.47 -37.76)" fill="#fff"/>
    </g>
    <g id="Group_2910" data-name="Group 2910" transform="translate(195.086 3.557)" opacity="0.4">
      <path id="Path_5613" data-name="Path 5613" d="M315.98,34.221l.08,1.4,6.271-.414-.067-1.431Z" transform="translate(-315.98 -33.78)" fill="#fff"/>
    </g>
    <path id="Path_5614" data-name="Path 5614" d="M323.035,43.25a6.389,6.389,0,0,0,0,1.431l-6.485.227-.08-1.4Z" transform="translate(-120.728 -27.031)" opacity="0.3"/>
    <path id="Path_5615" data-name="Path 5615" d="M321.365,42.67a5.344,5.344,0,0,0,0,1.337l-34.348,1.27-.067-1.243Z" transform="translate(-130.678 -27.226)" opacity="0.3"/>
    <path id="Path_5616" data-name="Path 5616" d="M288.5,43.57a6.3,6.3,0,0,0,0,1.23l-25.577.9V44.573Z" transform="translate(-138.777 -26.923)" opacity="0.3"/>
    <path id="Path_5617" data-name="Path 5617" d="M244.6,41.547l.08,4.011a1.337,1.337,0,0,0,1.337,1.217h3.276l-.134-6.685-3.276.12A1.337,1.337,0,0,0,244.6,41.547Z" transform="translate(-144.951 -28.096)" fill="#407bff"/>
    <path id="Path_5618" data-name="Path 5618" d="M259.585,53.049l1.243-7.527a4.475,4.475,0,0,0,0-.949l-.361-4.011a1.337,1.337,0,0,0-.976-1.19l-6.017-.08a1.564,1.564,0,0,0-1.925.842l-1.083,4.934a2.393,2.393,0,0,0,0,1.11l1.792,6.792A1.725,1.725,0,0,0,253.6,54.1h3.931A1.671,1.671,0,0,0,259.585,53.049Z" transform="translate(-142.996 -28.393)" fill="#ce7a63"/>
    <path id="Path_5619" data-name="Path 5619" d="M262.916,53.282l-10.228,3.6-1.7-6.284,8.784-2.674Z" transform="translate(-142.797 -25.457)" fill="#407bff"/>
    <path id="Path_5620" data-name="Path 5620" d="M262.916,53.282l-10.228,3.6-1.7-6.284,8.784-2.674Z" transform="translate(-142.797 -25.457)" fill="#fff" opacity="0.3"/>
    <path id="Path_5621" data-name="Path 5621" d="M251.975,91.017,244.14,76.31l8.022,2.58a29.415,29.415,0,0,1-.187,12.127Z" transform="translate(-145.106 -15.889)" opacity="0.2"/>
    <path id="Path_5622" data-name="Path 5622" d="M280.581,179.228,278.95,199.31l9.145.174,2.514-20.684Z" transform="translate(-133.374 18.654)" fill="#ce7a63"/>
    <path id="Path_5623" data-name="Path 5623" d="M290.163,192.222l-10.416.214a.869.869,0,0,0-.816.722L277.14,202.3a1.484,1.484,0,0,0,1.056,1.778h.294c3.757-.147,7.1-.441,11.779-.521,5.522-.107,4.131.628,10.629.588,3.9,0,4.573-4.813,2.915-5.014-7.608-.869-8.41-3.316-11.378-6.164A3.169,3.169,0,0,0,290.163,192.222Z" transform="translate(-133.998 23.175)" fill="#263238"/>
    <path id="Path_5624" data-name="Path 5624" d="M206.444,243.49l-3.7,18.451,9.827,2.995,4.746-18.839Z" transform="translate(-159.059 40.456)" fill="#ce7a63"/>
    <path id="Path_5625" data-name="Path 5625" d="M258.635,115.65S244.65,197.3,237.042,221.276c-5.348,17.1-19.922,73.082-19.922,73.082l-13.09-2.875s-1.471-38.092,5.843-57.76c2.5-6.685,5.763-12.769,6.685-16.927,3.77-17.769-4.011-50.005-.562-74.058a97.952,97.952,0,0,1,5.829-22.329Z" transform="translate(-158.665 -2.63)" fill="#263238"/>
    <path id="Path_5626" data-name="Path 5626" d="M237.042,220.129c-5.348,17.1-19.922,73.082-19.922,73.082l-13.09-2.928s-1.471-38.092,5.843-57.76c2.5-6.685,5.763-12.769,6.685-16.927,3.77-17.769-4.011-50.005-.562-74.058a97.952,97.952,0,0,1,5.829-22.328" transform="translate(-158.665 -1.43)" fill="#263238"/>
    <path id="Path_5627" data-name="Path 5627" d="M232.01,134.53l7.046,27.65,5.148-26.447Z" transform="translate(-149.194 3.733)" opacity="0.2"/>
    <path id="Path_5628" data-name="Path 5628" d="M310.475,210.344l-12.862.414s.949-16.833.949-41.381a45.589,45.589,0,0,1,1.417-10.857,62.55,62.55,0,0,1,4.8-13.09l-3.73.187c-7.273.374-52.358,2.674-53.241,2.674-.669,0-4.773.481-12.114-3.1-13.651-6.685-13.785-25.337-13.785-25.337l35.151-4.773s.575.107,9.038.254c25.658.441,57.185,1.431,62.72,10.242C336.6,137.93,310.475,210.344,310.475,210.344Z" transform="translate(-152.598 -2.822)" fill="#263238"/>
    <path id="Path_5629" data-name="Path 5629" d="M213.72,256l-10.776.147a.816.816,0,0,0-.8.722L200.8,266.1a1.6,1.6,0,0,0,1.2,1.792h.308c3.891-.12,7.327-.4,12.167-.455,5.723-.08,4.319.655,11.031.668,4.011,0,4.479-4.827,2.754-5.041-7.929-.923-8.9-3.4-12.127-6.311A3.624,3.624,0,0,0,213.72,256Z" transform="translate(-159.717 44.671)" fill="#263238"/>
    <path id="Path_5630" data-name="Path 5630" d="M280.3,151.021a62.554,62.554,0,0,1,4.8-13.09l-3.73.187a.949.949,0,0,0-.348,0l9.359-.789Z" transform="translate(-132.919 4.677)" opacity="0.2"/>
  </g>
  <g id="Sun" transform="translate(90.818 42.457)">
    <circle id="Ellipse_26" data-name="Ellipse 26" cx="16.405" cy="16.405" r="16.405" transform="translate(21.854 22.081)" fill="#407bff"/>
    <path id="Path_5648" data-name="Path 5648" d="M16.405,0A16.405,16.405,0,1,1,0,16.405,16.405,16.405,0,0,1,16.405,0Z" transform="translate(21.854 22.081)" fill="#fff70d"/>
    <path id="Path_5631" data-name="Path 5631" d="M97.175,47.592a2.447,2.447,0,0,1-2.433-2.447V34.382a2.447,2.447,0,1,1,4.88,0V45.145a2.447,2.447,0,0,1-2.447,2.447Z" transform="translate(-58.889 -31.755)" fill="#407bff"/>
    <path id="Path_5632" data-name="Path 5632" d="M97.175,92.975a2.447,2.447,0,0,1-2.433-2.447v-10.7a2.447,2.447,0,1,1,4.88,0v10.7a2.447,2.447,0,0,1-2.447,2.447Z" transform="translate(-58.889 -16.437)" fill="#407bff"/>
    <path id="Path_5633" data-name="Path 5633" d="M85.148,51.474a2.42,2.42,0,0,1-1.725-.722L78.77,46.1a2.439,2.439,0,1,1,3.45-3.45l4.653,4.72a2.447,2.447,0,0,1,0,3.45,2.42,2.42,0,0,1-1.725.655Z" transform="translate(-64.51 -28.324)" fill="#407bff"/>
    <path id="Path_5634" data-name="Path 5634" d="M114.707,81.044a2.447,2.447,0,0,1-1.725-.722L108.65,75.99a2.439,2.439,0,0,1,3.45-3.45l4.332,4.345a2.447,2.447,0,0,1-1.725,4.158Z" transform="translate(-54.44 -18.25)" fill="#407bff"/>
    <path id="Path_5635" data-name="Path 5635" d="M81.249,63.5h-10.7a2.447,2.447,0,1,1,0-4.88h10.7a2.447,2.447,0,1,1,0,4.88Z" transform="translate(-67.925 -22.702)" fill="#407bff"/>
    <path id="Path_5636" data-name="Path 5636" d="M126.665,63.5H115.9a2.447,2.447,0,1,1,0-4.88h10.763a2.447,2.447,0,1,1,0,4.88Z" transform="translate(-52.64 -22.702)" fill="#407bff"/>
    <path id="Path_5637" data-name="Path 5637" d="M80.9,80.806a2.407,2.407,0,0,1-1.725-.722,2.447,2.447,0,0,1,0-3.45l4.1-4.1a2.439,2.439,0,1,1,3.45,3.45l-4.1,4.1A2.406,2.406,0,0,1,80.9,80.806Z" transform="translate(-64.371 -18.253)" fill="#407bff"/>
    <path id="Path_5638" data-name="Path 5638" d="M110.384,51.41a2.393,2.393,0,0,1-1.725-.722,2.447,2.447,0,0,1,0-3.45l4.4-4.4a2.439,2.439,0,1,1,3.45,3.45l-4.4,4.4a2.447,2.447,0,0,1-1.725.722Z" transform="translate(-54.436 -28.259)" fill="#407bff"/>
    <g id="Group_2911" data-name="Group 2911" opacity="0.6">
      <path id="Path_5639" data-name="Path 5639" d="M97.175,47.592a2.447,2.447,0,0,1-2.433-2.447V34.382a2.447,2.447,0,1,1,4.88,0V45.145a2.447,2.447,0,0,1-2.447,2.447Z" transform="translate(-58.889 -31.755)" fill="#fff"/>
      <path id="Path_5640" data-name="Path 5640" d="M97.175,92.975a2.447,2.447,0,0,1-2.433-2.447v-10.7a2.447,2.447,0,1,1,4.88,0v10.7a2.447,2.447,0,0,1-2.447,2.447Z" transform="translate(-58.889 -16.437)" fill="#fff"/>
      <path id="Path_5641" data-name="Path 5641" d="M85.148,51.474a2.42,2.42,0,0,1-1.725-.722L78.77,46.1a2.439,2.439,0,1,1,3.45-3.45l4.653,4.72a2.447,2.447,0,0,1,0,3.45,2.42,2.42,0,0,1-1.725.655Z" transform="translate(-64.51 -28.324)" fill="#fff"/>
      <path id="Path_5642" data-name="Path 5642" d="M114.707,81.044a2.447,2.447,0,0,1-1.725-.722L108.65,75.99a2.439,2.439,0,0,1,3.45-3.45l4.332,4.345a2.447,2.447,0,0,1-1.725,4.158Z" transform="translate(-54.44 -18.25)" fill="#fff"/>
      <path id="Path_5643" data-name="Path 5643" d="M81.249,63.5h-10.7a2.447,2.447,0,1,1,0-4.88h10.7a2.447,2.447,0,1,1,0,4.88Z" transform="translate(-67.925 -22.702)" fill="#fff"/>
      <path id="Path_5644" data-name="Path 5644" d="M126.665,63.5H115.9a2.447,2.447,0,1,1,0-4.88h10.763a2.447,2.447,0,1,1,0,4.88Z" transform="translate(-52.64 -22.702)" fill="#fff"/>
      <path id="Path_5645" data-name="Path 5645" d="M80.9,80.806a2.407,2.407,0,0,1-1.725-.722,2.447,2.447,0,0,1,0-3.45l4.1-4.1a2.439,2.439,0,1,1,3.45,3.45l-4.1,4.1A2.406,2.406,0,0,1,80.9,80.806Z" transform="translate(-64.371 -18.253)" fill="#fff"/>
      <path id="Path_5646" data-name="Path 5646" d="M110.384,51.41a2.393,2.393,0,0,1-1.725-.722,2.447,2.447,0,0,1,0-3.45l4.4-4.4a2.439,2.439,0,1,1,3.45,3.45l-4.4,4.4a2.447,2.447,0,0,1-1.725.722Z" transform="translate(-54.436 -28.259)" fill="#fff"/>
    </g>
  </g>
</svg>
