<?xml version="1.0" encoding="utf-8"?>
<!-- Generator: Adobe Illustrator 27.5.0, SVG Export Plug-In . SVG Version: 6.00 Build 0)  -->
<svg version="1.1" xmlns="http://www.w3.org/2000/svg" xmlns:xlink="http://www.w3.org/1999/xlink" x="0px" y="0px"
	 viewBox="0 0 500 500" style="enable-background:new 0 0 500 500;" xml:space="preserve">
<g id="Background_Simple">
	<g>
		<path style="fill:#C6FF00;" d="M66.14,205.465c0,0-16.05,68.582,28.654,128.336s122.633,82.975,185.27,103.451
			c62.637,20.477,121.308-3.165,143.316-55.805c22.007-52.64-22.445-80.997-32.248-149.752c-9.802-68.755-1.978-88.555-47.7-140.904
			S203.885,39.69,140.449,93.438C77.014,147.185,66.14,205.465,66.14,205.465z"/>
		<path style="opacity:0.7;fill:#FFFFFF;" d="M66.14,205.465c0,0-16.05,68.582,28.654,128.336s122.633,82.975,185.27,103.451
			c62.637,20.477,121.308-3.165,143.316-55.805c22.007-52.64-22.445-80.997-32.248-149.752c-9.802-68.755-1.978-88.555-47.7-140.904
			S203.885,39.69,140.449,93.438C77.014,147.185,66.14,205.465,66.14,205.465z"/>
	</g>
</g>
<g id="Floor">
	<ellipse style="fill:#263238;" cx="239.5" cy="428.5" rx="180.5" ry="18.5"/>
</g>
<g id="Plants">
	<g>
		<g>
			<g>
				<path style="fill:#C6FF00;" d="M384.008,257.867c-0.053,0.006,0.656-3.513,0.727-3.73c0.814-2.51,3.862-6.882,6.817-6.877
					c2.129,0.004,3.571,1.941,3.361,3.973c-0.214,2.075-2.078,3.844-3.764,4.865C389.169,257.297,384.012,257.867,384.008,257.867z"
					/>
				<path style="fill:#C6FF00;" d="M378.287,234.197c2.781,0.998,4.164,6.145,4.078,8.782c-0.008,0.228-0.534,3.779-0.583,3.755
					c0,0-0.045-0.023-0.056-0.028c0.225,0.811,0.456,1.683,0.69,2.64c0.418,1.772,0.873,3.778,1.222,5.995
					c0.354,2.214,0.676,4.63,0.786,7.205c0.114,2.581,0.102,5.302-0.274,8.104c-0.004,0.032-0.013,0.064-0.017,0.096
					c0.364-0.785,1.456-2.947,1.559-3.104c1.448-2.206,5.542-5.618,8.391-4.833c2.052,0.566,2.931,2.816,2.193,4.72
					c-0.755,1.945-3.019,3.159-4.915,3.698c-2.138,0.608-6.904-0.11-7.283-0.169c-0.382,2.665-0.99,5.369-1.756,8.071
					c-0.436,1.546-0.924,3.089-1.432,4.629c0.337-0.669,0.643-1.264,0.695-1.343c1.448-2.206,5.542-5.618,8.391-4.833
					c2.053,0.566,2.931,2.815,2.193,4.72c-0.754,1.945-3.019,3.159-4.915,3.699c-1.923,0.547-5.999,0.016-7.076-0.139
					c-0.202,0.589-0.396,1.18-0.599,1.768c-0.976,2.823-1.962,5.636-2.845,8.424c-0.312,0.982-0.582,1.962-0.857,2.94
					c0.3-0.594,0.557-1.091,0.604-1.163c1.448-2.207,5.542-5.618,8.391-4.833c2.052,0.566,2.931,2.815,2.193,4.72
					c-0.754,1.944-3.02,3.159-4.915,3.698c-1.835,0.522-5.602,0.066-6.882-0.112c-0.251,1.011-0.504,2.022-0.701,3.013
					c-0.119,0.679-0.282,1.325-0.364,2.014c-0.096,0.681-0.19,1.354-0.284,2.021c-0.133,1.292-0.279,2.623-0.377,3.887
					c-0.075,0.878-0.13,1.716-0.189,2.56c0.299-0.982,0.924-2.891,0.994-3.045c0.729-1.595,2.533-3.887,4.522-5.148
					c0.106-0.236,0.233-0.462,0.382-0.675c1.172-1.673,3.531-2.193,5.142-0.802c2.237,1.931,1.678,7.231,0.649,9.661
					c-0.06,0.143-0.893,1.625-1.433,2.551c0.401-0.496,0.784-0.982,1.202-1.488c0.821-1.006,1.669-1.985,2.579-3.042
					c0.457-0.495,0.919-0.995,1.385-1.499c0.452-0.511,0.994-0.992,1.493-1.496c1.183-1.142,2.436-2.243,3.724-3.324
					c-0.879-0.721-3.963-3.326-4.849-5.096c-0.883-1.762-1.518-4.252-0.594-6.122c0.905-1.831,3.157-2.703,4.961-1.572
					c2.504,1.57,2.754,6.893,2.105,9.451c-0.041,0.16-0.712,1.943-1.1,2.915c0.779-0.643,1.553-1.29,2.363-1.915
					c2.336-1.806,4.757-3.561,7.164-5.323c0.738-0.539,1.466-1.085,2.197-1.629c-0.316-0.253-4.048-3.27-5.041-5.253
					c-0.883-1.762-1.518-4.252-0.594-6.122c0.905-1.831,3.157-2.703,4.961-1.572c2.504,1.57,2.754,6.893,2.106,9.451
					c-0.049,0.193-1.02,2.757-1.298,3.397c1.61-1.199,3.203-2.408,4.726-3.664c2.103-1.73,4.071-3.544,5.847-5.442
					c-0.147-0.118-4.057-3.249-5.074-5.279c-0.883-1.762-1.518-4.252-0.594-6.122c0.905-1.831,3.157-2.703,4.961-1.572
					c2.504,1.57,2.754,6.893,2.106,9.451c-0.043,0.168-0.78,2.124-1.153,3.045c0.079,0.049,0.064,0.04,0.143,0.089
					c1.879-2.057,3.44-4.285,4.798-6.444c0.789-1.248,1.474-2.486,2.112-3.705c-0.788-0.509-4.363-2.872-5.481-4.599
					c-1.071-1.654-1.975-4.06-1.262-6.02c0.698-1.92,2.841-3.034,4.758-2.107c2.661,1.285,3.494,6.549,3.131,9.163
					c-0.02,0.142-0.381,1.565-0.658,2.597c0.28-0.554,0.579-1.121,0.836-1.658c0.972-2.012,1.738-3.914,2.403-5.605
					c0.37-0.964,0.686-1.844,0.973-2.669c-0.513-0.903-2.534-4.565-2.727-6.575c-0.188-1.962,0.117-4.513,1.653-5.925
					c1.505-1.382,3.92-1.383,5.195,0.322c1.769,2.367,0.083,7.423-1.444,9.575c-0.132,0.186-2.53,2.857-2.558,2.81
					c0,0-0.025-0.044-0.031-0.054c-0.26,0.8-0.548,1.655-0.881,2.583c-0.629,1.708-1.356,3.633-2.288,5.674
					c-0.926,2.042-1.99,4.235-3.319,6.443c-1.329,2.216-2.84,4.478-4.699,6.608c-0.021,0.024-0.046,0.047-0.067,0.07
					c0.737-0.454,2.84-1.655,3.012-1.729c2.424-1.042,7.721-1.629,9.664,0.598c1.4,1.604,0.892,3.966-0.775,5.147
					c-1.702,1.206-4.261,0.969-6.14,0.373c-2.119-0.672-5.698-3.901-5.981-4.159c-1.789,2.012-3.788,3.932-5.917,5.763
					c-1.216,1.048-2.474,2.067-3.748,3.071c0.65-0.372,1.234-0.7,1.32-0.737c2.425-1.042,7.722-1.628,9.665,0.598
					c1.4,1.604,0.892,3.965-0.775,5.146c-1.702,1.207-4.261,0.969-6.14,0.374c-1.906-0.605-5.013-3.296-5.825-4.019
					c-0.493,0.38-0.98,0.766-1.475,1.144c-2.371,1.816-4.746,3.618-7.02,5.457c-0.802,0.648-1.568,1.315-2.337,1.98
					c0.578-0.33,1.067-0.603,1.146-0.637c2.425-1.042,7.722-1.629,9.664,0.598c1.4,1.604,0.892,3.966-0.775,5.146
					c-1.702,1.206-4.261,0.969-6.14,0.373c-1.819-0.577-4.709-3.035-5.678-3.89c-0.766,0.705-1.536,1.409-2.247,2.126
					c-0.474,0.501-0.966,0.95-1.415,1.479c-0.455,0.515-0.906,1.025-1.352,1.529c-0.824,1.004-1.68,2.034-2.459,3.034
					c-0.547,0.691-1.056,1.359-1.57,2.031c0.79-0.654,2.366-1.902,2.509-1.991c2.239-1.397,7.386-2.78,9.644-0.873
					c1.626,1.374,1.482,3.785,0.013,5.204c-1.5,1.45-4.065,1.603-6.012,1.299c-2.144-0.335-6.024-2.863-6.507-3.182
					c-0.847,1.115-1.66,2.207-2.411,3.25c-2.612,3.61-4.65,6.716-6.044,8.906c-0.05,0.078-0.094,0.148-0.141,0.223l-1.808-0.877
					c0.093-0.141,0.184-0.279,0.285-0.429c1.459-2.185,3.585-5.276,6.301-8.863c0.855-1.136,1.792-2.332,2.766-3.551
					c-0.251-0.274-1.667-1.843-2.806-3.474c-2.076,0.813-6.399,0.846-6.958,0.846c-0.091,1.397-0.167,2.757-0.218,4.041
					c-0.187,4.452-0.173,8.167-0.128,10.763c0.002,0.107,0.004,0.201,0.006,0.303l-1.988-0.965c0.02-2.579,0.098-6.068,0.361-10.192
					c0.087-1.419,0.208-2.934,0.348-4.488c-0.551-0.138-5.046-1.293-6.744-2.649c-1.54-1.23-3.16-3.225-3.104-5.311
					c0.055-2.042,1.735-3.777,3.846-3.506c2.931,0.376,5.389,5.105,5.871,7.699c0.029,0.153,0.152,1.848,0.212,2.919
					c0.06-0.635,0.112-1.252,0.182-1.904c0.13-1.291,0.298-2.577,0.473-3.96c0.108-0.665,0.217-1.337,0.328-2.015
					c0.095-0.675,0.281-1.376,0.42-2.071c0.356-1.605,0.794-3.215,1.272-4.827c-1.131-0.117-5.14-0.588-6.856-1.575
					c-1.708-0.983-3.612-2.709-3.873-4.779c-0.255-2.027,1.142-3.996,3.271-4.048c2.954-0.072,6.1,4.23,6.97,6.722
					c0.054,0.155,0.478,2.013,0.69,3.038c0.295-0.967,0.584-1.933,0.914-2.901c0.952-2.795,2.003-5.594,3.038-8.391
					c0.318-0.857,0.624-1.714,0.934-2.571c-0.403-0.037-5.18-0.494-7.102-1.6c-1.709-0.982-3.612-2.709-3.873-4.779
					c-0.255-2.027,1.142-3.996,3.271-4.048c2.954-0.072,6.1,4.23,6.97,6.721c0.065,0.188,0.671,2.862,0.791,3.549
					c0.682-1.888,1.343-3.776,1.92-5.663c0.8-2.603,1.44-5.202,1.875-7.765c-0.188-0.017-5.176-0.472-7.145-1.604
					c-1.708-0.983-3.612-2.709-3.873-4.779c-0.256-2.026,1.142-3.996,3.271-4.048c2.954-0.072,6.1,4.23,6.97,6.721
					c0.057,0.163,0.52,2.2,0.718,3.174c0.093-0.003,0.076-0.002,0.169-0.004c0.432-2.751,0.505-5.471,0.447-8.02
					c-0.03-1.477-0.142-2.886-0.282-4.255c-0.938,0.01-5.224,0.011-7.109-0.812c-1.806-0.789-3.887-2.296-4.374-4.324
					c-0.476-1.987,0.697-4.098,2.807-4.383c2.928-0.396,6.528,3.535,7.666,5.915c0.062,0.13,0.546,1.515,0.884,2.529
					c-0.073-0.617-0.136-1.255-0.217-1.844c-0.299-2.215-0.71-4.224-1.088-6.001c-0.223-1.008-0.445-1.916-0.661-2.763
					c-0.926-0.47-4.632-2.41-5.902-3.98c-1.239-1.533-2.392-3.829-1.889-5.854C374.269,234.811,376.283,233.478,378.287,234.197z"/>
				<path style="fill:#C6FF00;" d="M431.707,279.747c-2.312-0.092-6.928-2.462-6.931-2.464c-0.048-0.025,2.485-2.568,2.663-2.71
					c2.064-1.645,7.018-3.61,9.479-1.975c1.773,1.178,1.907,3.589,0.611,5.168C436.207,279.378,433.676,279.825,431.707,279.747z"/>
			</g>
			<g style="opacity:0.5;">
				<path style="fill:#FFFFFF;" d="M384.008,257.867c-0.053,0.006,0.656-3.513,0.727-3.73c0.814-2.51,3.862-6.882,6.817-6.877
					c2.129,0.004,3.571,1.941,3.361,3.973c-0.214,2.075-2.078,3.844-3.764,4.865C389.169,257.297,384.012,257.867,384.008,257.867z"
					/>
				<path style="fill:#FFFFFF;" d="M378.287,234.197c2.781,0.998,4.164,6.145,4.078,8.782c-0.008,0.228-0.534,3.779-0.583,3.755
					c0,0-0.045-0.023-0.056-0.028c0.225,0.811,0.456,1.683,0.69,2.64c0.418,1.772,0.873,3.778,1.222,5.995
					c0.354,2.214,0.676,4.63,0.786,7.205c0.114,2.581,0.102,5.302-0.274,8.104c-0.004,0.032-0.013,0.064-0.017,0.096
					c0.364-0.785,1.456-2.947,1.559-3.104c1.448-2.206,5.542-5.618,8.391-4.833c2.052,0.566,2.931,2.816,2.193,4.72
					c-0.755,1.945-3.019,3.159-4.915,3.698c-2.138,0.608-6.904-0.11-7.283-0.169c-0.382,2.665-0.99,5.369-1.756,8.071
					c-0.436,1.546-0.924,3.089-1.432,4.629c0.337-0.669,0.643-1.264,0.695-1.343c1.448-2.206,5.542-5.618,8.391-4.833
					c2.053,0.566,2.931,2.815,2.193,4.72c-0.754,1.945-3.019,3.159-4.915,3.699c-1.923,0.547-5.999,0.016-7.076-0.139
					c-0.202,0.589-0.396,1.18-0.599,1.768c-0.976,2.823-1.962,5.636-2.845,8.424c-0.312,0.982-0.582,1.962-0.857,2.94
					c0.3-0.594,0.557-1.091,0.604-1.163c1.448-2.207,5.542-5.618,8.391-4.833c2.052,0.566,2.931,2.815,2.193,4.72
					c-0.754,1.944-3.02,3.159-4.915,3.698c-1.835,0.522-5.602,0.066-6.882-0.112c-0.251,1.011-0.504,2.022-0.701,3.013
					c-0.119,0.679-0.282,1.325-0.364,2.014c-0.096,0.681-0.19,1.354-0.284,2.021c-0.133,1.292-0.279,2.623-0.377,3.887
					c-0.075,0.878-0.13,1.716-0.189,2.56c0.299-0.982,0.924-2.891,0.994-3.045c0.729-1.595,2.533-3.887,4.522-5.148
					c0.106-0.236,0.233-0.462,0.382-0.675c1.172-1.673,3.531-2.193,5.142-0.802c2.237,1.931,1.678,7.231,0.649,9.661
					c-0.06,0.143-0.893,1.625-1.433,2.551c0.401-0.496,0.784-0.982,1.202-1.488c0.821-1.006,1.669-1.985,2.579-3.042
					c0.457-0.495,0.919-0.995,1.385-1.499c0.452-0.511,0.994-0.992,1.493-1.496c1.183-1.142,2.436-2.243,3.724-3.324
					c-0.879-0.721-3.963-3.326-4.849-5.096c-0.883-1.762-1.518-4.252-0.594-6.122c0.905-1.831,3.157-2.703,4.961-1.572
					c2.504,1.57,2.754,6.893,2.105,9.451c-0.041,0.16-0.712,1.943-1.1,2.915c0.779-0.643,1.553-1.29,2.363-1.915
					c2.336-1.806,4.757-3.561,7.164-5.323c0.738-0.539,1.466-1.085,2.197-1.629c-0.316-0.253-4.048-3.27-5.041-5.253
					c-0.883-1.762-1.518-4.252-0.594-6.122c0.905-1.831,3.157-2.703,4.961-1.572c2.504,1.57,2.754,6.893,2.106,9.451
					c-0.049,0.193-1.02,2.757-1.298,3.397c1.61-1.199,3.203-2.408,4.726-3.664c2.103-1.73,4.071-3.544,5.847-5.442
					c-0.147-0.118-4.057-3.249-5.074-5.279c-0.883-1.762-1.518-4.252-0.594-6.122c0.905-1.831,3.157-2.703,4.961-1.572
					c2.504,1.57,2.754,6.893,2.106,9.451c-0.043,0.168-0.78,2.124-1.153,3.045c0.079,0.049,0.064,0.04,0.143,0.089
					c1.879-2.057,3.44-4.285,4.798-6.444c0.789-1.248,1.474-2.486,2.112-3.705c-0.788-0.509-4.363-2.872-5.481-4.599
					c-1.071-1.654-1.975-4.06-1.262-6.02c0.698-1.92,2.841-3.034,4.758-2.107c2.661,1.285,3.494,6.549,3.131,9.163
					c-0.02,0.142-0.381,1.565-0.658,2.597c0.28-0.554,0.579-1.121,0.836-1.658c0.972-2.012,1.738-3.914,2.403-5.605
					c0.37-0.964,0.686-1.844,0.973-2.669c-0.513-0.903-2.534-4.565-2.727-6.575c-0.188-1.962,0.117-4.513,1.653-5.925
					c1.505-1.382,3.92-1.383,5.195,0.322c1.769,2.367,0.083,7.423-1.444,9.575c-0.132,0.186-2.53,2.857-2.558,2.81
					c0,0-0.025-0.044-0.031-0.054c-0.26,0.8-0.548,1.655-0.881,2.583c-0.629,1.708-1.356,3.633-2.288,5.674
					c-0.926,2.042-1.99,4.235-3.319,6.443c-1.329,2.216-2.84,4.478-4.699,6.608c-0.021,0.024-0.046,0.047-0.067,0.07
					c0.737-0.454,2.84-1.655,3.012-1.729c2.424-1.042,7.721-1.629,9.664,0.598c1.4,1.604,0.892,3.966-0.775,5.147
					c-1.702,1.206-4.261,0.969-6.14,0.373c-2.119-0.672-5.698-3.901-5.981-4.159c-1.789,2.012-3.788,3.932-5.917,5.763
					c-1.216,1.048-2.474,2.067-3.748,3.071c0.65-0.372,1.234-0.7,1.32-0.737c2.425-1.042,7.722-1.628,9.665,0.598
					c1.4,1.604,0.892,3.965-0.775,5.146c-1.702,1.207-4.261,0.969-6.14,0.374c-1.906-0.605-5.013-3.296-5.825-4.019
					c-0.493,0.38-0.98,0.766-1.475,1.144c-2.371,1.816-4.746,3.618-7.02,5.457c-0.802,0.648-1.568,1.315-2.337,1.98
					c0.578-0.33,1.067-0.603,1.146-0.637c2.425-1.042,7.722-1.629,9.664,0.598c1.4,1.604,0.892,3.966-0.775,5.146
					c-1.702,1.206-4.261,0.969-6.14,0.373c-1.819-0.577-4.709-3.035-5.678-3.89c-0.766,0.705-1.536,1.409-2.247,2.126
					c-0.474,0.501-0.966,0.95-1.415,1.479c-0.455,0.515-0.906,1.025-1.352,1.529c-0.824,1.004-1.68,2.034-2.459,3.034
					c-0.547,0.691-1.056,1.359-1.57,2.031c0.79-0.654,2.366-1.902,2.509-1.991c2.239-1.397,7.386-2.78,9.644-0.873
					c1.626,1.374,1.482,3.785,0.013,5.204c-1.5,1.45-4.065,1.603-6.012,1.299c-2.144-0.335-6.024-2.863-6.507-3.182
					c-0.847,1.115-1.66,2.207-2.411,3.25c-2.612,3.61-4.65,6.716-6.044,8.906c-0.05,0.078-0.094,0.148-0.141,0.223l-1.808-0.877
					c0.093-0.141,0.184-0.279,0.285-0.429c1.459-2.185,3.585-5.276,6.301-8.863c0.855-1.136,1.792-2.332,2.766-3.551
					c-0.251-0.274-1.667-1.843-2.806-3.474c-2.076,0.813-6.399,0.846-6.958,0.846c-0.091,1.397-0.167,2.757-0.218,4.041
					c-0.187,4.452-0.173,8.167-0.128,10.763c0.002,0.107,0.004,0.201,0.006,0.303l-1.988-0.965c0.02-2.579,0.098-6.068,0.361-10.192
					c0.087-1.419,0.208-2.934,0.348-4.488c-0.551-0.138-5.046-1.293-6.744-2.649c-1.54-1.23-3.16-3.225-3.104-5.311
					c0.055-2.042,1.735-3.777,3.846-3.506c2.931,0.376,5.389,5.105,5.871,7.699c0.029,0.153,0.152,1.848,0.212,2.919
					c0.06-0.635,0.112-1.252,0.182-1.904c0.13-1.291,0.298-2.577,0.473-3.96c0.108-0.665,0.217-1.337,0.328-2.015
					c0.095-0.675,0.281-1.376,0.42-2.071c0.356-1.605,0.794-3.215,1.272-4.827c-1.131-0.117-5.14-0.588-6.856-1.575
					c-1.708-0.983-3.612-2.709-3.873-4.779c-0.255-2.027,1.142-3.996,3.271-4.048c2.954-0.072,6.1,4.23,6.97,6.722
					c0.054,0.155,0.478,2.013,0.69,3.038c0.295-0.967,0.584-1.933,0.914-2.901c0.952-2.795,2.003-5.594,3.038-8.391
					c0.318-0.857,0.624-1.714,0.934-2.571c-0.403-0.037-5.18-0.494-7.102-1.6c-1.709-0.982-3.612-2.709-3.873-4.779
					c-0.255-2.027,1.142-3.996,3.271-4.048c2.954-0.072,6.1,4.23,6.97,6.721c0.065,0.188,0.671,2.862,0.791,3.549
					c0.682-1.888,1.343-3.776,1.92-5.663c0.8-2.603,1.44-5.202,1.875-7.765c-0.188-0.017-5.176-0.472-7.145-1.604
					c-1.708-0.983-3.612-2.709-3.873-4.779c-0.256-2.026,1.142-3.996,3.271-4.048c2.954-0.072,6.1,4.23,6.97,6.721
					c0.057,0.163,0.52,2.2,0.718,3.174c0.093-0.003,0.076-0.002,0.169-0.004c0.432-2.751,0.505-5.471,0.447-8.02
					c-0.03-1.477-0.142-2.886-0.282-4.255c-0.938,0.01-5.224,0.011-7.109-0.812c-1.806-0.789-3.887-2.296-4.374-4.324
					c-0.476-1.987,0.697-4.098,2.807-4.383c2.928-0.396,6.528,3.535,7.666,5.915c0.062,0.13,0.546,1.515,0.884,2.529
					c-0.073-0.617-0.136-1.255-0.217-1.844c-0.299-2.215-0.71-4.224-1.088-6.001c-0.223-1.008-0.445-1.916-0.661-2.763
					c-0.926-0.47-4.632-2.41-5.902-3.98c-1.239-1.533-2.392-3.829-1.889-5.854C374.269,234.811,376.283,233.478,378.287,234.197z"/>
				<path style="fill:#FFFFFF;" d="M431.707,279.747c-2.312-0.092-6.928-2.462-6.931-2.464c-0.048-0.025,2.485-2.568,2.663-2.71
					c2.064-1.645,7.018-3.61,9.479-1.975c1.773,1.178,1.907,3.589,0.611,5.168C436.207,279.378,433.676,279.825,431.707,279.747z"/>
			</g>
		</g>
		<g>
			<g>
				<path style="fill:#C6FF00;" d="M404.743,337.57c0,0-14.009-33.778-21.855-32.31c-7.845,1.469,13.449,53.849,13.449,53.849
					s-24.656-46.506-41.467-46.506s6.164,51.401,27.458,68.535c0,0-33.622-36.226-53.236-28.393s39.226,44.548,39.226,44.548
					s-34.182-10.77-30.26-2.448c3.923,8.322,14.57,9.791,14.57,9.791l-38.666,1.958h134.489l-30.26-2.937
					c0,0,31.381-15.665,22.975-22.029c-8.406-6.364-26.898,7.343-26.898,7.343s31.941-35.247,25.777-48.464
					c-6.164-13.217-33.622,23.987-33.622,23.987s22.415-47.485,17.932-55.807C419.873,300.365,404.743,337.57,404.743,337.57z"/>
				<path style="opacity:0.4;fill:#FFFFFF;" d="M404.743,337.57c0,0-14.009-33.778-21.855-32.31
					c-7.845,1.469,13.449,53.849,13.449,53.849s-24.656-46.506-41.467-46.506s6.164,51.401,27.458,68.535
					c0,0-33.622-36.226-53.236-28.393s39.226,44.548,39.226,44.548s-34.182-10.77-30.26-2.448c3.923,8.322,14.57,9.791,14.57,9.791
					l-38.666,1.958h134.489l-30.26-2.937c0,0,31.381-15.665,22.975-22.029c-8.406-6.364-26.898,7.343-26.898,7.343
					s31.941-35.247,25.777-48.464c-6.164-13.217-33.622,23.987-33.622,23.987s22.415-47.485,17.932-55.807
					C419.873,300.365,404.743,337.57,404.743,337.57z"/>
			</g>
			<g>
				<path style="fill:none;stroke:#263238;stroke-linecap:round;stroke-linejoin:round;stroke-miterlimit:10;" d="M409.226,339.35
					c-12.328,36.424-12.328,62.202-12.328,62.202s14.569,0.56,29.7-10.647"/>
				<path style="fill:none;stroke:#263238;stroke-linecap:round;stroke-linejoin:round;stroke-miterlimit:10;" d="M403.062,358.963
					c0,0-2.802-13.449-10.087-31.941"/>
				<path style="fill:none;stroke:#263238;stroke-linecap:round;stroke-linejoin:round;stroke-miterlimit:10;" d="M366.638,337.669
					l31.381,46.511c0,0,21.294-17.932,28.579-28.019"/>
				<path style="fill:none;stroke:#263238;stroke-linecap:round;stroke-linejoin:round;stroke-miterlimit:10;" d="M397.458,395.388
					c0,0-33.062-15.69-46.511-24.656"/>
			</g>
		</g>
	</g>
</g>
<g id="Character">
	<g>
		<path id="XMLID_101_" style="fill:#FFFFFF;stroke:#263238;stroke-linecap:round;stroke-linejoin:round;stroke-miterlimit:10;" d="
			M385.122,233.828l-7.291,20.05l-4.921,0.729l3.463,13.488c0,0,5.286-6.562,6.926-8.931c1.641-2.37,17.681-28.07,17.681-28.07
			L385.122,233.828z"/>
		<g>
			
				<path id="XMLID_106_" style="fill:#FFFFFF;stroke:#263238;stroke-linecap:round;stroke-linejoin:round;stroke-miterlimit:10;" d="
				M327.889,409.721c0,0-12.212,10.936-13.306,14.764c-1.094,3.828,8.931,1.458,13.853-1.823c4.921-3.281,7.291-5.468,7.291-5.468
				l0.547,1.458c0,0,2.916-0.365,3.463-2.187c0.547-1.823-1.094-6.197-1.094-6.197L327.889,409.721z"/>
			
				<path id="XMLID_107_" style="fill:#FFFFFF;stroke:#263238;stroke-linecap:round;stroke-linejoin:round;stroke-miterlimit:10;" d="
				M361.062,406.622c0,0,12.423,13.306,13.517,17.134c1.094,3.828-8.931,1.458-13.853-1.823c-4.921-3.281-7.291-5.468-7.291-5.468
				l-0.547,1.458c0,0-2.916-0.365-3.463-2.187c-0.547-1.823,1.094-6.197,1.094-6.197L361.062,406.622z"/>
			<g>
				<g>
					<defs>
						<path id="XMLID_92_" d="M321.145,244.218c0,0-3.463,22.966-4.01,34.632s2.916,58.327,2.916,71.633
							s10.025,55.046,10.025,55.046l-2.734,2.187l-0.182,2.916c0,0,4.01,1.276,8.02,2.552c4.01,1.276,4.739,1.094,4.739,1.094
							s-0.911-8.567-0.911-27.705c0-19.139,3.099-54.135,3.281-69.628c0.182-15.493,5.833-30.257,5.833-30.257l2.37-2.005
							c0,0,9.478,49.578,9.478,53.406s-8.931,63.978-9.478,65.436c-0.547,1.458-1.276,2.187-1.276,4.192s0,5.651,0,5.651
							l13.488-5.286c0,0,0-3.281-0.547-4.557c-0.547-1.276-0.547-2.916-0.547-3.463s19.503-51.765,19.503-57.598
							c0-5.833-1.094-12.394-1.094-12.394l-2.187-52.13c0,0,2.552-5.468,1.458-10.207c-1.094-4.739-7.109-18.774-8.202-19.685
							C369.994,247.134,332.263,254.061,321.145,244.218z"/>
					</defs>
					<use xlink:href="#XMLID_92_"  style="overflow:visible;fill:#C6FF00;"/>
					<clipPath id="XMLID_00000052085665545584767410000006510242790513534853_">
						<use xlink:href="#XMLID_92_"  style="overflow:visible;"/>
					</clipPath>
					<g style="opacity:0.2;clip-path:url(#XMLID_00000052085665545584767410000006510242790513534853_);">
						<path d="M365.762,336.402c0-5.497,3.467-62.382,3.467-62.382l-18.738,10.661c1.309,6.873,9.478,49.892,9.478,53.406
							c0,3.828-8.931,63.978-9.478,65.436c-0.547,1.458-1.276,2.187-1.276,4.192s0,5.651,0,5.651l13.488-5.286
							c0,0,0-3.281-0.547-4.557c-0.547-1.276-0.547-2.916-0.547-3.463c0-0.44,12.618-33.663,17.555-49.681
							C363.8,353.729,365.762,341.781,365.762,336.402z"/>
						<path d="M342.333,354.667l-1.54-7.758c0.072-1.165,0.143-2.326,0.213-3.475c-0.213,0.409-0.442,0.812-0.661,1.22
							l-16.678-83.987l26.824-4.419c-10.509,0.248-29.346-12.03-29.346-12.03L317,273.333L318.333,330l1.749,21.865
							c0.053,1.258,0.171,2.701,0.343,4.284l0.575,7.185c0,0,0.113,0.943,0.735,2.078c2.855,17.276,8.341,40.117,8.341,40.117
							l-2.734,2.187l-0.182,2.916c0,0,4.01,1.276,8.02,2.552c4.01,1.276,4.739,1.094,4.739,1.094s-0.911-8.567-0.911-27.706
							c0-7.186,0.437-16.609,0.993-26.394C341.522,357.211,342.333,354.667,342.333,354.667z"/>
					</g>
					
						<use xlink:href="#XMLID_92_"  style="overflow:visible;fill:none;stroke:#263238;stroke-linecap:round;stroke-linejoin:round;stroke-miterlimit:10;"/>
				</g>
				
					<line id="XMLID_98_" style="fill:none;stroke:#263238;stroke-linecap:round;stroke-linejoin:round;stroke-miterlimit:10;" x1="350.491" y1="284.682" x2="368.353" y2="273.928"/>
				
					<line id="XMLID_99_" style="fill:none;stroke:#263238;stroke-linecap:round;stroke-linejoin:round;stroke-miterlimit:10;" x1="355.776" y1="283.406" x2="365.072" y2="279.761"/>
				
					<line id="XMLID_100_" style="fill:none;stroke:#263238;stroke-linecap:round;stroke-linejoin:round;stroke-miterlimit:10;" x1="347.939" y1="255.701" x2="348.121" y2="274.84"/>
				
					<polyline id="XMLID_97_" style="fill:none;stroke:#263238;stroke-linecap:round;stroke-linejoin:round;stroke-miterlimit:10;" points="
					350.491,256.248 351.402,272.105 349.397,274.293 				"/>
				
					<line id="XMLID_102_" style="fill:none;stroke:#263238;stroke-linecap:round;stroke-linejoin:round;stroke-miterlimit:10;" x1="362.885" y1="254.79" x2="364.343" y2="268.642"/>
				
					<line id="XMLID_103_" style="fill:none;stroke:#263238;stroke-linecap:round;stroke-linejoin:round;stroke-miterlimit:10;" x1="365.072" y1="253.331" x2="368.536" y2="260.622"/>
				
					<line id="XMLID_104_" style="fill:none;stroke:#263238;stroke-linecap:round;stroke-linejoin:round;stroke-miterlimit:10;" x1="332.992" y1="254.79" x2="326.613" y2="276.48"/>
				
					<line id="XMLID_105_" style="fill:none;stroke:#263238;stroke-linecap:round;stroke-linejoin:round;stroke-miterlimit:10;" x1="333.539" y1="256.066" x2="333.539" y2="272.105"/>
			</g>
		</g>
		<g id="XMLID_114_">
			<g>
				<defs>
					<path id="XMLID_111_" d="M266.828,141.052c0,0-7.655-9.478-7.655-11.301c0-1.823,57.598-25.7,58.509-25.7
						c0.911,0,16.405,10.754,16.587,11.665c0.182,0.911,1.094,5.833,1.094,6.562c0,0.729-2.734,2.187-2.734,2.187
						s-3.463,3.281-4.375,3.281c-0.911,0-0.911,0-0.911,0s-2.552,1.094-3.645,1.094s-2.005-1.094-2.005-1.094
						s-5.104,1.276-4.739,0.365c0.365-0.911,6.197-4.557,6.197-4.557s-6.744-4.192-8.02-6.926s-2.005-5.468-2.005-5.468
						l-35.543,25.883L266.828,141.052z"/>
				</defs>
				<use xlink:href="#XMLID_111_"  style="overflow:visible;fill:#FFFFFF;"/>
				<clipPath id="XMLID_00000066484337300983875360000012248971506964058797_">
					<use xlink:href="#XMLID_111_"  style="overflow:visible;"/>
				</clipPath>
				<path style="opacity:0.2;clip-path:url(#XMLID_00000066484337300983875360000012248971506964058797_);" d="M312.313,106.117
					c-14.466,5.838-53.14,22.14-53.14,23.634c0,1.823,7.655,11.301,7.655,11.301l10.754-4.01l35.491-25.845L312.313,106.117z"/>
				
					<use xlink:href="#XMLID_111_"  style="overflow:visible;fill:none;stroke:#263238;stroke-linecap:round;stroke-linejoin:round;stroke-miterlimit:10;"/>
			</g>
			<path id="XMLID_110_" style="fill:none;stroke:#263238;stroke-linecap:round;stroke-linejoin:round;stroke-miterlimit:10;" d="
				M321.692,127.746c0,0,3.846-0.807,4.221-1.63c0.374-0.823,1.122-3.218,0.524-4.714"/>
			<path id="XMLID_112_" style="fill:none;stroke:#263238;stroke-linecap:round;stroke-linejoin:round;stroke-miterlimit:10;" d="
				M327.342,127.746c0,0,2.013-1.106,2.237-2.827c0.224-1.721-0.524-5.912-0.524-5.912"/>
			<path id="XMLID_113_" style="fill:none;stroke:#263238;stroke-linecap:round;stroke-linejoin:round;stroke-miterlimit:10;" d="
				M332.628,124.465c0,0,0.768-1.641,0.244-3.662s-0.898-4.116-0.898-4.116"/>
		</g>
		<g>
			<g>
				<defs>
					<path id="XMLID_94_" d="M337.549,160.555c0,0-5.65-2.734-12.577-6.562c-6.926-3.828-10.389-3.099-13.124-3.099
						c-2.734,0-26.794-12.395-26.794-12.395l-10.754,10.936c0,0,42.834,31.351,43.563,33.72c0.729,2.37,2.37,52.13,1.64,55.958
						c-0.729,3.828-2.005,5.468-1.276,6.926c0.729,1.458,10.025,9.66,26.247,9.478c16.222-0.182,27.705-4.739,28.799-6.926
						c1.094-2.187,1.094-3.099,0.365-4.739c-0.729-1.64-1.458-3.645-1.458-3.645l5.833-39.371l5.833,29.893
						c0,0,2.916,1.64,9.114,0.547c6.197-1.094,8.931-2.734,8.931-2.734s-9.843-45.204-11.848-50.854
						c-2.005-5.65-3.281-5.104-9.66-7.473c-6.38-2.37-23.149-7.656-23.149-7.656L337.549,160.555z"/>
				</defs>
				<use xlink:href="#XMLID_94_"  style="overflow:visible;fill:#FFFFFF;"/>
				<clipPath id="XMLID_00000143601216649196127670000015842614721104864939_">
					<use xlink:href="#XMLID_94_"  style="overflow:visible;"/>
				</clipPath>
				<path style="opacity:0.2;clip-path:url(#XMLID_00000143601216649196127670000015842614721104864939_);" d="M362.198,252.589
					c-6.62,0-18.619-0.827-23.17-4.138c-4.551-3.31-10.758-27.308-10.758-27.308l11.999,16.55l-20.495-85.997
					c-3.663-1.162-5.982-0.802-7.926-0.802c-2.734,0-26.794-12.395-26.794-12.395l-10.754,10.936c0,0,42.834,31.351,43.563,33.72
					c0.729,2.369,2.37,52.13,1.64,55.958c-0.729,3.828-2.005,5.468-1.276,6.926c0.729,1.458,10.025,9.66,26.247,9.478
					c8.578-0.096,15.829-1.416,20.922-2.962C364.377,252.576,363.308,252.589,362.198,252.589z"/>
				<polygon style="opacity:0.2;clip-path:url(#XMLID_00000143601216649196127670000015842614721104864939_);" points="
					378.253,202.577 381.448,192.638 382.158,197.608 388.902,193.348 383.846,230.73 				"/>
				
					<use xlink:href="#XMLID_94_"  style="overflow:visible;fill:none;stroke:#263238;stroke-linecap:round;stroke-linejoin:round;stroke-miterlimit:10;"/>
			</g>
			<polyline style="fill:none;stroke:#263238;stroke-linecap:round;stroke-linejoin:round;stroke-miterlimit:10;" points="
				383.825,189.393 378.014,200.837 389.188,189.661 			"/>
			
				<line id="XMLID_95_" style="fill:none;stroke:#263238;stroke-linecap:round;stroke-linejoin:round;stroke-miterlimit:10;" x1="317.864" y1="183.157" x2="312.213" y2="160.919"/>
			
				<line id="XMLID_96_" style="fill:none;stroke:#263238;stroke-linecap:round;stroke-linejoin:round;stroke-miterlimit:10;" x1="317.864" y1="182.428" x2="306.198" y2="153.082"/>
			<path id="XMLID_116_" style="fill:none;stroke:#263238;stroke-linecap:round;stroke-linejoin:round;stroke-miterlimit:10;" d="
				M318.558,181.915c0,0,9.885,43.493,17.032,52.617"/>
			<path id="XMLID_117_" style="fill:none;stroke:#263238;stroke-linecap:round;stroke-linejoin:round;stroke-miterlimit:10;" d="
				M321.752,202.902c0,0,5.323,34.216,10.189,41.06"/>
		</g>
		<g>
			<g>
				
					<path id="XMLID_93_" style="fill:#263238;stroke:#263238;stroke-linecap:round;stroke-linejoin:round;stroke-miterlimit:10;" d="
					M335.727,171.309l6.926,17.134l-3.828,51.948l7.473,18.045l7.838-20.414l-8.202-50.125l12.577-16.04l-1.276-0.911
					c0,0-3.828,2.916-7.473,6.38c-3.645,3.463-6.926,3.828-8.749,1.276c-1.823-2.552-3.463-9.66-3.463-9.66L335.727,171.309z"/>
				
					<path id="XMLID_87_" style="fill:#FFFFFF;stroke:#263238;stroke-linecap:round;stroke-linejoin:round;stroke-miterlimit:10;" d="
					M344.476,152.17c0,0-6.197,0.729-8.02,4.01c-1.823,3.281-4.921,4.192-5.468,10.389c-0.547,6.197-1.276,9.478-0.547,9.478
					c0.729,0,8.567-5.468,8.567-5.468s2.734,7.838,3.828,8.385c1.094,0.547,2.916-0.547,4.557-1.823
					c1.64-1.276,5.468-5.833,7.291-4.921c1.823,0.911,5.65,10.389,7.109,8.02c1.458-2.37,6.015-13.853,2.37-22.237
					C360.516,149.618,344.476,152.17,344.476,152.17z"/>
			</g>
			<path id="XMLID_91_" style="fill:#FFFFFF;stroke:#263238;stroke-linecap:round;stroke-linejoin:round;stroke-miterlimit:10;" d="
				M340.83,150.894c0,0,1.094,17.863,1.276,23.149c0.182,5.286,1.64,6.562,2.916,5.468c1.276-1.094,12.395-11.301,13.488-17.316
				s1.641-9.478,1.641-9.478L340.83,150.894z"/>
		</g>
		<g>
			<path id="XMLID_80_" style="fill:#FFFFFF;stroke:#263238;stroke-linecap:round;stroke-linejoin:round;stroke-miterlimit:10;" d="
				M338.461,134.125c0,0-1.823-5.833-4.01-4.921c-2.187,0.911-2.916,7.473-1.458,10.39c1.458,2.916,5.468,3.099,6.015,1.823
				C339.554,140.14,338.461,134.125,338.461,134.125z"/>
			<g id="XMLID_84_">
				
					<path id="XMLID_85_" style="fill:#C6FF00;stroke:#263238;stroke-linecap:round;stroke-linejoin:round;stroke-miterlimit:10;" d="
					M369.447,131.209l9.296-7.655l3.463-0.729l-1.823,3.281l-10.207,7.655C370.176,133.761,368.9,133.579,369.447,131.209z"/>
				
					<polygon id="XMLID_89_" style="fill:#FFFFFF;stroke:#263238;stroke-linecap:round;stroke-linejoin:round;stroke-miterlimit:10;" points="
					378.743,123.554 378.362,123.867 380.214,126.233 380.383,126.105 382.206,122.825 				"/>
			</g>
			<path id="XMLID_82_" style="fill:#FFFFFF;stroke:#263238;stroke-linecap:round;stroke-linejoin:round;stroke-miterlimit:10;" d="
				M369.447,132.849c0,0,3.645-3.645,4.921-0.729c1.276,2.916,0.182,6.562-2.552,9.114c-2.734,2.552-4.375,2.005-4.375,0.182
				C367.442,139.594,369.447,132.849,369.447,132.849z"/>
			<g>
				<g>
					
						<path id="XMLID_79_" style="fill:#FFFFFF;stroke:#263238;stroke-linecap:round;stroke-linejoin:round;stroke-miterlimit:10;" d="
						M344.293,108.425c0,0-6.926,1.276-7.473,4.921c-0.547,3.646,1.276,31.351,2.187,35.725c0.911,4.374,8.749,13.124,14.946,12.759
						c6.197-0.365,10.754-7.656,12.395-11.848c1.641-4.192,6.562-28.799,6.562-34.449c0-5.65-10.207-12.212-18.045-12.212
						C347.027,103.321,344.293,108.425,344.293,108.425z"/>
					<g>
						<path id="XMLID_77_" style="fill:none;stroke:#263238;stroke-linecap:round;stroke-linejoin:round;stroke-miterlimit:10;" d="
							M354.12,134.763c0,0,2.916,6.926,1.823,8.385c-1.094,1.458-7.109,2.187-7.109-1.094"/>
						<path id="XMLID_81_" style="fill:none;stroke:#263238;stroke-linecap:round;stroke-linejoin:round;stroke-miterlimit:10;" d="
							M346.829,146.246c0,0,3.828,4.557,11.483,0.182"/>
						<path id="XMLID_86_" style="fill:none;stroke:#263238;stroke-linecap:round;stroke-linejoin:round;stroke-miterlimit:10;" d="
							M352.115,133.852c0-3.523-2.856-6.379-6.38-6.379c-3.523,0-6.379,2.856-6.379,6.379s2.856,6.38,6.379,6.38
							C349.259,140.231,352.115,137.375,352.115,133.852z"/>
						
							<path id="XMLID_88_" style="fill:#FFFFFF;stroke:#263238;stroke-linecap:round;stroke-linejoin:round;stroke-miterlimit:10;" d="
							M368.52,134.945c0-3.523-2.856-6.38-6.38-6.38c-3.523,0-6.38,2.856-6.38,6.38c0,3.523,2.856,6.38,6.38,6.38
							C365.664,141.325,368.52,138.469,368.52,134.945z"/>
						<path id="XMLID_90_" style="fill:none;stroke:#263238;stroke-linecap:round;stroke-linejoin:round;stroke-miterlimit:10;" d="
							M352.115,133.852c0,0,2.187-0.729,3.645,0.365"/>
					</g>
				</g>
				
					<path id="XMLID_83_" style="fill:#263238;stroke:#263238;stroke-linecap:round;stroke-linejoin:round;stroke-miterlimit:10;" d="
					M354.865,103.321c-7.838,0-10.572,5.104-10.572,5.104s-6.926,1.276-7.473,4.921c-0.281,1.874,0.064,10.104,0.59,18.256
					c0.204,0.135,1.233,0.757,1.233-0.393c0-1.276-0.729-3.099,0.182-4.192c0.911-1.094,3.645-1.64,5.468-4.557
					c1.823-2.916,1.276-4.739,1.823-5.286c0.547-0.547,6.38-4.375,5.104-1.64c-1.276,2.734-9.478,7.473-4.739,10.025
					c4.739,2.552,14.764,2.369,18.227-0.182c3.463-2.552,6.015-8.202,5.468-5.65c-0.547,2.552-2.187,6.744-1.64,8.02
					c0.547,1.276,0.911,5.104,0.911,5.104s-1.641,5.833-1.094,6.197c0.128,0.086,0.391,0.088,0.721,0.015
					c1.863-8.782,3.835-19.951,3.835-23.528C372.91,109.883,362.703,103.321,354.865,103.321z"/>
			</g>
		</g>
		<path id="XMLID_108_" style="fill:#FFFFFF;stroke:#263238;stroke-linecap:round;stroke-linejoin:round;stroke-miterlimit:10;" d="
			M380.748,227.813l0.365,6.197c0,0,1.276,1.823,9.843,1.458c8.567-0.365,13.306-3.281,13.306-3.281l-1.823-8.202
			C402.438,223.986,390.59,228.36,380.748,227.813z"/>
		<path id="XMLID_109_" style="fill:#FFFFFF;stroke:#263238;stroke-linecap:round;stroke-linejoin:round;stroke-miterlimit:10;" d="
			M283.779,133.396l-21.508,8.202c0,0,9.296,10.936,9.843,10.754c0.547-0.182,16.04-12.212,15.858-13.488
			C287.789,137.589,283.779,133.396,283.779,133.396z"/>
	</g>
</g>
<g id="Device">
	<g>
		<g>
			<defs>
				<path id="XMLID_1_" d="M280.325,94h-80.849h-12.174h-80.849c-5.679,0-10.758,2.44-14.302,6.299
					c-3.982,3.743-6.395,9.122-6.124,15.037l3.665,80.022v214.475c0,9.73,7.888,17.618,17.618,17.618h74.765h20.599h74.766
					c5.123,0,9.721-2.2,12.941-5.692c3.491-3.219,5.692-7.817,5.692-12.941V194.344l3.665-80.022
					C300.244,103.252,291.406,94,280.325,94z"/>
			</defs>
			<use xlink:href="#XMLID_1_"  style="overflow:visible;fill:#FFFFFF;"/>
			<clipPath id="XMLID_00000041255707578591833590000015266791165253500832_">
				<use xlink:href="#XMLID_1_"  style="overflow:visible;"/>
			</clipPath>
			<path style="opacity:0.2;clip-path:url(#XMLID_00000041255707578591833590000015266791165253500832_);" d="M289.92,96.534
				c2.572,3.462,4.031,7.791,3.817,12.454l-3.665,80.022v214.475c0,5.123-2.2,9.721-5.692,12.941
				c-3.219,3.491-7.817,5.692-12.941,5.692h-74.766h-20.599h-74.766c-3.029,0-5.878-0.766-8.368-2.112
				c3.192,4.5,8.431,7.445,14.368,7.445h74.766h20.599h74.766c5.123,0,9.721-2.2,12.941-5.692c3.491-3.219,5.692-7.817,5.692-12.941
				V194.344l3.665-80.022C300.084,106.745,296.051,100.024,289.92,96.534z"/>
			<use xlink:href="#XMLID_1_"  style="overflow:visible;fill:none;stroke:#263238;stroke-miterlimit:10;"/>
		</g>
		<path style="fill:#263238;stroke:#263238;stroke-miterlimit:10;" d="M286.625,191.895l3.365-74.655
			c0.306-6.783-5.111-12.45-11.901-12.45H108.69c-6.79,0-12.207,5.666-11.901,12.45l3.365,74.655H286.625z"/>
		<rect x="106.794" y="124.172" style="fill:#7D7D7D;" width="172.414" height="58.312"/>
		<rect x="115.304" y="132.683" style="fill:#BFBFBF;" width="155.393" height="41.291"/>
		<g>
			<path style="fill:#7D7D7D;stroke:#263238;stroke-miterlimit:10;" d="M189.134,241.111h-77.056c-2.745,0-4.97-2.225-4.97-4.97
				V220.55c0-2.745,2.225-4.97,4.97-4.97h77.056c2.745,0,4.97,2.225,4.97,4.97v15.592
				C194.104,238.886,191.879,241.111,189.134,241.111z"/>
			<line style="fill:none;stroke:#263238;stroke-miterlimit:10;" x1="125.391" y1="215.895" x2="125.391" y2="241.111"/>
			<line style="fill:none;stroke:#263238;stroke-miterlimit:10;" x1="142.935" y1="215.895" x2="142.935" y2="241.111"/>
			<line style="fill:none;stroke:#263238;stroke-miterlimit:10;" x1="160.48" y1="215.895" x2="160.48" y2="241.111"/>
			<line style="fill:none;stroke:#263238;stroke-miterlimit:10;" x1="178.024" y1="215.895" x2="178.024" y2="241.111"/>
		</g>
		<g>
			<path style="fill:#D9D9D9;stroke:#263238;stroke-miterlimit:10;" d="M242.543,249.655h-21.702c-2.554,0-4.625-2.071-4.625-4.625
				v-10.792c0-2.554,2.071-4.625,4.625-4.625h21.702c2.554,0,4.625,2.071,4.625,4.625v10.792
				C247.168,247.584,245.097,249.655,242.543,249.655z"/>
			<path style="fill:#D9D9D9;stroke:#263238;stroke-miterlimit:10;" d="M133.958,280.86h-21.702c-2.554,0-4.625-2.071-4.625-4.625
				v-14.344c0-2.554,2.071-4.625,4.625-4.625h21.702c2.554,0,4.625,2.071,4.625,4.625v14.344
				C138.583,278.79,136.512,280.86,133.958,280.86z"/>
			<path style="fill:#D9D9D9;stroke:#263238;stroke-miterlimit:10;" d="M170.237,280.86h-21.702c-2.554,0-4.625-2.071-4.625-4.625
				v-14.344c0-2.554,2.071-4.625,4.625-4.625h21.702c2.554,0,4.625,2.071,4.625,4.625v14.344
				C174.862,278.79,172.792,280.86,170.237,280.86z"/>
			<path style="fill:#D9D9D9;stroke:#263238;stroke-miterlimit:10;" d="M206.517,280.86h-21.702c-2.554,0-4.625-2.071-4.625-4.625
				v-14.344c0-2.554,2.071-4.625,4.625-4.625h21.702c2.554,0,4.625,2.071,4.625,4.625v14.344
				C211.142,278.79,209.071,280.86,206.517,280.86z"/>
			<path style="fill:#D9D9D9;stroke:#263238;stroke-miterlimit:10;" d="M242.796,280.86h-21.702c-2.554,0-4.625-2.071-4.625-4.625
				v-14.344c0-2.554,2.071-4.625,4.625-4.625h21.702c2.554,0,4.625,2.071,4.625,4.625v14.344
				C247.421,278.79,245.351,280.86,242.796,280.86z"/>
			<path style="fill:#D9D9D9;stroke:#263238;stroke-miterlimit:10;" d="M279.076,280.86h-21.702c-2.554,0-4.625-2.071-4.625-4.625
				v-14.344c0-2.554,2.071-4.625,4.625-4.625h21.702c2.554,0,4.625,2.071,4.625,4.625v14.344
				C283.701,278.79,281.63,280.86,279.076,280.86z"/>
			<path style="fill:#D9D9D9;stroke:#263238;stroke-miterlimit:10;" d="M133.958,312.573h-21.702c-2.554,0-4.625-2.071-4.625-4.625
				v-14.344c0-2.554,2.071-4.625,4.625-4.625h21.702c2.554,0,4.625,2.071,4.625,4.625v14.344
				C138.583,310.503,136.512,312.573,133.958,312.573z"/>
			<path style="fill:#999999;stroke:#263238;stroke-miterlimit:10;" d="M170.237,312.573h-21.702c-2.554,0-4.625-2.071-4.625-4.625
				v-14.344c0-2.554,2.071-4.625,4.625-4.625h21.702c2.554,0,4.625,2.071,4.625,4.625v14.344
				C174.862,310.503,172.792,312.573,170.237,312.573z"/>
			<path style="fill:#999999;stroke:#263238;stroke-miterlimit:10;" d="M206.517,312.573h-21.702c-2.554,0-4.625-2.071-4.625-4.625
				v-14.344c0-2.554,2.071-4.625,4.625-4.625h21.702c2.554,0,4.625,2.071,4.625,4.625v14.344
				C211.142,310.503,209.071,312.573,206.517,312.573z"/>
			<path style="fill:#999999;stroke:#263238;stroke-miterlimit:10;" d="M242.796,312.573h-21.702c-2.554,0-4.625-2.071-4.625-4.625
				v-14.344c0-2.554,2.071-4.625,4.625-4.625h21.702c2.554,0,4.625,2.071,4.625,4.625v14.344
				C247.421,310.503,245.351,312.573,242.796,312.573z"/>
			<path style="fill:#D9D9D9;stroke:#263238;stroke-miterlimit:10;" d="M279.076,312.573h-21.702c-2.554,0-4.625-2.071-4.625-4.625
				v-14.344c0-2.554,2.071-4.625,4.625-4.625h21.702c2.554,0,4.625,2.071,4.625,4.625v14.344
				C283.701,310.503,281.63,312.573,279.076,312.573z"/>
			<path style="fill:#D9D9D9;stroke:#263238;stroke-miterlimit:10;" d="M133.958,344.286h-21.702c-2.554,0-4.625-2.071-4.625-4.625
				v-14.344c0-2.554,2.071-4.625,4.625-4.625h21.702c2.554,0,4.625,2.071,4.625,4.625v14.344
				C138.583,342.215,136.512,344.286,133.958,344.286z"/>
			<path style="fill:#999999;stroke:#263238;stroke-miterlimit:10;" d="M170.237,344.286h-21.702c-2.554,0-4.625-2.071-4.625-4.625
				v-14.344c0-2.554,2.071-4.625,4.625-4.625h21.702c2.554,0,4.625,2.071,4.625,4.625v14.344
				C174.862,342.215,172.792,344.286,170.237,344.286z"/>
			<path style="fill:#999999;stroke:#263238;stroke-miterlimit:10;" d="M206.517,344.286h-21.702c-2.554,0-4.625-2.071-4.625-4.625
				v-14.344c0-2.554,2.071-4.625,4.625-4.625h21.702c2.554,0,4.625,2.071,4.625,4.625v14.344
				C211.142,342.215,209.071,344.286,206.517,344.286z"/>
			<path style="fill:#999999;stroke:#263238;stroke-miterlimit:10;" d="M242.796,344.286h-21.702c-2.554,0-4.625-2.071-4.625-4.625
				v-14.344c0-2.554,2.071-4.625,4.625-4.625h21.702c2.554,0,4.625,2.071,4.625,4.625v14.344
				C247.421,342.215,245.351,344.286,242.796,344.286z"/>
			<path style="fill:#D9D9D9;stroke:#263238;stroke-miterlimit:10;" d="M279.076,344.286h-21.702c-2.554,0-4.625-2.071-4.625-4.625
				v-14.344c0-2.554,2.071-4.625,4.625-4.625h21.702c2.554,0,4.625,2.071,4.625,4.625v14.344
				C283.701,342.215,281.63,344.286,279.076,344.286z"/>
			<path style="fill:#C6FF00;stroke:#263238;stroke-miterlimit:10;" d="M133.958,375.999h-21.702c-2.554,0-4.625-2.071-4.625-4.625
				V357.03c0-2.554,2.071-4.625,4.625-4.625h21.702c2.554,0,4.625,2.071,4.625,4.625v14.344
				C138.583,373.928,136.512,375.999,133.958,375.999z"/>
			<path style="fill:#999999;stroke:#263238;stroke-miterlimit:10;" d="M170.237,375.999h-21.702c-2.554,0-4.625-2.071-4.625-4.625
				V357.03c0-2.554,2.071-4.625,4.625-4.625h21.702c2.554,0,4.625,2.071,4.625,4.625v14.344
				C174.862,373.928,172.792,375.999,170.237,375.999z"/>
			<path style="fill:#999999;stroke:#263238;stroke-miterlimit:10;" d="M206.517,375.999h-21.702c-2.554,0-4.625-2.071-4.625-4.625
				V357.03c0-2.554,2.071-4.625,4.625-4.625h21.702c2.554,0,4.625,2.071,4.625,4.625v14.344
				C211.142,373.928,209.071,375.999,206.517,375.999z"/>
			<path style="fill:#999999;stroke:#263238;stroke-miterlimit:10;" d="M242.796,375.999h-21.702c-2.554,0-4.625-2.071-4.625-4.625
				V357.03c0-2.554,2.071-4.625,4.625-4.625h21.702c2.554,0,4.625,2.071,4.625,4.625v14.344
				C247.421,373.928,245.351,375.999,242.796,375.999z"/>
			<path style="fill:#C6FF00;stroke:#263238;stroke-miterlimit:10;" d="M133.958,407.712h-21.702c-2.554,0-4.625-2.071-4.625-4.625
				v-14.344c0-2.554,2.071-4.625,4.625-4.625h21.702c2.554,0,4.625,2.071,4.625,4.625v14.344
				C138.583,405.641,136.512,407.712,133.958,407.712z"/>
			<path style="fill:#999999;stroke:#263238;stroke-miterlimit:10;" d="M170.237,407.712h-21.702c-2.554,0-4.625-2.071-4.625-4.625
				v-14.344c0-2.554,2.071-4.625,4.625-4.625h21.702c2.554,0,4.625,2.071,4.625,4.625v14.344
				C174.862,405.641,172.792,407.712,170.237,407.712z"/>
			<path style="fill:#999999;stroke:#263238;stroke-miterlimit:10;" d="M206.517,407.712h-21.702c-2.554,0-4.625-2.071-4.625-4.625
				v-14.344c0-2.554,2.071-4.625,4.625-4.625h21.702c2.554,0,4.625,2.071,4.625,4.625v14.344
				C211.142,405.641,209.071,407.712,206.517,407.712z"/>
			<path style="fill:#D9D9D9;stroke:#263238;stroke-miterlimit:10;" d="M242.796,407.712h-21.702c-2.554,0-4.625-2.071-4.625-4.625
				v-14.344c0-2.554,2.071-4.625,4.625-4.625h21.702c2.554,0,4.625,2.071,4.625,4.625v14.344
				C247.421,405.641,245.351,407.712,242.796,407.712z"/>
			<path style="fill:#D9D9D9;stroke:#263238;stroke-miterlimit:10;" d="M279.007,352.405h-21.565c-2.592,0-4.693,2.101-4.693,4.694
				v6.596v7.611v31.713c0,2.592,2.101,4.694,4.693,4.694h21.565c2.592,0,4.694-2.101,4.694-4.694v-31.713v-7.611v-6.596
				C283.701,354.506,281.6,352.405,279.007,352.405z"/>
			<path style="fill:#C6FF00;stroke:#263238;stroke-miterlimit:10;" d="M279.076,249.655h-21.702c-2.554,0-4.625-2.071-4.625-4.625
				v-10.792c0-2.554,2.071-4.625,4.625-4.625h21.702c2.554,0,4.625,2.071,4.625,4.625v10.792
				C283.701,247.584,281.63,249.655,279.076,249.655z"/>
			<g>
				<g>
					<path style="fill:#FFFFFF;" d="M258.719,244.586c-0.947-1.041-1.421-2.445-1.421-4.213c0-1.769,0.474-3.173,1.421-4.214
						c0.946-1.041,2.244-1.562,3.892-1.562c1.648,0,2.944,0.521,3.889,1.562c0.944,1.041,1.416,2.445,1.416,4.214
						c0,1.768-0.472,3.173-1.416,4.213c-0.944,1.041-2.24,1.562-3.889,1.562C260.963,246.148,259.665,245.627,258.719,244.586z
						 M265.282,243.672c0.636-0.803,0.954-1.903,0.954-3.299c0-1.397-0.318-2.497-0.954-3.3c-0.636-0.803-1.526-1.205-2.672-1.205
						c-1.15,0-2.044,0.401-2.68,1.205c-0.636,0.803-0.953,1.903-0.953,3.3c0,1.396,0.319,2.496,0.957,3.299
						c0.639,0.803,1.53,1.205,2.676,1.205C263.756,244.876,264.646,244.475,265.282,243.672z"/>
					<path style="fill:#FFFFFF;" d="M270.469,245.79c-0.144-0.122-0.216-0.294-0.216-0.514v-9.503c0-0.314,0.085-0.561,0.255-0.742
						c0.17-0.18,0.384-0.27,0.64-0.27c0.184,0,0.373,0.052,0.569,0.157c0.196,0.105,0.364,0.259,0.506,0.463l5.713,8.318v-8.24
						c0-0.22,0.07-0.391,0.212-0.514c0.141-0.123,0.313-0.185,0.518-0.185c0.193,0,0.363,0.061,0.51,0.185
						c0.146,0.123,0.22,0.294,0.22,0.514v9.503c0,0.309-0.093,0.555-0.278,0.738c-0.185,0.183-0.415,0.274-0.686,0.274
						c-0.178,0-0.355-0.044-0.533-0.133c-0.179-0.089-0.325-0.217-0.439-0.385l-5.736-8.318v8.138c0,0.22-0.073,0.391-0.22,0.514
						c-0.147,0.123-0.319,0.185-0.519,0.185C270.784,245.975,270.612,245.914,270.469,245.79z"/>
				</g>
				<g>
					<path style="fill:#FFFFFF;" d="M117.262,275.504c-0.173-0.12-0.309-0.293-0.408-0.518l-3.656-8.208v8.545
						c0,0.178-0.072,0.316-0.216,0.416c-0.144,0.1-0.315,0.149-0.514,0.149c-0.194,0-0.364-0.05-0.511-0.149
						c-0.146-0.1-0.22-0.238-0.22-0.416v-9.291c0-0.303,0.119-0.557,0.357-0.761c0.238-0.204,0.517-0.306,0.836-0.306
						c0.261,0,0.509,0.077,0.741,0.232c0.232,0.154,0.42,0.388,0.562,0.702l3.563,7.909l3.563-7.909
						c0.136-0.314,0.32-0.548,0.553-0.702s0.48-0.232,0.741-0.232c0.319,0,0.6,0.102,0.84,0.306
						c0.241,0.204,0.361,0.458,0.361,0.761v9.291c0,0.178-0.073,0.316-0.22,0.416c-0.146,0.1-0.316,0.149-0.51,0.149
						c-0.199,0-0.37-0.05-0.515-0.149c-0.144-0.1-0.216-0.238-0.216-0.416v-8.545l-3.656,8.208c-0.1,0.225-0.235,0.397-0.408,0.518
						c-0.173,0.12-0.351,0.181-0.533,0.181C117.613,275.685,117.435,275.624,117.262,275.504z"/>
					<path style="fill:#FFFFFF;" d="M128.64,275.379c-0.795-0.513-1.392-1.198-1.789-2.057c-0.397-0.857-0.597-1.828-0.597-2.911
						c0-0.806,0.122-1.561,0.365-2.268c0.243-0.706,0.587-1.322,1.032-1.848c0.444-0.526,1.004-0.94,1.679-1.244
						c0.675-0.304,1.423-0.455,2.244-0.455c1.015,0,1.959,0.243,2.833,0.729c0.23,0.126,0.346,0.307,0.346,0.542
						c0,0.167-0.058,0.313-0.173,0.439c-0.115,0.125-0.254,0.189-0.416,0.189c-0.078,0-0.165-0.021-0.259-0.064
						c-0.021-0.01-0.085-0.043-0.192-0.098c-0.107-0.055-0.195-0.097-0.263-0.126c-0.068-0.028-0.173-0.067-0.314-0.117
						c-0.141-0.05-0.277-0.089-0.408-0.118c-0.13-0.028-0.294-0.054-0.49-0.074c-0.196-0.021-0.398-0.031-0.607-0.031
						c-0.508,0-0.969,0.078-1.382,0.235c-0.413,0.157-0.761,0.374-1.043,0.651c-0.283,0.277-0.52,0.606-0.715,0.988
						c-0.193,0.382-0.334,0.794-0.423,1.236c-0.09,0.441-0.134,0.911-0.134,1.408s0.044,0.965,0.134,1.404
						c0.089,0.439,0.229,0.85,0.423,1.229c0.194,0.379,0.434,0.705,0.719,0.977c0.285,0.272,0.638,0.487,1.059,0.643
						c0.422,0.157,0.891,0.235,1.409,0.235c0.465,0,0.873-0.061,1.224-0.185c0.351-0.122,0.73-0.299,1.138-0.529
						c0.105-0.058,0.204-0.086,0.299-0.086c0.162,0,0.301,0.06,0.416,0.181c0.114,0.12,0.172,0.261,0.172,0.423
						c0,0.241-0.131,0.445-0.392,0.612c-0.874,0.57-1.904,0.855-3.092,0.855C130.369,276.147,129.435,275.892,128.64,275.379z"/>
				</g>
				<g>
					<path style="fill:#FFFFFF;" d="M120.635,399.033h-5.399l-0.926,2.386c-0.131,0.345-0.374,0.518-0.729,0.518
						c-0.204,0-0.386-0.065-0.546-0.196c-0.159-0.131-0.239-0.296-0.239-0.494c0-0.084,0.021-0.181,0.063-0.29l3.728-9.252
						c0.178-0.444,0.37-0.739,0.577-0.883c0.206-0.144,0.464-0.216,0.772-0.216s0.566,0.072,0.773,0.216
						c0.206,0.144,0.398,0.439,0.576,0.883l3.728,9.252c0.042,0.109,0.063,0.206,0.063,0.29c0,0.198-0.081,0.363-0.243,0.494
						c-0.162,0.131-0.345,0.196-0.549,0.196c-0.351,0-0.592-0.173-0.722-0.518L120.635,399.033z M117.936,392.097l-2.252,5.799
						h4.504L117.936,392.097z"/>
					<path style="fill:#FFFFFF;" d="M126.889,401.293c-0.795-0.513-1.392-1.198-1.789-2.056c-0.397-0.858-0.597-1.828-0.597-2.911
						c0-0.806,0.122-1.562,0.365-2.269c0.243-0.706,0.587-1.321,1.032-1.848c0.444-0.525,1.004-0.94,1.679-1.243
						c0.675-0.304,1.423-0.455,2.244-0.455c1.015,0,1.959,0.243,2.833,0.73c0.23,0.125,0.346,0.306,0.346,0.541
						c0,0.168-0.058,0.315-0.173,0.44c-0.115,0.126-0.254,0.188-0.416,0.188c-0.078,0-0.165-0.021-0.259-0.063
						c-0.021-0.011-0.085-0.043-0.192-0.099c-0.107-0.055-0.195-0.097-0.263-0.125c-0.068-0.029-0.173-0.068-0.314-0.118
						c-0.141-0.05-0.277-0.089-0.408-0.117c-0.13-0.029-0.294-0.054-0.49-0.075c-0.196-0.021-0.398-0.031-0.607-0.031
						c-0.508,0-0.969,0.079-1.382,0.235c-0.413,0.157-0.761,0.374-1.043,0.651c-0.283,0.277-0.521,0.607-0.715,0.989
						c-0.193,0.382-0.334,0.794-0.423,1.235c-0.09,0.442-0.134,0.912-0.134,1.409c0,0.497,0.044,0.965,0.134,1.404
						c0.089,0.44,0.229,0.849,0.423,1.228c0.194,0.38,0.434,0.705,0.719,0.978c0.285,0.271,0.638,0.486,1.059,0.644
						c0.422,0.156,0.891,0.235,1.409,0.235c0.465,0,0.873-0.061,1.224-0.185c0.351-0.123,0.73-0.3,1.138-0.529
						c0.104-0.058,0.204-0.087,0.299-0.087c0.162,0,0.301,0.061,0.416,0.181c0.114,0.12,0.172,0.262,0.172,0.424
						c0,0.24-0.131,0.444-0.392,0.612c-0.874,0.57-1.904,0.855-3.092,0.855C128.618,402.063,127.684,401.806,126.889,401.293z"/>
				</g>
				<g>
					<path style="fill:#FFFFFF;" d="M120.684,369.293c-0.795-0.513-1.392-1.198-1.789-2.056c-0.397-0.858-0.597-1.828-0.597-2.911
						c0-0.806,0.122-1.562,0.365-2.269c0.243-0.706,0.587-1.321,1.032-1.848c0.444-0.525,1.004-0.94,1.679-1.243
						c0.675-0.304,1.423-0.455,2.244-0.455c1.015,0,1.959,0.243,2.833,0.73c0.23,0.125,0.346,0.306,0.346,0.541
						c0,0.168-0.058,0.315-0.173,0.44c-0.115,0.126-0.254,0.188-0.416,0.188c-0.078,0-0.165-0.021-0.259-0.063
						c-0.021-0.011-0.085-0.043-0.192-0.099c-0.107-0.055-0.195-0.097-0.263-0.125c-0.068-0.029-0.173-0.068-0.314-0.118
						c-0.141-0.05-0.277-0.089-0.408-0.117c-0.13-0.029-0.294-0.054-0.49-0.075c-0.196-0.021-0.398-0.031-0.607-0.031
						c-0.508,0-0.969,0.079-1.382,0.235c-0.413,0.157-0.761,0.374-1.043,0.651c-0.283,0.277-0.521,0.607-0.715,0.989
						c-0.193,0.382-0.334,0.794-0.423,1.235c-0.09,0.442-0.134,0.912-0.134,1.409c0,0.497,0.044,0.965,0.134,1.404
						c0.089,0.44,0.229,0.849,0.423,1.228c0.194,0.38,0.434,0.705,0.719,0.978c0.285,0.271,0.638,0.486,1.059,0.644
						c0.422,0.156,0.891,0.235,1.409,0.235c0.465,0,0.873-0.061,1.224-0.185c0.351-0.123,0.731-0.3,1.138-0.529
						c0.104-0.058,0.204-0.087,0.299-0.087c0.162,0,0.301,0.061,0.416,0.181c0.114,0.12,0.172,0.262,0.172,0.424
						c0,0.24-0.131,0.444-0.392,0.612c-0.874,0.57-1.904,0.855-3.092,0.855C122.413,370.063,121.479,369.806,120.684,369.293z"/>
				</g>
				<g>
					<path style="fill:#FFFFFF;" d="M116.707,301.211c-0.479-0.573-0.719-1.307-0.719-2.201c0-0.868,0.241-1.596,0.723-2.182
						c0.48-0.586,1.13-0.879,1.945-0.879c0.45,0,0.852,0.088,1.205,0.263c0.353,0.176,0.634,0.411,0.844,0.706
						c0.209,0.296,0.367,0.621,0.475,0.978c0.107,0.355,0.161,0.727,0.161,1.114c0,0.873-0.244,1.602-0.73,2.186
						c-0.486,0.583-1.138,0.874-1.954,0.874C117.835,302.069,117.186,301.783,116.707,301.211z M119.54,300.869
						c0.233-0.215,0.396-0.479,0.487-0.793c0.091-0.314,0.137-0.669,0.137-1.066c0-0.397-0.046-0.752-0.137-1.064
						c-0.092-0.311-0.254-0.573-0.487-0.785c-0.232-0.212-0.526-0.317-0.883-0.317c-0.35,0-0.641,0.105-0.87,0.317
						c-0.23,0.212-0.392,0.474-0.483,0.785c-0.091,0.312-0.137,0.666-0.137,1.064c0,0.397,0.046,0.753,0.137,1.066
						c0.092,0.314,0.253,0.578,0.483,0.793c0.229,0.215,0.521,0.321,0.87,0.321C119.013,301.19,119.307,301.084,119.54,300.869z
						 M118.775,307.441c-0.1-0.087-0.149-0.192-0.149-0.318c0-0.073,0.031-0.165,0.095-0.274l6.128-10.845
						c0.115-0.204,0.268-0.306,0.455-0.306c0.121,0,0.226,0.046,0.314,0.137c0.089,0.092,0.133,0.2,0.133,0.326
						c0,0.084-0.033,0.193-0.102,0.329l-6.113,10.782c-0.109,0.198-0.251,0.298-0.423,0.298
						C118.987,307.57,118.874,307.527,118.775,307.441z M124.264,306.405c-0.479-0.578-0.719-1.311-0.719-2.201
						c0-0.868,0.244-1.594,0.73-2.178c0.486-0.583,1.135-0.875,1.946-0.875c0.444,0,0.843,0.088,1.196,0.264
						c0.354,0.175,0.633,0.409,0.84,0.702c0.206,0.293,0.363,0.617,0.471,0.973c0.107,0.355,0.161,0.728,0.161,1.114
						c0,0.565-0.104,1.078-0.311,1.538c-0.207,0.46-0.516,0.83-0.926,1.11c-0.411,0.28-0.888,0.42-1.432,0.42
						C125.395,307.272,124.743,306.983,124.264,306.405z M127.092,306.06c0.23-0.212,0.392-0.473,0.483-0.784
						c0.091-0.311,0.137-0.668,0.137-1.071c0-0.293-0.026-0.564-0.078-0.813c-0.053-0.248-0.135-0.477-0.247-0.686
						c-0.112-0.209-0.269-0.374-0.467-0.494c-0.199-0.12-0.432-0.181-0.698-0.181c-0.356,0-0.65,0.107-0.883,0.322
						c-0.233,0.214-0.395,0.478-0.483,0.788c-0.089,0.311-0.133,0.666-0.133,1.064s0.044,0.752,0.133,1.064
						c0.089,0.311,0.25,0.574,0.483,0.788c0.232,0.215,0.526,0.322,0.883,0.322C126.572,306.378,126.863,306.272,127.092,306.06z"/>
				</g>
				<g>
					<path style="fill:#FFFFFF;" d="M157.92,306.814c-0.162-0.139-0.243-0.313-0.243-0.523c0-0.094,0.026-0.206,0.078-0.337
						l3.845-8.828h-5.171c-0.204,0-0.361-0.061-0.471-0.185c-0.11-0.122-0.165-0.271-0.165-0.443c0-0.167,0.055-0.313,0.165-0.439
						c0.11-0.125,0.267-0.188,0.471-0.188h6.011c0.283,0,0.5,0.066,0.651,0.199c0.151,0.134,0.228,0.313,0.228,0.538
						c0,0.23-0.047,0.455-0.141,0.675l-4.018,9.299c-0.126,0.293-0.351,0.44-0.675,0.44
						C158.27,307.022,158.082,306.952,157.92,306.814z"/>
				</g>
				<g>
					<path style="fill:#FFFFFF;" d="M193.969,306.837c-0.578-0.238-1.039-0.601-1.381-1.087c-0.343-0.486-0.514-1.061-0.514-1.727
						c0-0.706,0.193-1.314,0.581-1.824c0.387-0.51,0.936-0.838,1.648-0.984c-0.68-0.162-1.192-0.47-1.534-0.923
						c-0.343-0.452-0.514-1.003-0.514-1.651c0-0.638,0.168-1.188,0.502-1.647c0.334-0.461,0.777-0.801,1.326-1.021
						c0.549-0.22,1.169-0.329,1.859-0.329c0.518,0,0.999,0.063,1.444,0.191c0.444,0.129,0.836,0.314,1.174,0.558
						c0.337,0.243,0.602,0.559,0.796,0.945c0.193,0.388,0.29,0.821,0.29,1.303c0,0.659-0.175,1.214-0.525,1.664
						c-0.351,0.449-0.853,0.753-1.507,0.91c0.732,0.198,1.284,0.537,1.656,1.016c0.371,0.479,0.557,1.076,0.557,1.793
						c0,0.665-0.173,1.24-0.518,1.727c-0.346,0.486-0.807,0.849-1.385,1.087c-0.578,0.238-1.239,0.357-1.982,0.357
						C195.205,307.194,194.546,307.075,193.969,306.837z M197.598,305.511c0.429-0.327,0.643-0.82,0.643-1.479
						c0-0.685-0.217-1.212-0.651-1.581c-0.435-0.368-0.98-0.553-1.64-0.553c-0.665,0-1.215,0.185-1.652,0.553
						c-0.437,0.369-0.655,0.897-0.655,1.581c0,0.445,0.107,0.819,0.322,1.122c0.214,0.304,0.49,0.521,0.828,0.651
						c0.337,0.131,0.723,0.196,1.158,0.196C196.619,306.001,197.169,305.838,197.598,305.511z M197.563,300.01
						c0.39-0.321,0.585-0.788,0.585-1.4c0-0.623-0.21-1.083-0.628-1.381c-0.419-0.299-0.941-0.447-1.569-0.447
						c-0.294,0-0.566,0.034-0.82,0.102c-0.254,0.068-0.486,0.172-0.698,0.31c-0.212,0.139-0.378,0.33-0.499,0.573
						c-0.12,0.243-0.18,0.524-0.18,0.844c0,0.612,0.196,1.079,0.588,1.4c0.393,0.322,0.929,0.482,1.609,0.482
						C196.635,300.492,197.173,300.332,197.563,300.01z"/>
				</g>
				<g>
					<path style="fill:#FFFFFF;" d="M228.215,306.613c-0.194-0.095-0.291-0.259-0.291-0.494c0-0.178,0.056-0.342,0.169-0.491
						c0.112-0.148,0.247-0.224,0.404-0.224c0.058,0,0.123,0.017,0.196,0.048c0.675,0.314,1.334,0.471,1.978,0.471
						c0.351,0,0.667-0.041,0.95-0.122c0.282-0.081,0.523-0.192,0.726-0.333c0.201-0.142,0.376-0.322,0.525-0.542
						c0.149-0.22,0.27-0.452,0.361-0.698c0.091-0.246,0.164-0.533,0.22-0.863c0.055-0.329,0.091-0.655,0.109-0.977
						c0.018-0.322,0.027-0.684,0.027-1.087c-0.125,0.424-0.44,0.799-0.945,1.126c-0.505,0.327-1.098,0.49-1.777,0.49
						c-1.078-0.005-1.938-0.337-2.582-0.996c-0.643-0.659-0.965-1.518-0.965-2.574c0-1.083,0.342-1.971,1.028-2.664
						c0.686-0.693,1.601-1.039,2.747-1.039c0.617,0,1.166,0.093,1.647,0.278c0.481,0.185,0.875,0.435,1.182,0.749
						c0.306,0.315,0.558,0.693,0.757,1.138c0.199,0.445,0.339,0.906,0.42,1.386c0.081,0.479,0.122,0.995,0.122,1.549
						c0,0.456-0.015,0.881-0.044,1.275c-0.028,0.396-0.086,0.817-0.172,1.268c-0.087,0.45-0.198,0.855-0.334,1.216
						c-0.136,0.361-0.323,0.715-0.561,1.059c-0.238,0.346-0.514,0.635-0.824,0.867c-0.311,0.233-0.692,0.419-1.142,0.558
						c-0.45,0.138-0.953,0.208-1.507,0.208C229.813,307.194,229.005,307,228.215,306.613z M232.833,301.12
						c0.426-0.449,0.64-1.054,0.64-1.813c0-0.69-0.2-1.268-0.601-1.73c-0.4-0.463-0.964-0.694-1.691-0.694
						c-0.753,0-1.33,0.221-1.73,0.663c-0.4,0.442-0.6,1.037-0.6,1.785c0,0.722,0.182,1.313,0.545,1.773
						c0.363,0.461,0.906,0.69,1.628,0.69C231.804,301.795,232.407,301.57,232.833,301.12z"/>
				</g>
				<g>
					<path style="fill:#FFFFFF;" d="M161.122,337.829c-0.156-0.125-0.235-0.298-0.235-0.518v-1.734h-4.473
						c-0.241,0-0.436-0.081-0.584-0.243c-0.149-0.162-0.224-0.353-0.224-0.572c0-0.173,0.05-0.335,0.149-0.487l4.285-6.732
						c0.318-0.497,0.745-0.745,1.278-0.745c0.314,0,0.575,0.092,0.785,0.274c0.209,0.184,0.313,0.455,0.313,0.816v6.544h1.138
						c0.184,0,0.324,0.057,0.424,0.169c0.1,0.112,0.149,0.247,0.149,0.404c0,0.156-0.05,0.291-0.149,0.404
						c-0.1,0.112-0.24,0.168-0.424,0.168h-1.146v1.734c0,0.22-0.076,0.393-0.227,0.518c-0.151,0.126-0.327,0.189-0.525,0.189
						C161.456,338.018,161.279,337.955,161.122,337.829z M160.886,334.432v-6.026l-3.751,6.026H160.886z"/>
				</g>
				<g>
					<path style="fill:#FFFFFF;" d="M194.27,337.869c-0.528-0.21-1.03-0.523-1.506-0.942c-0.105-0.089-0.157-0.201-0.157-0.337
						c0-0.173,0.071-0.336,0.212-0.49c0.142-0.154,0.293-0.231,0.455-0.231c0.1,0,0.191,0.034,0.275,0.102
						c0.722,0.628,1.554,0.941,2.495,0.941c0.774,0,1.36-0.212,1.758-0.636c0.397-0.423,0.597-1.015,0.597-1.773
						c0-0.695-0.196-1.256-0.589-1.683c-0.393-0.427-0.913-0.64-1.562-0.64c-0.418,0-0.833,0.096-1.244,0.286
						c-0.411,0.191-0.736,0.434-0.977,0.727c-0.058,0.063-0.16,0.094-0.306,0.094c-0.214,0-0.429-0.057-0.643-0.169
						c-0.215-0.112-0.322-0.247-0.322-0.404v-5.124c0-0.471,0.253-0.706,0.761-0.706h5.147c0.183,0,0.325,0.059,0.428,0.177
						c0.102,0.117,0.153,0.258,0.153,0.42c0,0.162-0.05,0.301-0.149,0.416s-0.243,0.172-0.432,0.172h-4.653l-0.008,3.791
						l0.094-0.095c0.058-0.063,0.153-0.139,0.286-0.228c0.134-0.089,0.29-0.177,0.471-0.263c0.18-0.086,0.413-0.161,0.698-0.224
						c0.285-0.063,0.584-0.095,0.898-0.095c1.046,0,1.884,0.334,2.511,1.001c0.628,0.667,0.942,1.529,0.942,2.586
						c0,1.099-0.354,1.98-1.063,2.645c-0.709,0.664-1.623,0.996-2.743,0.996C195.409,338.183,194.799,338.078,194.27,337.869z"/>
				</g>
				<g>
					<path style="fill:#FFFFFF;" d="M229.836,337.904c-0.479-0.185-0.871-0.435-1.177-0.75c-0.306-0.314-0.559-0.692-0.757-1.138
						c-0.199-0.444-0.339-0.906-0.42-1.385c-0.081-0.479-0.122-0.995-0.122-1.55c0-0.455,0.015-0.88,0.043-1.275
						c0.028-0.395,0.086-0.817,0.172-1.267c0.086-0.45,0.197-0.855,0.333-1.217c0.136-0.36,0.323-0.714,0.561-1.06
						c0.238-0.345,0.513-0.634,0.824-0.867c0.311-0.232,0.691-0.418,1.142-0.557c0.45-0.139,0.952-0.208,1.507-0.208
						c0.826,0,1.635,0.193,2.425,0.581c0.193,0.094,0.29,0.259,0.29,0.494c0,0.178-0.057,0.341-0.169,0.49
						c-0.112,0.149-0.247,0.224-0.404,0.224c-0.058,0-0.123-0.016-0.195-0.047c-0.681-0.314-1.34-0.471-1.978-0.471
						c-0.351,0-0.667,0.04-0.95,0.121c-0.283,0.081-0.525,0.192-0.726,0.334c-0.201,0.141-0.376,0.321-0.526,0.541
						c-0.149,0.22-0.27,0.453-0.361,0.698c-0.091,0.246-0.164,0.534-0.22,0.863c-0.055,0.33-0.091,0.655-0.11,0.978
						c-0.018,0.321-0.027,0.684-0.027,1.087c0.12-0.424,0.433-0.8,0.938-1.127c0.505-0.326,1.097-0.49,1.778-0.49
						c1.077,0.006,1.94,0.338,2.585,0.997c0.646,0.659,0.97,1.517,0.97,2.573c0,1.078-0.343,1.965-1.028,2.66
						c-0.686,0.696-1.603,1.044-2.755,1.044C230.862,338.183,230.314,338.09,229.836,337.904z M229.746,332.705
						c-0.429,0.45-0.643,1.055-0.643,1.813c0,0.69,0.201,1.267,0.604,1.729c0.403,0.463,0.968,0.694,1.695,0.694
						c0.748,0,1.324-0.221,1.727-0.663c0.403-0.441,0.604-1.036,0.604-1.785c0-0.722-0.182-1.313-0.546-1.773
						c-0.363-0.46-0.906-0.69-1.628-0.69C230.779,332.03,230.174,332.256,229.746,332.705z"/>
				</g>
				<g>
					<path style="fill:#FFFFFF;" d="M159.674,370.314c-0.155-0.13-0.231-0.314-0.231-0.549v-8.813l-1.695,1.091
						c-0.099,0.058-0.201,0.087-0.306,0.087c-0.157,0-0.291-0.058-0.404-0.173c-0.113-0.115-0.169-0.251-0.169-0.408
						c0-0.184,0.089-0.335,0.267-0.455l2.691-1.68c0.115-0.078,0.26-0.117,0.432-0.117c0.21,0,0.386,0.066,0.53,0.2
						c0.144,0.133,0.216,0.322,0.216,0.568l0.008,9.699c0,0.235-0.079,0.419-0.235,0.549c-0.157,0.131-0.343,0.196-0.558,0.196
						C160.01,370.51,159.829,370.444,159.674,370.314z"/>
				</g>
				<g>
					<path style="fill:#FFFFFF;" d="M199.073,364.091c-0.288,0.545-0.764,1.122-1.429,1.734l-3.585,3.492h4.724
						c0.193,0,0.345,0.059,0.455,0.177c0.109,0.117,0.164,0.258,0.164,0.42c0,0.162-0.055,0.302-0.164,0.419
						c-0.11,0.118-0.262,0.177-0.455,0.177h-5.399c-0.309,0-0.557-0.077-0.746-0.232c-0.189-0.154-0.283-0.347-0.283-0.576
						c0-0.267,0.123-0.523,0.369-0.77l4.081-4.135c0.424-0.435,0.734-0.833,0.934-1.197c0.198-0.363,0.298-0.728,0.298-1.095
						c0-0.617-0.2-1.115-0.6-1.495c-0.4-0.379-0.891-0.568-1.472-0.568c-0.345,0-0.666,0.031-0.961,0.094
						c-0.295,0.064-0.505,0.121-0.627,0.173c-0.123,0.053-0.306,0.15-0.549,0.294c-0.244,0.145-0.389,0.229-0.436,0.256
						c-0.074,0.036-0.149,0.055-0.227,0.055c-0.163,0-0.308-0.066-0.436-0.2c-0.128-0.134-0.192-0.284-0.192-0.451
						c0-0.199,0.102-0.361,0.306-0.486c0.518-0.315,1.013-0.554,1.487-0.719c0.474-0.164,1.056-0.247,1.746-0.247
						c0.983,0,1.802,0.307,2.452,0.919c0.651,0.611,0.978,1.357,0.978,2.236C199.505,362.972,199.36,363.547,199.073,364.091z"/>
				</g>
				<g>
					<path style="fill:#FFFFFF;" d="M228.427,370.094c-0.272-0.141-0.408-0.337-0.408-0.588c0-0.173,0.06-0.324,0.181-0.455
						c0.12-0.131,0.261-0.196,0.424-0.196c0.052,0,0.118,0.013,0.196,0.039c0.748,0.346,1.468,0.518,2.158,0.518
						c0.696,0,1.259-0.162,1.691-0.486c0.432-0.324,0.647-0.782,0.647-1.373c0-0.686-0.249-1.232-0.745-1.64
						c-0.497-0.408-1.131-0.612-1.899-0.612h-0.573c-0.178,0-0.315-0.055-0.412-0.165c-0.097-0.109-0.145-0.243-0.145-0.4
						c0-0.162,0.048-0.301,0.145-0.416c0.097-0.114,0.234-0.172,0.412-0.172h0.51c0.732,0,1.32-0.166,1.762-0.499
						c0.441-0.332,0.663-0.814,0.663-1.447c0-0.57-0.202-1.013-0.604-1.326c-0.403-0.314-0.898-0.471-1.483-0.471
						c-0.816,0-1.58,0.178-2.291,0.533c-0.052,0.026-0.115,0.039-0.189,0.039c-0.157,0-0.295-0.074-0.416-0.224
						c-0.12-0.149-0.18-0.313-0.18-0.49c0-0.204,0.086-0.355,0.259-0.455c0.246-0.151,0.648-0.302,1.205-0.451
						s1.103-0.224,1.636-0.224c0.685,0,1.297,0.107,1.837,0.321c0.538,0.215,0.975,0.557,1.311,1.024
						c0.334,0.469,0.502,1.032,0.502,1.691c0,0.628-0.174,1.152-0.523,1.573c-0.348,0.421-0.807,0.726-1.377,0.914
						c0.67,0.167,1.198,0.508,1.585,1.02c0.388,0.514,0.581,1.136,0.581,1.868c0,0.528-0.105,0.999-0.317,1.412
						c-0.212,0.413-0.5,0.743-0.863,0.989c-0.364,0.246-0.77,0.43-1.217,0.553c-0.447,0.123-0.927,0.185-1.44,0.185
						C230.043,370.683,229.17,370.486,228.427,370.094z"/>
				</g>
				<g>
					<path style="fill:#FFFFFF;" d="M158.065,400.865c-0.465-0.212-0.843-0.495-1.134-0.848c-0.29-0.354-0.528-0.783-0.714-1.291
						c-0.186-0.508-0.315-1.028-0.389-1.562c-0.073-0.533-0.11-1.117-0.11-1.75c0-3.855,1.316-5.783,3.947-5.783
						c2.626,0,3.94,1.928,3.94,5.783c0,0.628-0.035,1.208-0.107,1.742c-0.07,0.533-0.198,1.054-0.385,1.562
						c-0.186,0.508-0.423,0.938-0.714,1.291c-0.29,0.353-0.668,0.637-1.134,0.852c-0.466,0.214-0.999,0.321-1.601,0.321
						C159.065,401.183,158.531,401.077,158.065,400.865z M160.447,399.759c0.233-0.102,0.43-0.235,0.589-0.4
						c0.159-0.165,0.298-0.37,0.416-0.616c0.118-0.246,0.211-0.494,0.278-0.745c0.068-0.251,0.122-0.535,0.161-0.852
						c0.039-0.316,0.065-0.607,0.078-0.871c0.014-0.265,0.02-0.551,0.02-0.859c0-0.324-0.006-0.624-0.02-0.898
						c-0.013-0.274-0.04-0.57-0.082-0.887c-0.042-0.316-0.097-0.601-0.165-0.852c-0.067-0.251-0.161-0.497-0.278-0.737
						c-0.118-0.24-0.257-0.442-0.416-0.604c-0.159-0.162-0.355-0.291-0.585-0.389c-0.23-0.097-0.489-0.145-0.776-0.145
						c-0.288,0-0.547,0.048-0.777,0.145c-0.23,0.098-0.424,0.225-0.581,0.385c-0.157,0.16-0.296,0.359-0.416,0.601
						c-0.121,0.24-0.213,0.486-0.279,0.737c-0.066,0.251-0.119,0.536-0.161,0.855c-0.042,0.319-0.069,0.616-0.083,0.891
						c-0.013,0.274-0.02,0.574-0.02,0.898c0,0.309,0.006,0.597,0.02,0.863s0.04,0.559,0.079,0.875
						c0.039,0.316,0.093,0.601,0.161,0.852c0.068,0.251,0.161,0.499,0.279,0.745c0.118,0.246,0.255,0.45,0.412,0.612
						c0.157,0.162,0.352,0.294,0.584,0.396c0.232,0.102,0.493,0.152,0.781,0.152C159.954,399.911,160.214,399.86,160.447,399.759z"
						/>
				</g>
				<g>
					<path style="fill:#FFFFFF;" d="M194.499,397.247c-0.365-0.365-0.547-0.799-0.547-1.301c0-0.479,0.182-0.901,0.547-1.267
						c0.365-0.365,0.845-0.548,1.438-0.548c0.582,0,1.059,0.18,1.43,0.539c0.371,0.359,0.556,0.785,0.556,1.275
						c0,0.502-0.183,0.936-0.548,1.301c-0.365,0.365-0.845,0.548-1.438,0.548C195.344,397.795,194.865,397.612,194.499,397.247z"/>
				</g>
				<g>
					<path style="fill:#FFFFFF;" d="M267.101,265.531c-0.355-0.355-0.533-0.777-0.533-1.266c0-0.467,0.177-0.877,0.533-1.232
						c0.355-0.355,0.822-0.533,1.399-0.533c0.566,0,1.03,0.175,1.391,0.525c0.361,0.35,0.541,0.764,0.541,1.241
						c0,0.488-0.178,0.91-0.533,1.266c-0.355,0.355-0.822,0.533-1.399,0.533C267.923,266.064,267.456,265.886,267.101,265.531z"/>
				</g>
				<g>
					<path style="fill:#FFFFFF;" d="M267.101,275.967c-0.355-0.355-0.533-0.777-0.533-1.266c0-0.467,0.177-0.877,0.533-1.232
						s0.822-0.533,1.399-0.533c0.566,0,1.03,0.175,1.391,0.524c0.361,0.35,0.541,0.764,0.541,1.241c0,0.488-0.178,0.91-0.533,1.266
						c-0.355,0.355-0.822,0.533-1.399,0.533C267.923,276.5,267.456,276.322,267.101,275.967z"/>
				</g>
				<g>
					<path style="fill:#FFFFFF;" d="M225.962,395.035c-0.189-0.185-0.283-0.4-0.283-0.649c0-0.282,0.099-0.51,0.296-0.681
						c0.197-0.172,0.441-0.258,0.732-0.258h11.131c0.283,0,0.524,0.086,0.726,0.258c0.201,0.171,0.302,0.398,0.302,0.681
						c0,0.266-0.101,0.486-0.302,0.662c-0.202,0.176-0.443,0.264-0.726,0.264h-11.195
						C226.377,395.311,226.15,395.22,225.962,395.035z M225.962,400.17c-0.189-0.18-0.283-0.393-0.283-0.643
						c0-0.274,0.099-0.499,0.296-0.675c0.197-0.176,0.441-0.264,0.732-0.264h11.169c0.274,0,0.508,0.086,0.701,0.257
						c0.193,0.172,0.289,0.398,0.289,0.682c0,0.266-0.099,0.484-0.295,0.655c-0.197,0.172-0.437,0.257-0.72,0.257h-11.208
						C226.377,400.44,226.15,400.35,225.962,400.17z"/>
				</g>
				<g>
					<path style="fill:#FFFFFF;" d="M267.616,302.478l-3.131,4.206c-0.178,0.235-0.387,0.354-0.628,0.354
						c-0.183,0-0.344-0.066-0.482-0.2c-0.139-0.134-0.208-0.289-0.208-0.467c0-0.151,0.053-0.296,0.157-0.432l3.484-4.56
						l-3.28-4.465c-0.079-0.099-0.118-0.214-0.118-0.345c0-0.193,0.083-0.369,0.247-0.526c0.165-0.156,0.353-0.235,0.562-0.235
						c0.235,0,0.437,0.113,0.604,0.338l2.989,4.072l3.036-4.057c0.184-0.24,0.4-0.361,0.652-0.361c0.178,0,0.33,0.061,0.459,0.181
						c0.127,0.12,0.191,0.265,0.191,0.432c0,0.142-0.047,0.274-0.141,0.4l-3.375,4.527l3.352,4.575
						c0.094,0.131,0.141,0.264,0.141,0.4c0,0.193-0.084,0.359-0.25,0.498c-0.168,0.139-0.354,0.208-0.559,0.208
						c-0.246,0-0.441-0.103-0.588-0.307L267.616,302.478z"/>
				</g>
				<g>
					<path style="fill:#FFFFFF;" d="M267.358,389.686c-0.205-0.215-0.308-0.487-0.308-0.816v-5.188h-5.398
						c-0.319,0-0.598-0.103-0.832-0.308c-0.235-0.204-0.352-0.462-0.352-0.772c0-0.319,0.112-0.577,0.338-0.771
						c0.225-0.195,0.507-0.293,0.847-0.293h5.398v-5.232c0-0.32,0.103-0.593,0.308-0.817c0.204-0.226,0.472-0.338,0.802-0.338
						c0.32,0,0.585,0.11,0.795,0.33c0.21,0.22,0.314,0.495,0.314,0.825v5.232h5.413c0.32,0,0.598,0.098,0.833,0.293
						c0.234,0.194,0.352,0.452,0.352,0.771c0,0.311-0.114,0.568-0.345,0.772c-0.229,0.205-0.51,0.308-0.84,0.308h-5.413v5.188
						c0,0.31-0.104,0.577-0.314,0.802c-0.21,0.225-0.475,0.338-0.795,0.338C267.83,390.01,267.563,389.902,267.358,389.686z"/>
				</g>
				<g>
					<path style="fill:#FFFFFF;" d="M117.447,336.713c-0.149-0.156-0.224-0.354-0.224-0.594v-3.775h-3.928
						c-0.232,0-0.435-0.075-0.605-0.224c-0.171-0.149-0.257-0.336-0.257-0.562c0-0.232,0.082-0.42,0.246-0.561
						c0.163-0.142,0.369-0.213,0.616-0.213h3.928v-3.807c0-0.233,0.075-0.431,0.224-0.595c0.148-0.164,0.343-0.246,0.583-0.246
						c0.233,0,0.426,0.08,0.578,0.24c0.153,0.16,0.229,0.36,0.229,0.6v3.807h3.938c0.233,0,0.435,0.071,0.606,0.213
						c0.171,0.141,0.256,0.329,0.256,0.561c0,0.226-0.083,0.413-0.251,0.562c-0.167,0.149-0.371,0.224-0.611,0.224h-3.938v3.775
						c0,0.225-0.076,0.42-0.229,0.583c-0.153,0.163-0.345,0.246-0.578,0.246C117.79,336.948,117.595,336.87,117.447,336.713z"/>
				</g>
				<g>
					<path style="fill:#FFFFFF;" d="M262.102,333.511c-0.16-0.117-0.241-0.26-0.241-0.428c0-0.162,0.081-0.303,0.241-0.424
						c0.161-0.12,0.386-0.18,0.674-0.18h10.772c0.289,0,0.514,0.061,0.674,0.184c0.161,0.123,0.241,0.266,0.241,0.428
						c0,0.162-0.08,0.303-0.241,0.42c-0.16,0.118-0.385,0.177-0.674,0.177h-10.772C262.487,333.688,262.263,333.629,262.102,333.511
						z"/>
				</g>
				<g>
					<path style="fill:#FFFFFF;" d="M125.357,338.844c-0.108-0.117-0.163-0.26-0.163-0.428c0-0.162,0.055-0.303,0.163-0.424
						c0.109-0.12,0.261-0.18,0.455-0.18h7.278c0.195,0,0.347,0.061,0.455,0.184c0.109,0.123,0.163,0.266,0.163,0.428
						c0,0.162-0.054,0.303-0.163,0.42c-0.108,0.118-0.26,0.177-0.455,0.177h-7.278C125.617,339.021,125.465,338.962,125.357,338.844
						z"/>
				</g>
				<g>
					<path style="fill:#FFFFFF;" d="M121.168,341.012c-0.221,0.148-0.405,0.181-0.55,0.097c-0.14-0.081-0.202-0.256-0.187-0.523
						c0.016-0.268,0.132-0.587,0.347-0.959l8.029-13.891c0.215-0.373,0.436-0.632,0.661-0.777c0.227-0.146,0.41-0.178,0.55-0.097
						c0.14,0.081,0.202,0.255,0.184,0.521c-0.017,0.266-0.134,0.585-0.349,0.957l-8.029,13.891
						C121.608,340.603,121.39,340.863,121.168,341.012z"/>
				</g>
				<g>
					<path style="fill:#FFFFFF;" d="M262.102,270.011c-0.16-0.117-0.241-0.26-0.241-0.428c0-0.162,0.081-0.303,0.241-0.424
						c0.161-0.12,0.386-0.18,0.674-0.18h10.772c0.289,0,0.514,0.061,0.674,0.184c0.161,0.123,0.241,0.266,0.241,0.428
						c0,0.162-0.08,0.303-0.241,0.42c-0.16,0.118-0.385,0.177-0.674,0.177h-10.772C262.487,270.188,262.263,270.129,262.102,270.011
						z"/>
				</g>
				<g>
					<path style="fill:#FFFFFF;" d="M153.929,275.504c-0.173-0.12-0.309-0.293-0.408-0.518l-3.656-8.208v8.545
						c0,0.178-0.072,0.316-0.216,0.416c-0.143,0.1-0.315,0.149-0.514,0.149c-0.194,0-0.364-0.05-0.511-0.149
						c-0.146-0.1-0.22-0.238-0.22-0.416v-9.291c0-0.303,0.119-0.557,0.357-0.761c0.238-0.204,0.517-0.306,0.836-0.306
						c0.261,0,0.509,0.077,0.741,0.232c0.232,0.154,0.42,0.388,0.561,0.702l3.563,7.909l3.563-7.909
						c0.136-0.314,0.32-0.548,0.553-0.702c0.232-0.154,0.48-0.232,0.741-0.232c0.319,0,0.6,0.102,0.84,0.306
						c0.241,0.204,0.361,0.458,0.361,0.761v9.291c0,0.178-0.073,0.316-0.22,0.416c-0.146,0.1-0.316,0.149-0.51,0.149
						c-0.199,0-0.37-0.05-0.515-0.149c-0.144-0.1-0.216-0.238-0.216-0.416v-8.545l-3.656,8.208c-0.1,0.225-0.235,0.397-0.408,0.518
						c-0.173,0.12-0.351,0.181-0.533,0.181C154.279,275.685,154.102,275.624,153.929,275.504z"/>
					<path style="fill:#FFFFFF;" d="M163.576,275.771c-0.154-0.131-0.232-0.316-0.232-0.557v-9.684c0-0.214,0.077-0.397,0.232-0.545
						c0.154-0.15,0.342-0.224,0.561-0.224h3.405c0.429,0,0.822,0.023,1.181,0.066c0.358,0.045,0.719,0.13,1.079,0.255
						c0.361,0.126,0.665,0.289,0.91,0.49c0.246,0.202,0.446,0.474,0.601,0.816c0.154,0.343,0.231,0.739,0.231,1.189
						c0,0.649-0.198,1.201-0.597,1.656c-0.397,0.455-0.988,0.756-1.772,0.902v0.031c1.229,0.267,1.925,1.106,2.087,2.518
						l0.282,2.465c0.005,0.025,0.008,0.063,0.008,0.109c0,0.209-0.073,0.379-0.22,0.51c-0.146,0.131-0.321,0.196-0.525,0.196
						c-0.209,0-0.399-0.061-0.569-0.185c-0.17-0.122-0.266-0.297-0.286-0.521l-0.243-2.189c-0.053-0.476-0.115-0.848-0.189-1.114
						c-0.073-0.267-0.192-0.489-0.357-0.667c-0.164-0.178-0.37-0.297-0.615-0.356c-0.246-0.061-0.578-0.091-0.997-0.091h-2.621
						v4.371c0,0.24-0.079,0.426-0.239,0.557c-0.159,0.131-0.347,0.196-0.561,0.196C163.915,275.967,163.73,275.901,163.576,275.771z
						 M167.214,269.627c0.309,0,0.583-0.014,0.823-0.04c0.241-0.025,0.487-0.078,0.738-0.156c0.251-0.079,0.459-0.186,0.624-0.322
						c0.164-0.136,0.299-0.32,0.403-0.553c0.105-0.232,0.157-0.509,0.157-0.828c0-0.262-0.035-0.491-0.106-0.69
						c-0.071-0.199-0.175-0.358-0.311-0.479c-0.136-0.12-0.278-0.219-0.428-0.294c-0.148-0.076-0.331-0.131-0.545-0.165
						c-0.215-0.034-0.403-0.057-0.565-0.067c-0.162-0.01-0.355-0.016-0.58-0.016h-2.496v3.61H167.214z"/>
				</g>
				<g>
					<path style="fill:#FFFFFF;" d="M190.595,275.504c-0.173-0.12-0.309-0.293-0.408-0.518l-3.656-8.208v8.545
						c0,0.178-0.072,0.316-0.216,0.416c-0.143,0.1-0.315,0.149-0.514,0.149c-0.194,0-0.364-0.05-0.511-0.149
						c-0.146-0.1-0.22-0.238-0.22-0.416v-9.291c0-0.303,0.119-0.557,0.357-0.761c0.238-0.204,0.517-0.306,0.836-0.306
						c0.261,0,0.509,0.077,0.741,0.232c0.232,0.154,0.42,0.388,0.561,0.702l3.563,7.909l3.563-7.909
						c0.136-0.314,0.32-0.548,0.553-0.702c0.232-0.154,0.48-0.232,0.741-0.232c0.319,0,0.6,0.102,0.84,0.306
						c0.241,0.204,0.361,0.458,0.361,0.761v9.291c0,0.178-0.073,0.316-0.22,0.416c-0.146,0.1-0.316,0.149-0.51,0.149
						c-0.199,0-0.37-0.05-0.515-0.149c-0.144-0.1-0.216-0.238-0.216-0.416v-8.545l-3.656,8.208c-0.1,0.225-0.235,0.397-0.408,0.518
						c-0.173,0.12-0.351,0.181-0.533,0.181C190.946,275.685,190.768,275.624,190.595,275.504z"/>
					<path style="fill:#FFFFFF;" d="M199.105,272.224c-0.117-0.099-0.177-0.228-0.177-0.384c0-0.168,0.058-0.303,0.173-0.404
						c0.115-0.102,0.267-0.153,0.455-0.153h3.492c0.189,0,0.34,0.051,0.455,0.153c0.115,0.102,0.173,0.236,0.173,0.404
						c0,0.156-0.06,0.285-0.177,0.384c-0.118,0.1-0.268,0.149-0.451,0.149h-3.492C199.373,272.373,199.223,272.323,199.105,272.224z
						"/>
				</g>
				<g>
					<path style="fill:#FFFFFF;" d="M227.263,275.504c-0.173-0.12-0.309-0.293-0.408-0.518l-3.656-8.208v8.545
						c0,0.178-0.072,0.316-0.216,0.416c-0.143,0.1-0.315,0.149-0.514,0.149c-0.194,0-0.364-0.05-0.511-0.149
						c-0.146-0.1-0.22-0.238-0.22-0.416v-9.291c0-0.303,0.119-0.557,0.357-0.761c0.238-0.204,0.517-0.306,0.836-0.306
						c0.261,0,0.509,0.077,0.741,0.232c0.232,0.154,0.42,0.388,0.561,0.702l3.563,7.909l3.563-7.909
						c0.136-0.314,0.32-0.548,0.553-0.702s0.48-0.232,0.741-0.232c0.319,0,0.6,0.102,0.84,0.306
						c0.241,0.204,0.361,0.458,0.361,0.761v9.291c0,0.178-0.073,0.316-0.22,0.416c-0.146,0.1-0.316,0.149-0.51,0.149
						c-0.199,0-0.37-0.05-0.515-0.149c-0.144-0.1-0.216-0.238-0.216-0.416v-8.545l-3.656,8.208c-0.1,0.225-0.235,0.397-0.408,0.518
						c-0.173,0.12-0.351,0.181-0.533,0.181C227.613,275.685,227.436,275.624,227.263,275.504z"/>
					<path style="fill:#FFFFFF;" d="M240.097,275.774c-0.107-0.112-0.161-0.255-0.161-0.428v-2.715h-2.825
						c-0.167,0-0.313-0.054-0.436-0.161c-0.123-0.106-0.185-0.241-0.185-0.403c0-0.168,0.06-0.303,0.177-0.404
						c0.118-0.103,0.266-0.153,0.443-0.153h2.825v-2.738c0-0.168,0.054-0.311,0.161-0.428c0.106-0.118,0.247-0.177,0.42-0.177
						c0.167,0,0.306,0.058,0.415,0.173c0.11,0.115,0.165,0.259,0.165,0.432v2.738h2.833c0.167,0,0.313,0.051,0.436,0.153
						c0.123,0.102,0.185,0.236,0.185,0.404c0,0.162-0.061,0.297-0.181,0.403c-0.12,0.107-0.267,0.161-0.439,0.161h-2.833v2.715
						c0,0.163-0.055,0.303-0.165,0.42c-0.109,0.118-0.248,0.177-0.415,0.177C240.344,275.943,240.203,275.888,240.097,275.774z"/>
				</g>
				<polyline style="fill:none;stroke:#FFFFFF;stroke-miterlimit:10;" points="226.5,239 231,245 236,236 241,236 				"/>
			</g>
		</g>
	</g>
</g>
</svg>
