<?xml version="1.0" encoding="utf-8"?>
<!-- Generator: Adobe Illustrator 27.5.0, SVG Export Plug-In . SVG Version: 6.00 Build 0)  -->
<svg version="1.1" xmlns="http://www.w3.org/2000/svg" xmlns:xlink="http://www.w3.org/1999/xlink" x="0px" y="0px"
	 viewBox="0 0 500 500" style="enable-background:new 0 0 500 500;" xml:space="preserve">
<g id="Background_Complete">
	<g>
		<g>
			<rect x="79.846" y="49.913" style="fill:#E0E0E0;" width="159.909" height="200.929"/>
			<rect x="85.701" y="55.662" style="fill:#FAFAFA;" width="149.233" height="189.444"/>
			<polygon style="fill:#F5F5F5;" points="85.701,195.113 115.724,195.113 119.584,212.779 132.61,212.779 143.706,162.539 
				180.854,162.539 180.854,128.285 207.871,128.285 207.871,185.522 234.934,185.522 234.934,245.106 85.701,245.106 			"/>
			<rect x="157.87" y="55.662" style="fill:#E0E0E0;" width="4.824" height="187.881"/>
			<rect x="85.701" y="147.438" style="fill:#E0E0E0;" width="149.233" height="4.938"/>
		</g>
		<g>
			<polygon style="fill:#E0E0E0;" points="391.642,103.478 401.24,128.033 395.273,128.006 390.491,112.916 			"/>
			<g>
				<g>
					<polygon style="fill:#EBEBEB;" points="358.865,80.79 355.566,127.838 389.629,128.55 393.462,80.79 					"/>
					<polygon style="fill:#FAFAFA;" points="362.273,84.579 359.526,123.74 384.849,124.926 388.386,84.346 					"/>
				</g>
				<polygon style="fill:#E0E0E0;" points="367.83,90.116 365.775,117.644 379.744,117.644 382.209,90.116 				"/>
			</g>
		</g>
		<polygon style="fill:#EBEBEB;" points="308.284,128.207 308.284,89.523 336.612,89.523 336.612,128.177 		"/>
		<path style="fill:#E0E0E0;" d="M324.39,89.523c0,0,6.834-49.946,4.919-49.877c-1.915,0.069-6.722,45.538-6.722,45.538
			s-0.201-37.657-2.003-37.457c-1.803,0.201,0,39.86,0,39.86s-3.079-32.186-4.745-31.416c-1.665,0.77,0.715,33.351,0.715,33.351
			H324.39"/>
		<path style="fill:#EBEBEB;" d="M319.24,89.523c0,0,2.368-24.895,3.149-23.192c0.781,1.702,0,14.82,0,14.82
			s6.559-32.169,8.277-31.076c1.718,1.093-6.715,34.917-6.715,34.917s6.403-19.31,7.808-17.275c1.405,2.035-5.31,20.149-5.31,20.149
			s6.871-12.805,7.34-11.087c0.468,1.718-3.28,12.745-3.28,12.745H319.24z"/>
		<path style="fill:#EBEBEB;" d="M315.203,89.674c0,0-15.148-29.735-13.274-28.814c1.873,0.921,11.556,20.129,11.556,20.129
			s-6.408-18.54-5-19.108c1.408-0.568,8.436,20.826,8.436,20.826l1.577,6.967H315.203z"/>
		<polygon style="fill:#E0E0E0;" points="321.397,89.587 322.113,128.271 308.643,128.271 308.384,89.458 		"/>
		<polygon style="fill:#F5F5F5;" points="308.315,92.937 321.361,93.155 336.612,92.937 337.091,89.241 307.945,89.241 		"/>
		<rect x="283.906" y="127.576" style="fill:#E0E0E0;" width="141.657" height="6.22"/>
	</g>
</g>
<g id="Background_Simple" style="display:none;">
	<g style="display:inline;">
		<path style="fill:#EBEBEB;" d="M418.45,114.094c26.247,49.747,17.249,113.725-14.284,160.301
			c-31.533,46.576-83.993,76.731-139.157,87.712c-39.378,7.838-81.74,6.242-117.72-11.576c-35.98-17.819-64.272-53.667-66.429-93.76
			c-0.815-15.143,2.397-31.224,12.503-42.531c16.136-18.055,43.684-18.691,67.887-17.946s51.732,0.18,67.948-17.804
			c12.459-13.819,14.294-33.863,20.859-51.273c11.164-29.602,38.096-52.715,69.049-59.258c14.679-3.103,30.04-2.432,44.501,1.537
			c23.522,6.456,43.205,22.645,54.63,44.195C418.308,113.825,418.379,113.959,418.45,114.094z"/>
	</g>
</g>
<g id="Device">
	<g>
		<path style="fill:#455A64;" d="M310.462,351.715c-1.199-1.323,1.628-9.093,15.06-9.645c13.432-0.552,18.805,4.341,18.83,9.645
			C344.363,354.069,310.462,351.715,310.462,351.715z"/>
		<g>
			<g>
				<polygon style="fill:#F5F5F5;" points="303.832,148.434 288.914,240.711 425.172,240.711 441.587,147.451 				"/>
				<path style="fill:#E0E0E0;" d="M302.475,156.832c0.053-0.325,137.552-0.521,137.552-0.521l1.56-8.861l-137.754,0.984
					L302.475,156.832"/>
				<path style="fill:#263238;" d="M309.585,152.59c0,0.697-0.565,1.262-1.262,1.262s-1.262-0.565-1.262-1.262
					c0-0.697,0.565-1.262,1.262-1.262S309.585,151.893,309.585,152.59z"/>
				<path style="fill:#263238;" d="M315.79,152.59c0,0.697-0.565,1.262-1.262,1.262c-0.697,0-1.262-0.565-1.262-1.262
					c0-0.697,0.565-1.262,1.262-1.262C315.225,151.328,315.79,151.893,315.79,152.59z"/>
				<path style="fill:#263238;" d="M321.995,152.59c0,0.697-0.565,1.262-1.262,1.262c-0.697,0-1.262-0.565-1.262-1.262
					c0-0.697,0.565-1.262,1.262-1.262C321.43,151.328,321.995,151.893,321.995,152.59z"/>
			</g>
			<path style="fill:#E8505B;" d="M337.394,198.281l-17.058,19.673c-6.687-4.734-10.601-11.997-10.601-19.673
				c0-13.71,12.486-24.992,27.659-24.992c15.173,0,27.659,11.282,27.659,24.992H337.394z"/>
			<g>
				<path style="fill:#263238;" d="M339.581,201.413c0.005,0.01-0.095,0.142-0.294,0.386c-0.221,0.267-0.514,0.62-0.884,1.066
					c-0.805,0.95-1.942,2.292-3.38,3.989c-2.947,3.435-7.12,8.3-12.136,14.148l-0.04-0.324c3.434,2.394,7.822,4.184,12.698,4.724
					c4.858,0.574,10.186-0.115,15.107-2.279c4.731-2.015,8.639-5.358,11.371-9.157c1.332-1.932,2.357-3.981,3.088-6.051
					c0.713-2.081,1.038-4.184,1.184-6.198l0.221,0.233c-8.047-0.135-14.756-0.247-19.496-0.326c-2.331-0.053-4.176-0.095-5.48-0.124
					c-0.608-0.02-1.089-0.036-1.452-0.048C339.759,201.436,339.586,201.423,339.581,201.413c-0.005-0.011,0.158-0.02,0.48-0.026
					c0.357-0.004,0.83-0.008,1.427-0.015c1.297,0.001,3.134,0.001,5.454,0.003c4.76,0.031,11.497,0.075,19.579,0.128l0.236,0.001
					l-0.015,0.231c-0.135,2.056-0.458,4.204-1.177,6.332c-0.737,2.116-1.777,4.211-3.13,6.186
					c-2.775,3.883-6.756,7.294-11.572,9.346c-5.011,2.204-10.434,2.896-15.373,2.299c-4.959-0.563-9.417-2.404-12.894-4.861
					l-0.2-0.141l0.16-0.183c5.1-5.819,9.342-10.66,12.338-14.078c1.469-1.655,2.631-2.965,3.453-3.891
					c0.382-0.421,0.685-0.755,0.914-1.007C339.467,201.512,339.576,201.402,339.581,201.413z"/>
			</g>
			<circle style="fill:#263238;" cx="349.153" cy="183.435" r="1.551"/>
			<g>
				<path style="fill:#263238;" d="M381.487,172.087c0,0.036-0.518,0.07-1.455,0.101c-1.035,0.022-2.368,0.049-3.969,0.083
					c-3.351,0.047-7.98,0.076-13.093,0.076c-0.846-0.001-1.678-0.002-2.47-0.002l0.182-0.076c-3.214,3.202-6.073,6.017-8.141,8.019
					c-0.988,0.943-1.809,1.727-2.453,2.342c-0.583,0.542-0.914,0.828-0.937,0.805c-0.023-0.023,0.263-0.354,0.805-0.937
					c0.615-0.644,1.399-1.465,2.342-2.453c2.003-2.067,4.817-4.927,8.019-8.141l0.075-0.076l0.107,0
					c0.791-0.001,1.624-0.002,2.47-0.002c5.113,0,9.742,0.029,13.093,0.076c1.6,0.033,2.934,0.061,3.969,0.083
					C380.969,172.016,381.487,172.051,381.487,172.087z"/>
			</g>
			<g>
				<path style="fill:#263238;" d="M416.607,191.568c-0.007-0.008,0.018-0.186,0.072-0.524c0.061-0.364,0.144-0.856,0.249-1.482
					c0.232-1.32,0.562-3.204,0.982-5.597c0.87-4.832,2.109-11.714,3.611-20.052l0.208,0.251c-10.862,0.014-24.259,0.03-38.73,0.048
					c-0.059,0.045,0.481-0.402,0.252-0.209l-0.001,0.007l-0.003,0.015l-0.005,0.029l-0.011,0.058l-0.021,0.116l-0.043,0.232
					l-0.086,0.463l-0.171,0.924c-0.114,0.615-0.228,1.227-0.341,1.838c-0.227,1.221-0.452,2.432-0.675,3.634
					c-0.447,2.403-0.887,4.765-1.318,7.078c-0.864,4.624-1.691,9.051-2.469,13.214l-0.232-0.279
					c11.41,0.046,21.059,0.085,27.892,0.112c3.394,0.027,6.087,0.049,7.967,0.064c0.905,0.013,1.613,0.023,2.126,0.03
					c0.225,0.006,0.405,0.011,0.553,0.015C416.537,191.558,416.603,191.563,416.607,191.568c0.004,0.005-0.053,0.01-0.171,0.015
					c-0.141,0.004-0.314,0.009-0.529,0.015c-0.503,0.007-1.197,0.017-2.084,0.03c-1.868,0.015-4.545,0.037-7.92,0.064
					c-6.867,0.027-16.564,0.066-28.03,0.112l-0.284,0.001l0.052-0.28c0.767-4.165,1.582-8.594,2.434-13.221
					c0.428-2.313,0.864-4.676,1.308-7.079c0.222-1.202,0.447-2.413,0.673-3.634c0.113-0.61,0.227-1.223,0.341-1.838l0.171-0.924
					l0.086-0.463l0.043-0.232l0.021-0.116l0.011-0.058l0.005-0.029l0.003-0.015l0.001-0.007c-0.229,0.188,0.312-0.264,0.26-0.217
					c14.471,0.018,27.868,0.035,38.73,0.048l0.256,0l-0.048,0.25c-1.598,8.37-2.916,15.279-3.841,20.129
					c-0.463,2.367-0.827,4.23-1.083,5.536c-0.124,0.607-0.221,1.084-0.292,1.437C416.652,191.415,416.614,191.577,416.607,191.568z"
					/>
			</g>
			<g>
				<circle style="fill:#263238;" cx="351.58" cy="214.611" r="1.551"/>
				<g>
					<path style="fill:#263238;" d="M379.716,214.611c0,0.144-6.299,0.26-14.068,0.26c-7.771,0-14.069-0.117-14.069-0.26
						s6.298-0.26,14.069-0.26C373.417,214.351,379.716,214.467,379.716,214.611z"/>
				</g>
			</g>
			<g>
				<path style="fill:#263238;" d="M416.607,226.69c-0.006-0.008,0.019-0.137,0.073-0.382c0.063-0.271,0.144-0.626,0.247-1.074
					c0.232-0.967,0.56-2.334,0.977-4.075c0.869-3.538,2.11-8.591,3.635-14.804l0.19,0.244c-10.568,0.017-24.589,0.04-39.938,0.065
					c-0.228,0.175,0.304-0.239,0.249-0.194l-0.001,0.005l-0.003,0.01l-0.005,0.021l-0.01,0.042l-0.021,0.084l-0.042,0.168
					l-0.085,0.335l-0.169,0.669l-0.336,1.332c-0.224,0.885-0.446,1.765-0.667,2.639c-0.442,1.748-0.879,3.473-1.309,5.17
					c-0.861,3.393-1.693,6.673-2.488,9.804l-0.237-0.304c11.625,0.045,21.575,0.084,28.658,0.111
					c3.516,0.029,6.318,0.052,8.28,0.068c0.942,0.014,1.682,0.025,2.22,0.033c0.234,0.007,0.424,0.012,0.579,0.016
					C416.534,226.679,416.603,226.684,416.607,226.69c0.004,0.006-0.056,0.011-0.179,0.016c-0.148,0.004-0.33,0.01-0.554,0.016
					c-0.528,0.008-1.253,0.019-2.177,0.033c-1.951,0.016-4.737,0.039-8.233,0.068c-7.117,0.027-17.115,0.066-28.797,0.111
					l-0.314,0.001l0.077-0.306c0.787-3.133,1.612-6.416,2.465-9.81c0.427-1.697,0.862-3.423,1.302-5.171
					c0.22-0.874,0.443-1.754,0.666-2.64l0.336-1.332l0.169-0.669l0.085-0.335l0.042-0.168l0.021-0.084l0.011-0.042l0.005-0.021
					l0.003-0.01l0.001-0.005c-0.055,0.04,0.479-0.375,0.256-0.199c15.349,0.025,29.37,0.048,39.938,0.064l0.253,0.001l-0.063,0.243
					c-1.617,6.234-2.932,11.305-3.853,14.855c-0.455,1.715-0.812,3.061-1.065,4.014c-0.119,0.431-0.213,0.772-0.285,1.033
					C416.65,226.584,416.613,226.698,416.607,226.69z"/>
			</g>
			<g>
				<path style="fill:#263238;" d="M413.463,172.443c0,0.144-5.932,0.26-13.249,0.26c-7.319,0-13.25-0.117-13.25-0.26
					c0-0.144,5.931-0.26,13.25-0.26C407.53,172.183,413.463,172.3,413.463,172.443z"/>
			</g>
			<g>
				<path style="fill:#263238;" d="M413.153,176.782c0,0.144-5.967,0.26-13.326,0.26c-7.362,0-13.327-0.117-13.327-0.26
					c0-0.144,5.966-0.26,13.327-0.26C407.186,176.522,413.153,176.639,413.153,176.782z"/>
			</g>
			<g>
				<path style="fill:#263238;" d="M412.378,180.966c0,0.144-5.759,0.26-12.861,0.26c-7.105,0-12.863-0.117-12.863-0.26
					s5.758-0.26,12.863-0.26C406.619,180.706,412.378,180.823,412.378,180.966z"/>
			</g>
			<g>
				<path style="fill:#263238;" d="M412.843,214.129c0,0.144-5.655,0.261-12.629,0.261c-6.977,0-12.63-0.117-12.63-0.261
					c0-0.144,5.654-0.26,12.63-0.26C407.188,213.868,412.843,213.985,412.843,214.129z"/>
			</g>
			<g>
				<path style="fill:#263238;" d="M411.293,218.933c0,0.144-4.822,0.26-10.77,0.26c-5.949,0-10.771-0.117-10.771-0.26
					c0-0.144,4.821-0.26,10.771-0.26C406.471,218.672,411.293,218.789,411.293,218.933z"/>
			</g>
		</g>
		<g>
			<path style="fill:#455A64;" d="M250.345,319.397c-0.487,2.814-13.829,32.337-5.21,32.337s43.271,0,43.271,0
				s-4.469-4.207,9.062-32.337H250.345z"/>
			<polygon style="fill:#455A64;" points="222.339,220.871 204.651,324.252 353.857,324.252 372.16,217.244 			"/>
			<polygon style="fill:#FAFAFA;" points="227.415,225.912 212.496,318.189 348.755,318.189 365.169,224.928 			"/>
			<polygon style="fill:#263238;" points="372.16,217.244 374.98,219.137 355.983,327.063 208.585,327.063 204.651,324.252 
				353.857,324.252 			"/>
			<path style="fill:#EBEBEB;" d="M226.057,234.309c0.053-0.325,137.552-0.521,137.552-0.521l1.56-8.861l-137.754,0.984
				L226.057,234.309"/>
			<g>
				<path style="fill:#263238;" d="M327.282,310.008c-0.006,0.005,0.004-0.081,0.03-0.254c0.032-0.2,0.072-0.456,0.123-0.777
					c0.121-0.723,0.291-1.737,0.509-3.031c0.462-2.69,1.124-6.541,1.948-11.331c1.702-9.705,4.068-23.204,6.755-38.528l0.037-0.212
					h0.216c3.424-0.001,7.003-0.002,10.651-0.003h0.081h0.313l-0.057,0.307c-4.163,22.593-7.819,42.438-9.922,53.854l-0.022,0.117
					l-0.117-0.001c-3.347-0.035-5.99-0.063-7.832-0.082c-0.866-0.014-1.543-0.025-2.035-0.033c-0.209-0.006-0.375-0.01-0.513-0.014
					C327.332,310.016,327.277,310.012,327.282,310.008c0.005-0.004,0.07-0.008,0.193-0.013c0.145-0.004,0.32-0.008,0.54-0.013
					c0.5-0.008,1.189-0.019,2.07-0.033c1.821-0.019,4.433-0.047,7.741-0.082l-0.139,0.116c2.054-11.426,5.624-31.287,9.688-53.897
					l0.256,0.307h-0.081c-3.648-0.001-7.227-0.002-10.651-0.004l0.253-0.212c-2.767,15.228-5.204,28.643-6.957,38.288
					c-0.889,4.807-1.605,8.672-2.104,11.371c-0.249,1.316-0.444,2.346-0.583,3.081c-0.066,0.333-0.119,0.599-0.16,0.806
					C327.31,309.906,327.288,310.003,327.282,310.008z"/>
			</g>
			<g>
				<path style="fill:#263238;" d="M309.965,310.008c-0.012,0.01,0.026-0.237,0.11-0.721c0.094-0.526,0.222-1.239,0.384-2.141
					c0.356-1.924,0.861-4.651,1.489-8.043c1.314-6.932,3.142-16.572,5.232-27.593l0.039-0.206l0.211,0
					c3.417-0.002,6.989-0.004,10.653-0.006h0.078h0.318l-0.063,0.311c-3.161,15.672-5.971,29.6-7.752,38.43l-0.026,0.13l-0.13-0.002
					c-3.324-0.039-5.967-0.07-7.825-0.092c-0.861-0.016-1.539-0.029-2.041-0.038C310.184,310.027,309.954,310.017,309.965,310.008
					c0.012-0.01,0.265-0.019,0.742-0.03c0.512-0.009,1.203-0.022,2.082-0.038c1.833-0.022,4.441-0.053,7.72-0.092l-0.156,0.128
					c1.736-8.839,4.473-22.781,7.553-38.469l0.255,0.311h-0.078c-3.664-0.002-7.236-0.004-10.653-0.006l0.25-0.206
					c-2.171,10.926-4.07,20.481-5.435,27.353c-0.692,3.408-1.249,6.147-1.642,8.081c-0.192,0.922-0.344,1.651-0.456,2.188
					c-0.051,0.229-0.092,0.417-0.126,0.574C309.99,309.934,309.971,310.003,309.965,310.008z"/>
			</g>
			<g>
				<path style="fill:#263238;" d="M292.648,310.008c-0.006,0.005,0.008-0.102,0.041-0.318c0.039-0.241,0.091-0.56,0.158-0.966
					c0.151-0.885,0.367-2.145,0.643-3.759c0.579-3.317,1.411-8.086,2.445-14.015c2.122-11.97,5.073-28.615,8.41-47.438l0.038-0.212
					l0.216,0c3.412-0.001,7.002-0.002,10.651-0.002h0.081h0.312l-0.056,0.307c-5.222,28.583-9.827,53.499-12.268,66.426l-0.02,0.107
					l-0.107-0.001c-3.405-0.033-6.048-0.058-7.87-0.076c-0.864-0.013-1.531-0.023-2.01-0.03
					C292.863,310.023,292.648,310.008,292.648,310.008s0.251-0.015,0.714-0.024c0.487-0.007,1.165-0.017,2.043-0.03
					c1.803-0.017,4.418-0.043,7.786-0.075l-0.127,0.106c2.287-12.955,6.788-37.89,12.01-66.473l0.256,0.307h-0.081
					c-3.648-0.001-7.238-0.002-10.651-0.003l0.254-0.212c-3.416,18.727-6.437,35.287-8.609,47.196
					c-1.101,5.945-1.987,10.728-2.603,14.055c-0.309,1.636-0.549,2.913-0.718,3.809c-0.082,0.418-0.146,0.747-0.195,0.995
					C292.681,309.884,292.655,310.002,292.648,310.008z"/>
			</g>
			<g>
				<path style="fill:#263238;" d="M275.332,310.008c-0.011,0.01,0.01-0.162,0.062-0.5c0.062-0.385,0.143-0.883,0.243-1.502
					c0.234-1.379,0.56-3.299,0.964-5.684c0.869-4.949,2.075-11.822,3.47-19.766l0.036-0.205l0.21,0
					c3.334-0.003,6.932-0.007,10.653-0.01h0.079h0.315l-0.059,0.309c-2.071,10.798-3.937,20.525-5.254,27.392l-0.028,0.147
					l-0.147-0.002c-3.266-0.042-5.908-0.076-7.793-0.101c-0.859-0.018-1.545-0.032-2.063-0.043
					C275.554,310.03,275.318,310.019,275.332,310.008c0.013-0.011,0.275-0.022,0.761-0.034c0.53-0.011,1.23-0.025,2.108-0.043
					c1.856-0.024,4.458-0.059,7.674-0.101l-0.175,0.145c1.277-6.874,3.085-16.612,5.093-27.422l0.256,0.309h-0.079
					c-3.721-0.004-7.319-0.007-10.653-0.01l0.246-0.205c-1.479,7.851-2.758,14.645-3.679,19.537
					c-0.466,2.402-0.841,4.335-1.111,5.723c-0.129,0.638-0.232,1.151-0.312,1.548C275.387,309.808,275.343,309.998,275.332,310.008z
					"/>
			</g>
			<g>
				<path style="fill:#263238;" d="M258.015,310.008c-0.006,0.005,0.001-0.066,0.02-0.209c0.025-0.172,0.056-0.384,0.095-0.646
					c0.096-0.612,0.23-1.455,0.399-2.529c0.367-2.257,0.891-5.474,1.542-9.474c1.357-8.138,3.243-19.457,5.392-32.347l0.035-0.213
					l0.217,0c3.435-0.001,7.003-0.003,10.651-0.005h0.081h0.311l-0.054,0.305c-3.3,18.631-6.217,35.1-7.996,45.143l-0.022,0.126
					l-0.126-0.001c-3.328-0.037-5.971-0.066-7.823-0.087c-0.865-0.015-1.544-0.027-2.042-0.036
					C258.236,310.026,258.004,310.017,258.015,310.008c0.005-0.005,0.071-0.009,0.195-0.014c0.147-0.004,0.326-0.009,0.544-0.015
					c0.507-0.009,1.199-0.021,2.079-0.036c1.829-0.021,4.439-0.05,7.725-0.087l-0.149,0.125c1.731-10.052,4.569-26.534,7.78-45.181
					l0.256,0.305h-0.081c-3.648-0.002-7.216-0.003-10.651-0.005l0.252-0.213c-2.231,12.797-4.189,24.033-5.598,32.112
					c-0.716,4.017-1.292,7.248-1.696,9.514c-0.2,1.094-0.358,1.954-0.472,2.578c-0.053,0.274-0.096,0.496-0.131,0.675
					C258.04,309.922,258.021,310.003,258.015,310.008z"/>
			</g>
			<g>
				<path style="fill:#263238;" d="M240.698,310.008c-0.006,0.005,0.006-0.093,0.035-0.289c0.035-0.223,0.081-0.513,0.14-0.881
					c0.135-0.812,0.327-1.961,0.573-3.433c0.518-3.036,1.261-7.393,2.186-12.811c1.902-10.954,4.548-26.189,7.545-43.445
					l0.037-0.213l0.217,0c3.417-0.001,7.002-0.002,10.651-0.003h0.081h0.311l-0.055,0.307c-4.654,25.915-8.774,48.576-11.044,60.791
					l-0.021,0.111l-0.111-0.001c-3.384-0.034-6.027-0.06-7.856-0.078c-0.864-0.013-1.535-0.024-2.019-0.031
					c-0.207-0.005-0.372-0.009-0.507-0.013C240.748,310.016,240.694,310.012,240.698,310.008c0.005-0.004,0.068-0.008,0.189-0.012
					c0.141-0.003,0.314-0.008,0.532-0.013c0.492-0.008,1.174-0.018,2.053-0.031c1.809-0.018,4.423-0.044,7.77-0.078l-0.132,0.11
					c2.121-12.242,6.142-34.921,10.796-60.836l0.256,0.306h-0.081c-3.648-0.001-7.234-0.002-10.651-0.003l0.253-0.213
					c-3.076,17.16-5.793,32.311-7.746,43.204c-0.991,5.435-1.788,9.806-2.343,12.851c-0.277,1.493-0.494,2.659-0.648,3.483
					c-0.074,0.38-0.132,0.681-0.176,0.91C240.729,309.894,240.705,310.002,240.698,310.008z"/>
			</g>
			<path style="fill:#263238;" d="M233.167,230.068c0,0.697-0.565,1.262-1.262,1.262c-0.697,0-1.262-0.565-1.262-1.262
				c0-0.697,0.565-1.262,1.262-1.262C232.602,228.805,233.167,229.37,233.167,230.068z"/>
			<circle style="fill:#263238;" cx="238.11" cy="230.068" r="1.262"/>
			<path style="fill:#263238;" d="M245.578,230.068c0,0.697-0.565,1.262-1.262,1.262c-0.697,0-1.262-0.565-1.262-1.262
				c0-0.697,0.565-1.262,1.262-1.262C245.012,228.805,245.578,229.37,245.578,230.068z"/>
			<g>
				<path style="fill:#263238;" d="M223.382,310.008c-0.012,0.01,0.025-0.253,0.106-0.766c0.091-0.555,0.216-1.312,0.373-2.271
					c0.346-2.036,0.837-4.927,1.448-8.522c1.278-7.336,3.055-17.536,5.083-29.179l0.037-0.21l0.215,0
					c3.434-0.002,6.999-0.004,10.652-0.005h0.08h0.313l-0.057,0.307c-3.093,16.66-5.836,31.437-7.552,40.675l-0.024,0.13
					l-0.13-0.001c-3.327-0.038-5.97-0.069-7.825-0.09c-0.862-0.016-1.54-0.028-2.041-0.037
					C223.601,310.026,223.37,310.017,223.382,310.008c0.006-0.005,0.072-0.009,0.196-0.014c0.149-0.004,0.327-0.009,0.545-0.015
					c0.51-0.009,1.201-0.021,2.08-0.037c1.831-0.021,4.44-0.052,7.723-0.09l-0.154,0.128c1.669-9.247,4.338-24.038,7.347-40.712
					l0.256,0.307h-0.08c-3.653-0.002-7.218-0.004-10.652-0.005l0.251-0.21c-2.11,11.549-3.959,21.667-5.288,28.943
					c-0.675,3.612-1.218,6.516-1.601,8.562c-0.188,0.98-0.337,1.753-0.446,2.319c-0.05,0.244-0.09,0.444-0.124,0.608
					C223.406,309.93,223.388,310.003,223.382,310.008z"/>
			</g>
			<g>
				<g>
					<polygon style="fill:#E8505B;" points="340.269,269.314 283.19,269.314 286.447,250.149 343.933,250.149 					"/>
				</g>
				<path style="fill:#E8505B;" d="M283.19,269.314l-1.108,6.685c0,0,7.493-6.95,7.377-6.95c-0.117,0-6.224,0-6.224,0"/>
				<g>
					<path style="fill:#FAFAFA;" d="M335.317,256.811c0,0.144-9.507,0.26-21.231,0.26c-11.729,0-21.234-0.117-21.234-0.26
						c0-0.144,9.505-0.26,21.234-0.26C325.811,256.551,335.317,256.667,335.317,256.811z"/>
				</g>
				<g>
					<path style="fill:#FAFAFA;" d="M334.757,261.436c0,0.144-9.507,0.26-21.231,0.26c-11.729,0-21.233-0.117-21.233-0.26
						c0-0.144,9.505-0.26,21.233-0.26C325.25,261.176,334.757,261.292,334.757,261.436z"/>
				</g>
			</g>
		</g>
	</g>
</g>
<g id="Desk">
	<g>
		<g>
			<rect x="265.496" y="358.352" style="fill:#263238;" width="162.617" height="94.889"/>
			<rect x="265.496" y="358.352" style="fill:#455A64;" width="74.081" height="94.889"/>
			<g>
				<g>
					<path style="fill:#263238;" d="M332.031,390.583c0,0-0.013-0.17-0.02-0.484c-0.005-0.335-0.012-0.793-0.02-1.381
						c-0.011-1.23-0.027-2.999-0.047-5.265c-0.024-4.566-0.058-11.13-0.101-19.23l0.187,0.187
						c-15.392,0.019-36.42,0.045-59.59,0.073c-0.235,0.233,0.312-0.318,0.256-0.258v0.007v0.014v0.027v0.054v0.109v0.217v0.433
						l0,0.865l0,1.723c0,1.146,0,2.286-0.001,3.419c-0.001,2.266-0.002,4.505-0.002,6.71c-0.003,4.41-0.006,8.686-0.009,12.78
						l-0.248-0.248c17.281,0.048,32.142,0.089,42.711,0.118c5.276,0.029,9.479,0.052,12.39,0.068
						c1.431,0.013,2.543,0.024,3.324,0.031c0.363,0.006,0.649,0.011,0.865,0.015C331.923,390.573,332.026,390.578,332.031,390.583
						c0.005,0.005-0.087,0.01-0.273,0.015c-0.209,0.004-0.485,0.009-0.836,0.015c-0.769,0.007-1.864,0.018-3.273,0.031
						c-2.898,0.016-7.082,0.039-12.334,0.068c-10.61,0.029-25.53,0.07-42.879,0.118l-0.248,0.001l0-0.249
						c-0.003-4.094-0.006-8.37-0.009-12.78c-0.001-2.205-0.002-4.444-0.002-6.71c0-1.133,0-2.273-0.001-3.419l0-1.723v-0.865v-0.433
						v-0.217v-0.109v-0.054v-0.027v-0.014v-0.007c-0.057,0.053,0.495-0.496,0.264-0.263c23.17,0.028,44.199,0.054,59.59,0.073
						l0.188,0l-0.001,0.187c-0.042,8.148-0.077,14.75-0.101,19.344c-0.02,2.248-0.036,4.003-0.047,5.223
						c-0.009,0.573-0.015,1.02-0.02,1.347C332.044,390.439,332.037,390.59,332.031,390.583z"/>
				</g>
				<g>
					<path style="fill:#263238;" d="M304.768,377.403c-0.044,0.001-0.057-0.225-0.178-0.594c-0.119-0.363-0.385-0.883-0.935-1.274
						c-0.532-0.393-1.387-0.6-2.203-0.287c-0.81,0.289-1.501,1.152-1.493,2.155c-0.009,1.003,0.683,1.866,1.493,2.155
						c0.816,0.314,1.671,0.106,2.204-0.287c0.55-0.391,0.816-0.912,0.935-1.274C304.711,377.629,304.725,377.402,304.768,377.403
						c0.027-0.002,0.086,0.227,0.019,0.643c-0.067,0.407-0.303,1.024-0.908,1.517c-0.584,0.494-1.591,0.797-2.591,0.445
						c-0.99-0.319-1.862-1.371-1.85-2.606c-0.012-1.235,0.86-2.286,1.85-2.606c0.999-0.352,2.007-0.049,2.59,0.445
						c0.605,0.494,0.842,1.11,0.909,1.517C304.854,377.176,304.796,377.405,304.768,377.403z"/>
				</g>
			</g>
			<g>
				<g>
					<path style="fill:#263238;" d="M332.031,419.599c0,0-0.013-0.17-0.02-0.484c-0.005-0.335-0.012-0.793-0.02-1.381
						c-0.011-1.23-0.027-2.999-0.047-5.265c-0.024-4.566-0.058-11.13-0.101-19.23l0.187,0.187
						c-15.392,0.019-36.42,0.045-59.59,0.073c-0.235,0.233,0.312-0.318,0.256-0.258v0.007v0.013v0.027v0.054v0.109v0.217v0.433
						l0,0.865l0,1.723c0,1.146,0,2.286-0.001,3.419c-0.001,2.266-0.002,4.505-0.002,6.71c-0.003,4.41-0.006,8.686-0.009,12.78
						l-0.248-0.248c17.281,0.048,32.142,0.089,42.711,0.118c5.276,0.029,9.479,0.052,12.39,0.068
						c1.431,0.013,2.543,0.024,3.324,0.031c0.363,0.006,0.649,0.011,0.865,0.015C331.923,419.589,332.026,419.594,332.031,419.599
						c0.005,0.005-0.087,0.01-0.273,0.015c-0.209,0.004-0.485,0.009-0.836,0.015c-0.769,0.007-1.864,0.018-3.273,0.031
						c-2.898,0.016-7.082,0.039-12.334,0.068c-10.61,0.029-25.53,0.07-42.879,0.118l-0.248,0.001l0-0.249
						c-0.003-4.094-0.006-8.37-0.009-12.78c-0.001-2.205-0.002-4.444-0.002-6.71c0-1.133,0-2.273-0.001-3.419l0-1.723v-0.865v-0.433
						v-0.217v-0.109v-0.054v-0.027v-0.013v-0.007c-0.057,0.053,0.495-0.496,0.264-0.263c23.17,0.028,44.199,0.054,59.59,0.073
						l0.188,0l-0.001,0.187c-0.042,8.148-0.077,14.75-0.101,19.344c-0.02,2.248-0.036,4.003-0.047,5.223
						c-0.009,0.573-0.015,1.02-0.02,1.347C332.044,419.454,332.037,419.605,332.031,419.599z"/>
				</g>
				<g>
					<path style="fill:#263238;" d="M304.768,406.419c-0.044,0.001-0.057-0.225-0.178-0.594c-0.119-0.363-0.385-0.883-0.935-1.274
						c-0.532-0.393-1.387-0.6-2.203-0.287c-0.81,0.289-1.501,1.152-1.493,2.155c-0.009,1.004,0.683,1.866,1.493,2.155
						c0.816,0.314,1.671,0.106,2.204-0.287c0.55-0.391,0.816-0.912,0.935-1.274C304.711,406.644,304.725,406.418,304.768,406.419
						c0.027-0.002,0.086,0.227,0.019,0.643c-0.067,0.407-0.303,1.024-0.908,1.518c-0.584,0.494-1.591,0.797-2.591,0.445
						c-0.99-0.319-1.862-1.371-1.85-2.606c-0.012-1.235,0.86-2.286,1.85-2.606c0.999-0.352,2.007-0.049,2.59,0.445
						c0.605,0.494,0.842,1.11,0.909,1.517C304.854,406.192,304.796,406.421,304.768,406.419z"/>
				</g>
			</g>
			<g>
				<g>
					<path style="fill:#263238;" d="M332.031,448.614c0,0-0.013-0.17-0.02-0.484c-0.005-0.335-0.012-0.793-0.02-1.381
						c-0.011-1.23-0.027-2.999-0.047-5.265c-0.024-4.566-0.058-11.13-0.101-19.23l0.187,0.187
						c-15.392,0.019-36.42,0.045-59.59,0.073c-0.235,0.233,0.312-0.318,0.256-0.258v0.007v0.014v0.027v0.054v0.108v0.217v0.433
						l0,0.865l0,1.724c0,1.146,0,2.286-0.001,3.419c-0.001,2.266-0.002,4.505-0.002,6.71c-0.003,4.41-0.006,8.686-0.009,12.78
						l-0.248-0.248c17.281,0.048,32.142,0.089,42.711,0.118c5.276,0.029,9.479,0.052,12.39,0.068
						c1.431,0.013,2.543,0.024,3.324,0.031c0.363,0.006,0.649,0.011,0.865,0.015C331.923,448.604,332.026,448.609,332.031,448.614
						c0.005,0.005-0.087,0.01-0.273,0.015c-0.209,0.004-0.485,0.009-0.836,0.015c-0.769,0.007-1.864,0.018-3.273,0.031
						c-2.898,0.016-7.082,0.039-12.334,0.068c-10.61,0.029-25.53,0.07-42.879,0.118l-0.248,0.001l0-0.249
						c-0.003-4.094-0.006-8.37-0.009-12.78c-0.001-2.205-0.002-4.444-0.002-6.71c0-1.133,0-2.273-0.001-3.419l0-1.724v-0.865v-0.433
						v-0.217v-0.108v-0.054v-0.027v-0.014v-0.007c-0.057,0.053,0.495-0.496,0.264-0.263c23.17,0.028,44.199,0.054,59.59,0.073
						l0.188,0l-0.001,0.187c-0.042,8.148-0.077,14.751-0.101,19.344c-0.02,2.248-0.036,4.003-0.047,5.223
						c-0.009,0.573-0.015,1.02-0.02,1.347C332.044,448.47,332.037,448.621,332.031,448.614z"/>
				</g>
				<g>
					<path style="fill:#263238;" d="M304.768,435.434c-0.044,0.001-0.057-0.225-0.178-0.594c-0.119-0.363-0.385-0.883-0.935-1.274
						c-0.532-0.393-1.387-0.6-2.203-0.287c-0.81,0.289-1.501,1.152-1.493,2.155c-0.009,1.003,0.683,1.866,1.493,2.155
						c0.816,0.314,1.671,0.106,2.204-0.287c0.55-0.391,0.816-0.912,0.935-1.274C304.711,435.66,304.725,435.433,304.768,435.434
						c0.027-0.002,0.086,0.227,0.019,0.643c-0.067,0.407-0.303,1.024-0.908,1.518c-0.584,0.494-1.591,0.797-2.591,0.445
						c-0.99-0.319-1.862-1.371-1.85-2.607c-0.012-1.235,0.86-2.286,1.85-2.606c0.999-0.352,2.007-0.049,2.59,0.445
						c0.605,0.494,0.842,1.11,0.909,1.518C304.854,435.207,304.796,435.436,304.768,435.434z"/>
				</g>
			</g>
		</g>
		<rect x="48.508" y="358.352" style="fill:#263238;" width="136.79" height="94.889"/>
		<rect x="43.264" y="351.734" style="fill:#263238;" width="390.754" height="9.017"/>
		<rect x="48.508" y="360.751" style="fill:#455A64;" width="12.116" height="92.49"/>
	</g>
</g>
<g id="Character">
	<g>
		<g>
			<g>
				<path style="fill:#263238;" d="M200.431,208.956c-0.045,0-0.058-0.414-0.167-1.147c-0.125-0.721-0.333-1.8-0.992-2.921
					c-0.339-0.537-0.8-1.119-1.462-1.402c-0.651-0.311-1.48-0.165-2.085,0.395c-1.24,1.119-1.772,3.116-1.79,5.073
					c0.017,1.958,0.55,3.956,1.79,5.074c0.605,0.56,1.435,0.706,2.086,0.395c0.662-0.283,1.123-0.865,1.462-1.402
					c0.66-1.121,0.868-2.199,0.992-2.92C200.373,209.37,200.385,208.956,200.431,208.956c0.026-0.001,0.083,0.415,0.034,1.17
					c-0.067,0.745-0.217,1.863-0.876,3.082c-0.345,0.586-0.816,1.245-1.605,1.611c-0.387,0.181-0.852,0.266-1.315,0.19
					c-0.462-0.079-0.895-0.308-1.256-0.614c-1.439-1.28-1.971-3.378-2.001-5.441c0.03-2.062,0.562-4.16,2.001-5.439
					c0.361-0.305,0.794-0.535,1.256-0.613c0.463-0.076,0.928,0.01,1.315,0.19c0.789,0.366,1.26,1.025,1.605,1.611
					c0.659,1.219,0.809,2.337,0.876,3.083C200.514,208.542,200.457,208.957,200.431,208.956z"/>
			</g>
			<g>
				<g>
					<g>
						<path style="fill:#FFBE9D;" d="M157.256,189.45l-2.958,59.919l25.653,2.416l1.418-14.542c0,0,9.048,2.236,11.797-6.136
							c1.756-5.348,3.318-47.233,3.318-47.233L157.256,189.45z"/>
					</g>
					<g>
						<path style="fill:#263238;" d="M202.016,190.053c-2.187,5.211-10.447,9.672-10.447,9.672l-1.37,13.264
							c-1.087-0.174-3.685-0.032-3.685-0.032c0.661-6.224-7.355-5.01-8.171-0.765c-0.785,4.081,3.864,6.805,3.864,6.805
							c-3.208,4.923-4.509,7.52-9.062,12.133c-4.928,4.993-7.578,5.397-12.664,5.247l-5.605-0.259c0,0-1.995-4.788-3.458-16.098
							c-0.704-5.441-4.951-12.569-3.742-21.415c3.435-25.137,31.248-20.673,31.248-20.673
							C189.364,169.845,207.16,177.796,202.016,190.053z"/>
					</g>
				</g>
			</g>
			<g>
				<path style="fill:#263238;" d="M200.431,209.075c0.004,0.144-2.573,0.391-5.756,0.551c-3.184,0.161-5.774,0.175-5.786,0.031
					c-0.012-0.143,2.565-0.39,5.757-0.551C197.836,208.945,200.426,208.931,200.431,209.075z"/>
			</g>
		</g>
		<g>
			<path style="fill:#FFBE9D;" d="M282.434,279.465l-9.352,5.789l-3.431,8.016v-6.977c0,0,2.54-2.969,4.618-5.196
				c2.078-2.227,0.594-3.711,0-4.453c-0.594-0.742-9.544,9.649-9.544,9.649v5.973c-4.163-5.13-6.097-3.367-6.739-2.434
				c-0.641,0.933,6.739,7.884,6.739,7.884v2.127l-36.662,19.716l-9.65-24.007l-19.715,10.338l11.766,28.49
				c3.456,8.368,13.523,11.734,21.317,7.128l43.145-25.498l2.878-4.787c0.994-1.653,1.579-3.52,1.708-5.445l1.438-21.564
				C283.622,282.582,282.434,279.465,282.434,279.465z"/>
			<g>
				<path style="fill:#EB996E;" d="M228.245,319.568c0.135,0.05-0.567,2.28-1.567,4.98c-1.001,2.701-1.921,4.85-2.056,4.8
					c-0.135-0.05,0.567-2.28,1.567-4.981C227.19,321.668,228.11,319.518,228.245,319.568z"/>
			</g>
			<g>
				<path style="fill:#EB996E;" d="M280.95,284.215c0.027,0.084-0.685,0.272-1.704,0.768c-0.504,0.253-1.063,0.632-1.59,1.151
					c-0.512,0.505-0.881,1.242-1.22,2.05c-1.368,3.272-2.585,5.884-2.717,5.827c-0.132-0.056,0.867-2.754,2.238-6.031
					c0.345-0.82,0.755-1.628,1.366-2.191c0.588-0.543,1.214-0.915,1.769-1.14C280.208,284.215,280.936,284.163,280.95,284.215z"/>
			</g>
			<g>
				<path style="fill:#EB996E;" d="M280.858,287.626c-0.008,0.06-0.473-0.024-0.785,0.527c-0.29,0.556-0.668,1.442-1.045,2.381
					c-0.758,1.903-1.171,3.523-1.318,3.494c-0.136-0.021,0.055-1.729,0.833-3.685c0.397-0.98,0.804-1.807,1.23-2.404
					c0.232-0.302,0.563-0.444,0.779-0.437C280.776,287.505,280.872,287.599,280.858,287.626z"/>
			</g>
		</g>
		<g>
			<g>
				<g>
					<g>
						<g>
							<path style="fill:#E8505B;" d="M192.808,302.235l4.19,14.193l26.589-12.038c-0.955-2.97-5.354-16.208-13.772-37.211
								c-4.691-11.703-15.125-20.148-27.562-22.217c-8.702-1.447-18.169-2.577-25.46-2.497c-14.91,0.165-27.735,10.684-30.684,25.3
								c-2.251,11.157,1.691,18.52-0.85,42.928l-0.809,61.364l70.988,2.609L192.808,302.235z"/>
						</g>
					</g>
				</g>
				<path style="fill:#E8505B;" d="M128.557,310.085c0,0-9.862,0.58-13.748-6.892c0,0,10.633-39.304,14.341-43.933L128.557,310.085z
					"/>
				<g>
					<path style="fill:#263238;" d="M211.158,271.181c0.015,0.03-0.268,0.195-0.843,0.455c-0.588,0.215-1.499,0.484-2.705,0.51
						c-1.203,0.037-2.666-0.168-4.309-0.544c-1.643-0.371-3.474-0.922-5.518-1.26c-1.02-0.188-2.103-0.118-3.22-0.175
						c-1.114,0.153-2.284,0.208-3.451,0.571c-2.352,0.591-4.764,1.638-7.177,2.987c-2.426,1.327-4.895,2.888-7.525,4.424
						c-2.63,1.523-5.443,3.059-8.611,3.987c-3.15,0.935-6.54,1.049-9.55,0.153c-3.016-0.886-5.574-2.528-7.807-4.231
						c-2.231-1.725-4.174-3.544-6.007-5.206c-1.817-1.674-3.584-3.13-5.296-4.324c-3.415-2.412-6.663-3.549-8.969-3.82
						c-2.316-0.249-3.611,0.08-3.625-0.035c-0.007-0.035,0.309-0.117,0.924-0.24c0.616-0.114,1.544-0.189,2.74-0.128
						c2.389,0.15,5.802,1.227,9.343,3.614c1.773,1.178,3.605,2.633,5.459,4.29c1.863,1.639,3.814,3.421,6.012,5.086
						c2.198,1.645,4.672,3.197,7.507,4.014c2.827,0.824,5.97,0.717,8.978-0.172c3.022-0.883,5.778-2.372,8.39-3.87
						c2.613-1.51,5.104-3.062,7.581-4.386c2.461-1.345,4.964-2.401,7.427-2.981c1.218-0.357,2.455-0.402,3.623-0.536
						c1.177,0.076,2.318,0.034,3.375,0.252c2.11,0.399,3.925,1.003,5.535,1.421c1.607,0.424,3.012,0.678,4.169,0.704
						C209.943,271.792,211.122,271.062,211.158,271.181z"/>
				</g>
				<g>
					<path style="fill:#263238;" d="M193.284,320.151c-0.102,0.16-1.495-1.241-4.413-1.605c-1.439-0.196-3.181-0.125-5.076,0.279
						c-1.903,0.387-3.957,1.071-6.2,1.634c-4.523,1.184-8.857,0.859-11.793,0.161c-2.965-0.699-4.61-1.652-4.562-1.749
						c0.063-0.165,1.791,0.533,4.706,1.027c2.899,0.494,7.038,0.69,11.398-0.45c2.186-0.548,4.279-1.215,6.269-1.566
						c1.987-0.369,3.862-0.37,5.377-0.063c1.524,0.288,2.669,0.876,3.36,1.384C193.046,319.716,193.326,320.109,193.284,320.151z"/>
				</g>
				<g>
					<path style="fill:#263238;" d="M194.017,356.788c0.045,0.047-0.264,0.455-0.939,1.085c-0.681,0.617-1.732,1.468-3.219,2.225
						c-1.478,0.747-3.421,1.428-5.674,1.44c-2.25,0.031-4.642-0.639-6.964-1.556c-2.33-0.908-4.466-1.928-6.476-2.503
						c-2.018-0.584-3.918-0.77-5.484-0.642c-1.57,0.134-2.777,0.601-3.542,1.042c-0.776,0.43-1.145,0.782-1.212,0.71
						c-0.034-0.029,0.239-0.485,0.991-1.05c0.739-0.574,2.005-1.193,3.678-1.433c1.666-0.235,3.692-0.113,5.822,0.448
						c2.147,0.561,4.307,1.567,6.6,2.458c2.281,0.901,4.518,1.545,6.589,1.567c2.068,0.041,3.907-0.517,5.355-1.146
						C192.448,358.113,193.897,356.639,194.017,356.788z"/>
				</g>
			</g>
			<g style="opacity:0.3;">
				<path d="M116.983,310.772c9.298,1.902,18.845-0.016,28.318-0.578c5.744-0.341,12.116-0.962,16.66,2.569
					c3.603,2.799,5.053,7.506,6.092,11.949c3.963,16.934,4.684,32.066,5.575,49.435l-45.993-0.993L116.983,310.772z"/>
			</g>
			<polygon style="opacity:0.3;" points="129.151,278.875 131.143,307.555 125.076,307.555 			"/>
		</g>
		<path style="fill:#263238;" d="M142.074,372.057l91.294,3.232c14.82,0.525,26.495,12.811,26.264,27.638l-0.807,51.817h-33.477
			l-2.155-44.677l-81.119-2.133V372.057z"/>
	</g>
	<g>
		<g>
			<rect x="163.706" y="419.428" style="fill:#455A64;" width="8.979" height="32.87"/>
			<g>
				<path style="fill:#455A64;" d="M88.359,314.994v79.202c0,10.387,8.421,18.808,18.808,18.808h52.74v-98.009
					c0-4.629-3.753-8.382-8.382-8.382H96.741C92.112,306.611,88.359,310.364,88.359,314.994z"/>
				<path style="fill:#455A64;" d="M230.889,419.428H102.454l0,0c0-7.699,6.242-13.941,13.941-13.941h100.553
					C224.648,405.487,230.889,411.728,230.889,419.428L230.889,419.428z"/>
			</g>
			<g>
				<path style="fill:#263238;" d="M159.906,403.638c0,0,0.126,0.844-0.2,2.33c-0.32,1.456-1.256,3.618-3.445,5.303
					c-1.084,0.822-2.461,1.528-4.058,1.797c-0.79,0.16-1.643,0.163-2.473,0.169c-0.841,0.004-1.706,0.009-2.592,0.014
					c-3.555,0.01-7.449,0.021-11.54,0.033c-8.159-0.021-15.541-0.04-20.968-0.054c-2.631-0.031-4.785-0.057-6.354-0.076
					c-0.704-0.019-1.276-0.035-1.728-0.047c-0.395-0.017-0.602-0.034-0.602-0.052c0-0.018,0.207-0.036,0.602-0.053
					c0.451-0.013,1.023-0.03,1.728-0.051c1.569-0.022,3.723-0.052,6.354-0.089c5.427-0.026,12.81-0.06,20.968-0.099
					c4.091,0.003,7.985,0.006,11.54,0.008c0.886,0.003,1.751,0.006,2.592,0.008c0.847,0.002,1.637,0.008,2.398-0.136
					c1.528-0.238,2.854-0.894,3.911-1.667c2.133-1.582,3.097-3.648,3.469-5.059C159.889,404.48,159.84,403.633,159.906,403.638z"/>
			</g>
			<g>
				<path style="fill:#263238;" d="M176.075,419.704c0,0.144-3.528,0.26-7.878,0.26c-4.352,0-7.879-0.117-7.879-0.26
					s3.527-0.26,7.879-0.26C172.547,419.444,176.075,419.56,176.075,419.704z"/>
			</g>
		</g>
		<g>
			<path style="fill:#455A64;" d="M215.152,413.695c-0.036,0.005-0.118-0.329-0.244-0.97c-0.125-0.641-0.293-1.588-0.498-2.81
				c-0.41-2.443-0.971-5.983-1.641-10.36c-0.358-2.178-0.647-4.61-1.133-7.138c-0.124-0.631-0.25-1.272-0.378-1.923
				c-0.187-0.637-0.376-1.284-0.569-1.941c-0.096-0.328-0.192-0.659-0.289-0.992c-0.127-0.323-0.255-0.648-0.384-0.975
				c-0.263-0.652-0.505-1.324-0.794-1.984c-1.212-2.621-2.807-5.215-4.784-7.653c-1.995-2.425-4.44-4.611-7.187-6.479
				c-2.752-1.865-5.711-3.298-8.717-4.199c-2.996-0.905-6.001-1.486-8.891-1.525c-5.822-0.127-11.119-0.092-15.54-0.162
				c-4.428-0.047-8.011-0.103-10.488-0.165c-1.238-0.031-2.2-0.064-2.851-0.098c-0.652-0.034-0.994-0.069-0.994-0.105
				c0-0.036,0.342-0.071,0.994-0.105c0.652-0.034,1.613-0.067,2.851-0.098c2.476-0.062,6.059-0.118,10.488-0.166
				c4.434-0.024,9.687-0.136,15.571-0.06c2.972,0.016,6.072,0.59,9.164,1.51c3.102,0.915,6.158,2.386,8.995,4.309
				c2.833,1.925,5.348,4.186,7.393,6.693c2.027,2.52,3.651,5.204,4.873,7.911c0.292,0.681,0.534,1.375,0.798,2.048
				c0.128,0.338,0.256,0.673,0.383,1.007c0.096,0.343,0.192,0.684,0.287,1.023c0.189,0.676,0.375,1.343,0.559,2
				c0.122,0.67,0.243,1.33,0.361,1.979c0.458,2.592,0.699,4.987,1.012,7.185c0.577,4.391,1.026,7.946,1.313,10.407
				c0.144,1.23,0.247,2.187,0.305,2.837C215.174,413.346,215.187,413.69,215.152,413.695z"/>
		</g>
	</g>
</g>
<g id="Plant">
	<g>
		<g>
			<path style="fill:#E8505B;" d="M53.066,317.858c0,0-1.612,4.536,1.488,7.813h6.479C61.034,325.671,60.431,318.347,53.066,317.858
				z"/>
			<path style="opacity:0.4;" d="M53.066,317.858c0,0-1.612,4.536,1.488,7.813h6.479C61.034,325.671,60.431,318.347,53.066,317.858z
				"/>
			<path style="fill:#E8505B;" d="M64.057,308.533c-0.267-0.318-5.784,8.317-2.684,17.138h6.075
				C67.449,325.671,69.826,315.412,64.057,308.533z"/>
			<path style="fill:#E8505B;" d="M74.832,317.858c0,0-6.937,0.33-7.383,7.813h6.075C73.524,325.671,76.18,321.935,74.832,317.858z"
				/>
			<path style="fill:#455A64;" d="M54.053,325.326c0,0-7.025,4.553-5.464,13.529c1.561,8.976,11.057,12.879,11.057,12.879h10.537
				c0,0,10.716-4.711,10.456-14.468c-0.26-9.757-6.646-11.794-6.646-11.794L54.053,325.326z"/>
		</g>
		<g>
			<path style="fill:#263238;" d="M80.604,336.177c-0.05,0.028-0.199-0.491-0.872-1.085c-0.655-0.58-1.928-1.165-3.516-1.008
				c-1.602,0.148-3.321,1.09-5.146,2.237c-0.927,0.561-1.92,1.157-3.059,1.574c-1.129,0.431-2.443,0.594-3.715,0.371
				c-2.568-0.433-4.619-1.813-6.54-2.738c-1.904-0.962-3.809-1.532-5.393-1.298c-1.59,0.205-2.729,0.983-3.285,1.667
				c-0.581,0.688-0.656,1.223-0.715,1.198c-0.017-0.004,0.005-0.129,0.065-0.368c0.076-0.232,0.207-0.578,0.491-0.955
				c0.538-0.762,1.714-1.642,3.392-1.907c1.694-0.297,3.705,0.277,5.655,1.231c1.964,0.924,3.997,2.255,6.412,2.656
				c1.197,0.207,2.384,0.064,3.46-0.336c1.08-0.388,2.056-0.958,2.985-1.506c1.833-1.121,3.65-2.083,5.36-2.193
				c1.71-0.119,3.033,0.563,3.687,1.226c0.336,0.333,0.52,0.655,0.625,0.876C80.588,336.047,80.619,336.172,80.604,336.177z"/>
		</g>
		<g>
			<path style="fill:#263238;" d="M80.748,338.529c-0.05,0.028-0.196-0.486-0.858-1.08c-0.645-0.579-1.903-1.169-3.477-1.012
				c-1.587,0.147-3.286,1.089-5.09,2.235c-0.916,0.56-1.897,1.157-3.025,1.575c-1.118,0.432-2.422,0.596-3.683,0.372
				c-2.546-0.435-4.572-1.816-6.471-2.741c-1.883-0.961-3.77-1.531-5.338-1.294c-1.575,0.207-2.697,0.991-3.243,1.672
				c-0.571,0.686-0.644,1.216-0.703,1.192c-0.017-0.004,0.004-0.128,0.063-0.365c0.073-0.23,0.202-0.574,0.48-0.95
				c0.527-0.759,1.686-1.645,3.35-1.913c1.68-0.302,3.676,0.273,5.603,1.227c1.943,0.923,3.951,2.255,6.343,2.657
				c1.186,0.207,2.361,0.064,3.425-0.337c1.069-0.388,2.033-0.959,2.951-1.506c1.811-1.119,3.609-2.083,5.306-2.192
				c1.697-0.118,3.006,0.57,3.649,1.232c0.331,0.332,0.51,0.653,0.613,0.873C80.733,338.4,80.764,338.523,80.748,338.529z"/>
		</g>
		<g>
			<path style="fill:#263238;" d="M53.42,338.467c-0.041-0.056,0.277-0.242,0.653,0.065c0.173,0.135,0.328,0.468,0.202,0.793
				c-0.112,0.306-0.422,0.581-0.841,0.562c-0.415-0.038-0.685-0.346-0.764-0.655c-0.089-0.329,0.068-0.632,0.234-0.771
				c0.36-0.302,0.67-0.166,0.646-0.106c0,0.074-0.224,0.117-0.372,0.352c-0.072,0.116-0.104,0.256-0.048,0.388
				c0.05,0.136,0.201,0.267,0.34,0.273c0.134,0.013,0.301-0.098,0.361-0.223c0.066-0.12,0.044-0.25-0.028-0.363
				C53.657,338.554,53.432,338.538,53.42,338.467z"/>
		</g>
		<g>
			<path style="fill:#263238;" d="M65.353,334.667c-0.041-0.056,0.277-0.242,0.653,0.065c0.173,0.135,0.328,0.468,0.202,0.793
				c-0.112,0.306-0.422,0.581-0.841,0.562c-0.414-0.038-0.685-0.346-0.764-0.655c-0.089-0.329,0.067-0.632,0.234-0.771
				c0.36-0.302,0.67-0.166,0.646-0.106c-0.001,0.073-0.224,0.117-0.372,0.352c-0.072,0.116-0.104,0.256-0.047,0.388
				c0.05,0.136,0.201,0.267,0.339,0.273c0.134,0.013,0.301-0.098,0.361-0.223c0.066-0.12,0.044-0.25-0.028-0.363
				C65.589,334.753,65.365,334.738,65.353,334.667z"/>
		</g>
		<g>
			<path style="fill:#263238;" d="M76.923,338.639c-0.041-0.056,0.277-0.242,0.653,0.065c0.173,0.135,0.328,0.468,0.202,0.793
				c-0.112,0.306-0.422,0.581-0.841,0.562c-0.415-0.038-0.685-0.346-0.764-0.655c-0.089-0.329,0.068-0.632,0.234-0.771
				c0.36-0.302,0.67-0.166,0.646-0.106c-0.001,0.074-0.224,0.117-0.372,0.352c-0.072,0.116-0.104,0.256-0.048,0.388
				c0.05,0.136,0.201,0.267,0.34,0.273c0.134,0.013,0.301-0.098,0.361-0.223c0.066-0.12,0.044-0.25-0.028-0.363
				C77.16,338.725,76.935,338.71,76.923,338.639z"/>
		</g>
	</g>
</g>
<g id="Coffee">
	<g>
		<polygon style="fill:#455A64;" points="381.318,316.152 384.749,351.734 402.089,351.734 406.243,316.152 		"/>
		<path style="fill:#263238;" d="M381.318,311.553c0,0-1.445,1.445-1.625,4.696h28.176c0,0,0.542-2.89-1.626-4.696H381.318z"/>
		<polygon style="fill:#263238;" points="384.531,308.293 383.578,311.814 404.845,311.974 403.442,308.253 		"/>
		<path style="fill:#E8505B;" d="M380.962,325.059c0,0.33,2.063,17.908,2.063,17.908h21.199l2.019-17.908H380.962z"/>
	</g>
</g>
</svg>
