<svg xmlns="http://www.w3.org/2000/svg" viewBox="0 0 453.72 357.37"><defs><style>.cls-1{isolation:isolate;}.cls-2{fill:#00b2e8;}.cls-3{fill:#b8cfde;}.cls-10,.cls-13,.cls-14,.cls-3,.cls-6{mix-blend-mode:multiply;}.cls-12,.cls-13,.cls-4{fill:#d8edfc;}.cls-5{fill:#5b509d;}.cls-6{fill:#c6c6c6;}.cls-7{fill:#fff;}.cls-8{fill:#c3dff6;}.cls-9{fill:#b2dbf6;}.cls-10{fill:#76589f;}.cls-11{fill:#2674ba;}.cls-12,.cls-13{opacity:0.5;}.cls-14{fill:#007cb3;opacity:0.3;}.cls-15{fill:none;stroke:#fff;stroke-miterlimit:10;stroke-width:3px;}</style></defs><g class="cls-1"><g id="Capa_1" data-name="Capa 1"><rect class="cls-2" x="109.54" y="80.06" width="168.79" height="210.82" rx="5.73"/><rect class="cls-3" x="125.46" y="95.1" width="144.13" height="187.03"/><rect class="cls-4" x="121.87" y="91.95" width="144.13" height="187.03"/><path class="cls-5" d="M229.62,103.42V88.32h-41.7v15.1l-19.48,6.7v24.94H249.1V110.12Zm-7,1.3H195V92.93h27.64Z" transform="translate(-14.84 -36.13)"/><polygon class="cls-6" points="161.69 90.83 161.69 76.29 173.08 67.28 153.6 73.98 153.6 98.92 234.26 98.92 234.26 90.83 161.69 90.83"/><rect class="cls-7" x="135.74" y="116" width="37.75" height="38.65"/><path class="cls-8" d="M180.37,178.52a2.07,2.07,0,0,0-1.46-1.69l-4.26-1.44-1.8-.68a9.58,9.58,0,0,1-3.4,1.37,9.54,9.54,0,0,1-3.41-1.37l-1.8.68L160,176.83a2.09,2.09,0,0,0-1.46,1.69l-1.34,7.33h24.53Z" transform="translate(-14.84 -36.13)"/><path class="cls-8" d="M175.93,165.15c-.09,4.4-3.05,7.91-6.63,7.84s-6.41-3.68-6.33-8.08,3.05-7.91,6.63-7.84S176,160.75,175.93,165.15Z" transform="translate(-14.84 -36.13)"/><rect class="cls-7" x="135.74" y="166.14" width="37.75" height="38.65"/><path class="cls-8" d="M180.37,228.66a2.07,2.07,0,0,0-1.46-1.69l-4.26-1.44-1.8-.68a9.58,9.58,0,0,1-3.4,1.37,9.54,9.54,0,0,1-3.41-1.37l-1.8.68L160,227a2.09,2.09,0,0,0-1.46,1.69L157.18,236h24.53Z" transform="translate(-14.84 -36.13)"/><path class="cls-8" d="M175.93,215.29c-.09,4.4-3.05,7.91-6.63,7.84s-6.41-3.68-6.33-8.08,3.05-7.9,6.63-7.84S176,210.89,175.93,215.29Z" transform="translate(-14.84 -36.13)"/><rect class="cls-7" x="135.74" y="216.29" width="37.75" height="38.65"/><path class="cls-8" d="M180.37,278.81a2.07,2.07,0,0,0-1.46-1.7l-4.26-1.44-1.8-.67a9.7,9.7,0,0,1-3.4,1.36A9.66,9.66,0,0,1,166,275l-1.8.67L160,277.11a2.09,2.09,0,0,0-1.46,1.7l-1.34,7.32h24.53Z" transform="translate(-14.84 -36.13)"/><path class="cls-8" d="M175.93,265.43c-.09,4.4-3.05,7.91-6.63,7.84s-6.41-3.68-6.33-8.08,3.05-7.9,6.63-7.84S176,261,175.93,265.43Z" transform="translate(-14.84 -36.13)"/><path class="cls-9" d="M267,157.64a1.46,1.46,0,0,1-1.47,1.46H197a1.46,1.46,0,0,1-1.47-1.46h0a1.46,1.46,0,0,1,1.47-1.46H265.5a1.46,1.46,0,0,1,1.47,1.46Z" transform="translate(-14.84 -36.13)"/><path class="cls-9" d="M267,166.85a1.47,1.47,0,0,1-1.47,1.47H197a1.47,1.47,0,0,1-1.47-1.47h0a1.46,1.46,0,0,1,1.47-1.46H265.5a1.46,1.46,0,0,1,1.47,1.46Z" transform="translate(-14.84 -36.13)"/><path class="cls-9" d="M267,176.07a1.46,1.46,0,0,1-1.47,1.46H197a1.46,1.46,0,0,1-1.47-1.46h0A1.47,1.47,0,0,1,197,174.6H265.5a1.47,1.47,0,0,1,1.47,1.47Z" transform="translate(-14.84 -36.13)"/><path class="cls-9" d="M267,185.28a1.46,1.46,0,0,1-1.47,1.46H197a1.46,1.46,0,0,1-1.47-1.46h0a1.47,1.47,0,0,1,1.47-1.47H265.5a1.47,1.47,0,0,1,1.47,1.47Z" transform="translate(-14.84 -36.13)"/><path class="cls-9" d="M267,207.78a1.47,1.47,0,0,1-1.47,1.47H197a1.47,1.47,0,0,1-1.47-1.47h0a1.46,1.46,0,0,1,1.47-1.46H265.5a1.46,1.46,0,0,1,1.47,1.46Z" transform="translate(-14.84 -36.13)"/><path class="cls-9" d="M267,217a1.47,1.47,0,0,1-1.47,1.46H197a1.46,1.46,0,0,1-1.47-1.46h0a1.47,1.47,0,0,1,1.47-1.47H265.5A1.47,1.47,0,0,1,267,217Z" transform="translate(-14.84 -36.13)"/><path class="cls-9" d="M267,226.21a1.46,1.46,0,0,1-1.47,1.46H197a1.46,1.46,0,0,1-1.47-1.46h0a1.47,1.47,0,0,1,1.47-1.47H265.5a1.47,1.47,0,0,1,1.47,1.47Z" transform="translate(-14.84 -36.13)"/><path class="cls-9" d="M267,235.42a1.47,1.47,0,0,1-1.47,1.47H197a1.47,1.47,0,0,1-1.47-1.47h0A1.46,1.46,0,0,1,197,234H265.5a1.46,1.46,0,0,1,1.47,1.46Z" transform="translate(-14.84 -36.13)"/><path class="cls-9" d="M267,257.92a1.47,1.47,0,0,1-1.47,1.47H197a1.47,1.47,0,0,1-1.47-1.47h0a1.46,1.46,0,0,1,1.47-1.46H265.5a1.46,1.46,0,0,1,1.47,1.46Z" transform="translate(-14.84 -36.13)"/><path class="cls-9" d="M267,267.14a1.46,1.46,0,0,1-1.47,1.46H197a1.46,1.46,0,0,1-1.47-1.46h0a1.47,1.47,0,0,1,1.47-1.47H265.5a1.47,1.47,0,0,1,1.47,1.47Z" transform="translate(-14.84 -36.13)"/><path class="cls-9" d="M267,276.35a1.46,1.46,0,0,1-1.47,1.46H197a1.46,1.46,0,0,1-1.47-1.46h0a1.46,1.46,0,0,1,1.47-1.46H265.5a1.46,1.46,0,0,1,1.47,1.46Z" transform="translate(-14.84 -36.13)"/><path class="cls-9" d="M267,285.56A1.47,1.47,0,0,1,265.5,287H197a1.47,1.47,0,0,1-1.47-1.47h0A1.46,1.46,0,0,1,197,284.1H265.5a1.46,1.46,0,0,1,1.47,1.46Z" transform="translate(-14.84 -36.13)"/><path class="cls-10" d="M150.32,149.79a52.94,52.94,0,0,0-56.2,89.52l-6.54,12L81.52,248,47.29,310.55l23.23,12.71,34.24-62.59-6.06-3.31,6.55-12a52.95,52.95,0,0,0,45.07-95.61Zm10.29,66a40.7,40.7,0,1,1-16.17-55.23A40.7,40.7,0,0,1,160.61,215.77Z" transform="translate(-14.84 -36.13)"/><rect class="cls-11" x="84.03" y="237.15" width="18.84" height="12.68" transform="translate(-179.85 172.49) rotate(-61.32)"/><path class="cls-12" d="M157.51,211.16a40.69,40.69,0,1,1-16.17-55.23A40.7,40.7,0,0,1,157.51,211.16Z" transform="translate(-14.84 -36.13)"/><path class="cls-13" d="M115,151.53a40.69,40.69,0,1,0,13.89,80.18C123.82,205.06,119.66,178.24,115,151.53Z" transform="translate(-14.84 -36.13)"/><path class="cls-2" d="M147.22,145.18a53,53,0,1,0,21,71.86A53,53,0,0,0,147.22,145.18Zm-44.94,82.16a40.7,40.7,0,1,1,55.23-16.18A40.71,40.71,0,0,1,102.28,227.34Z" transform="translate(-14.84 -36.13)"/><path class="cls-14" d="M147.22,145.18a53,53,0,1,0,21,71.86A53,53,0,0,0,147.22,145.18ZM99.17,233a47.18,47.18,0,1,1,64-18.76A47.18,47.18,0,0,1,99.17,233Z" transform="translate(-14.84 -36.13)"/><rect class="cls-5" x="37.26" y="267.76" width="71.34" height="26.48" transform="translate(-223.43 174) rotate(-61.32)"/><polygon class="cls-6" points="41.34 268.28 72.17 211.91 63.59 207.22 29.36 269.8 52.59 282.51 55.99 276.3 41.34 268.28"/><path class="cls-15" d="M146.71,212.27a34,34,0,0,1-4.9,5.32" transform="translate(-14.84 -36.13)"/><path class="cls-15" d="M135.74,162.2a34,34,0,0,1,13.5,46.11" transform="translate(-14.84 -36.13)"/><rect class="cls-10" x="211.78" y="118.01" width="171.4" height="222.42"/><rect class="cls-4" x="204.54" y="110.79" width="171.4" height="222.42"/><rect class="cls-7" x="221.03" y="155.29" width="44.89" height="45.96"/><path class="cls-8" d="M271.31,222.8a2.46,2.46,0,0,0-1.74-2l-5.06-1.72-2.15-.8a11.43,11.43,0,0,1-4,1.62,11.39,11.39,0,0,1-4-1.62l-2.15.8-5.07,1.72a2.43,2.43,0,0,0-1.72,2l-1.6,8.71h29.18Z" transform="translate(-14.84 -36.13)"/><path class="cls-8" d="M266,206.9c-.1,5.23-3.62,9.4-7.88,9.32s-7.63-4.38-7.53-9.61,3.63-9.4,7.88-9.32S266.12,201.67,266,206.9Z" transform="translate(-14.84 -36.13)"/><path class="cls-9" d="M374.28,198a1.74,1.74,0,0,1-1.74,1.74H291.05a1.74,1.74,0,0,1-1.74-1.74h0a1.74,1.74,0,0,1,1.74-1.74h81.49a1.74,1.74,0,0,1,1.74,1.74Z" transform="translate(-14.84 -36.13)"/><path class="cls-9" d="M374.28,208.92a1.74,1.74,0,0,1-1.74,1.75H291.05a1.74,1.74,0,0,1-1.74-1.75h0a1.74,1.74,0,0,1,1.74-1.74h81.49a1.74,1.74,0,0,1,1.74,1.74Z" transform="translate(-14.84 -36.13)"/><path class="cls-9" d="M374.28,219.88a1.74,1.74,0,0,1-1.74,1.74H291.05a1.74,1.74,0,0,1-1.74-1.74h0a1.74,1.74,0,0,1,1.74-1.74h81.49a1.74,1.74,0,0,1,1.74,1.74Z" transform="translate(-14.84 -36.13)"/><path class="cls-9" d="M374.28,230.83a1.74,1.74,0,0,1-1.74,1.75H291.05a1.74,1.74,0,0,1-1.74-1.75h0a1.74,1.74,0,0,1,1.74-1.74h81.49a1.74,1.74,0,0,1,1.74,1.74Z" transform="translate(-14.84 -36.13)"/><path class="cls-9" d="M374.28,252.29a1.74,1.74,0,0,1-1.74,1.75H236.74a1.74,1.74,0,0,1-1.74-1.75h0a1.74,1.74,0,0,1,1.74-1.74h135.8a1.74,1.74,0,0,1,1.74,1.74Z" transform="translate(-14.84 -36.13)"/><path class="cls-9" d="M374.28,263.25a1.74,1.74,0,0,1-1.74,1.74H236.74a1.74,1.74,0,0,1-1.74-1.74h0a1.74,1.74,0,0,1,1.74-1.74h135.8a1.74,1.74,0,0,1,1.74,1.74Z" transform="translate(-14.84 -36.13)"/><path class="cls-9" d="M374.28,274.21a1.74,1.74,0,0,1-1.74,1.74H236.74a1.74,1.74,0,0,1-1.74-1.74h0a1.74,1.74,0,0,1,1.74-1.74h135.8a1.74,1.74,0,0,1,1.74,1.74Z" transform="translate(-14.84 -36.13)"/><path class="cls-9" d="M374.28,285.16a1.74,1.74,0,0,1-1.74,1.74H236.74a1.74,1.74,0,0,1-1.74-1.74h0a1.74,1.74,0,0,1,1.74-1.74h135.8a1.74,1.74,0,0,1,1.74,1.74Z" transform="translate(-14.84 -36.13)"/><path class="cls-9" d="M374.28,300.31a1.74,1.74,0,0,1-1.74,1.74H236.74a1.74,1.74,0,0,1-1.74-1.74h0a1.74,1.74,0,0,1,1.74-1.74h135.8a1.74,1.74,0,0,1,1.74,1.74Z" transform="translate(-14.84 -36.13)"/><path class="cls-9" d="M374.28,311.27a1.74,1.74,0,0,1-1.74,1.74H236.74a1.74,1.74,0,0,1-1.74-1.74h0a1.73,1.73,0,0,1,1.74-1.74h135.8a1.73,1.73,0,0,1,1.74,1.74Z" transform="translate(-14.84 -36.13)"/><path class="cls-9" d="M374.28,322.22a1.74,1.74,0,0,1-1.74,1.74H236.74a1.74,1.74,0,0,1-1.74-1.74h0a1.74,1.74,0,0,1,1.74-1.74h135.8a1.74,1.74,0,0,1,1.74,1.74Z" transform="translate(-14.84 -36.13)"/><path class="cls-9" d="M374.28,333.18a1.74,1.74,0,0,1-1.74,1.74H236.74a1.74,1.74,0,0,1-1.74-1.74h0a1.74,1.74,0,0,1,1.74-1.74h135.8a1.74,1.74,0,0,1,1.74,1.74Z" transform="translate(-14.84 -36.13)"/><path class="cls-9" d="M347.56,173.1a1.74,1.74,0,0,1-1.74,1.74H264.33a1.74,1.74,0,0,1-1.74-1.74h0a1.74,1.74,0,0,1,1.74-1.75h81.49a1.74,1.74,0,0,1,1.74,1.75Z" transform="translate(-14.84 -36.13)"/><line class="cls-15" x1="13.38" y1="171.4" x2="44.45" y2="171.4"/><path class="cls-15" d="M451.46,207.54h11.07" transform="translate(-14.84 -36.13)"/><path class="cls-15" d="M431.46,207.54h13.8" transform="translate(-14.84 -36.13)"/><path class="cls-15" d="M277.37,392h11.07" transform="translate(-14.84 -36.13)"/><path class="cls-15" d="M257.38,392h13.79" transform="translate(-14.84 -36.13)"/><path class="cls-15" d="M46,348.92H61.73" transform="translate(-14.84 -36.13)"/><path class="cls-15" d="M14.84,348.92H37.76" transform="translate(-14.84 -36.13)"/><path class="cls-15" d="M434.28,144.69h27.08" transform="translate(-14.84 -36.13)"/><path class="cls-15" d="M412.64,144.69h13.28" transform="translate(-14.84 -36.13)"/><path class="cls-15" d="M209.28,37.63h18.26" transform="translate(-14.84 -36.13)"/><path class="cls-15" d="M184.24,37.63h16.6" transform="translate(-14.84 -36.13)"/><path class="cls-15" d="M129.81,37.63h48.27" transform="translate(-14.84 -36.13)"/><path class="cls-15" d="M397.22,43.63h7.21" transform="translate(-14.84 -36.13)"/><path class="cls-15" d="M387.33,43.63h6.56" transform="translate(-14.84 -36.13)"/><path class="cls-15" d="M365.84,43.63H384.9" transform="translate(-14.84 -36.13)"/><path class="cls-15" d="M328.58,104.94a5.7,5.7,0,1,1-5.7-5.69A5.7,5.7,0,0,1,328.58,104.94Z" transform="translate(-14.84 -36.13)"/><path class="cls-15" d="M167.75,344.24a5.7,5.7,0,1,1-5.69-5.69A5.7,5.7,0,0,1,167.75,344.24Z" transform="translate(-14.84 -36.13)"/><path class="cls-15" d="M434.06,330.2a5.7,5.7,0,1,1-5.69-5.7A5.7,5.7,0,0,1,434.06,330.2Z" transform="translate(-14.84 -36.13)"/><path class="cls-15" d="M467.05,271.23a5.7,5.7,0,1,1-5.69-5.7A5.69,5.69,0,0,1,467.05,271.23Z" transform="translate(-14.84 -36.13)"/><path class="cls-15" d="M49.45,110.64a5.7,5.7,0,1,1-5.7-5.7A5.7,5.7,0,0,1,49.45,110.64Z" transform="translate(-14.84 -36.13)"/></g></g></svg>